<svg id="Layer_1" data-name="Layer 1" xmlns="http://www.w3.org/2000/svg" viewBox="0 0 1897.45 1473.88"><defs><style>.cls-1{fill:#c42222;}.cls-2{fill:#ff2c2c;}.cls-3{fill:#13375b;}.cls-4{fill:#f7a491;}.cls-5{fill:#d32929;}.cls-6{fill:#3c8f7c;}.cls-7{fill:#95d46c;}.cls-8{fill:#f47458;}.cls-9{fill:#f7cc7f;}.cls-10{fill:#f47257;}.cls-11{fill:#e0973f;}.cls-12{fill:#fae0b2;}.cls-13{fill:#b75742;}.cls-14{fill:#7caf5b;}.cls-15{fill:#184655;}.cls-16{fill:#fff;}.cls-17{fill:#f8a492;}.cls-18{fill:#9bc1f9;}.cls-19{fill:#f48c7f;}.cls-20{fill:#07345a;}.cls-21{fill:#96d9c9;}.cls-22{fill:#f79c8d;}.cls-23{fill:#fff3d9;}.cls-24{fill:#fed333;}</style></defs><title>isometric_success</title><path class="cls-1" d="M1832.55,1995.48s186.12-91.77,218.12-139.63-15-50.57-15-50.57,83-80.78,71.37-114.78-54.71-2.82-54.71-2.82,53.4-118.88,28.22-130.83c-46.9-22.26-112.69,105.65-112.69,105.65s14.14-55.57-18.16-53.76c-48.71,2.72-46.69,128.41-46.69,128.41s-5.5-48.19-34.86-32.54C1815.44,1732.7,1832.55,1995.48,1832.55,1995.48Z" transform="translate(-680.94 -531.79)"/><path class="cls-2" d="M1857.51,1685.17c22.92-12.72,45.76,24.46,45.76,24.46s-2.32-98.17,46.39-100.89c32.3-1.81,18.16,53.76,18.16,53.76s65.79-127.91,112.69-105.65l-248.17,436.58C1830.59,1963,1812.1,1710.37,1857.51,1685.17Z" transform="translate(-680.94 -531.79)"/><path class="cls-1" d="M1837.36,1996.61s152.22,18.91,191.63,2.06,11.17-37.66,11.17-37.66,84.62-16.63,91.15-42.59-32.51-23.89-32.51-23.89,81.15-52.54,70.3-70.23c-20.21-32.94-113.22,20.1-113.22,20.1s31.4-28.91,10.52-40.91c-31.49-18.09-81.31,61.13-81.31,61.13s3.1-19.53-21.57-21.69C1919.25,1839,1837.36,1996.61,1837.36,1996.61Z" transform="translate(-680.94 -531.79)"/><path class="cls-2" d="M1962.52,1828.74c24.67,2.16,22.57,35.88,22.57,35.88s50.72-93.9,82.21-75.81c20.88,12-3.83,51.4-3.83,51.4s85.42-48.85,105.63-15.91l-332.2,171.47C1848.2,1976,1921.17,1825.11,1962.52,1828.74Z" transform="translate(-680.94 -531.79)"/><path class="cls-1" d="M1439.48,1990.68s-186.11-91.77-218.12-139.63,15.05-50.57,15.05-50.57-83.06-80.78-71.37-114.78,55.28-1.51,55.28-1.51-54-120.19-28.8-132.14c46.9-22.26,112.7,105.65,112.7,105.65s-14.14-55.57,18.16-53.76c48.7,2.72,46.69,128.41,46.69,128.41s5.5-48.19,34.86-32.53C1456.6,1727.9,1439.48,1990.68,1439.48,1990.68Z" transform="translate(-680.94 -531.79)"/><path class="cls-2" d="M1414.52,1680.37c-22.92-12.72-45.75,24.46-45.75,24.46s2.31-98.17-46.39-100.89c-32.3-1.81-18.16,53.76-18.16,53.76s-65.8-127.91-112.7-105.65l248.18,436.59C1441.45,1958.15,1459.94,1705.57,1414.52,1680.37Z" transform="translate(-680.94 -531.79)"/><path class="cls-1" d="M1434.67,1991.82s-152.21,18.9-191.63,2.06-11.16-37.66-11.16-37.66-84.63-16.64-91.16-42.59,33.87-23.41,33.87-23.41-82.5-53-71.65-70.72c20.21-32.94,113.22,20.11,113.22,20.11s-31.4-28.92-10.52-40.91c31.48-18.1,81.3,61.12,81.3,61.12s-3.09-19.53,21.58-21.69C1352.79,1834.25,1434.67,1991.82,1434.67,1991.82Z" transform="translate(-680.94 -531.79)"/><path class="cls-2" d="M1305.92,1811.68c-24.67,2.17-24.28,26.13-24.28,26.13s-45.42-71.89-76.9-53.8c-20.88,12,3.82,51.4,3.82,51.4s-85.41-48.85-105.62-15.91L1435.13,1991C1423.84,1971.24,1347.27,1808.06,1305.92,1811.68Z" transform="translate(-680.94 -531.79)"/><path class="cls-3" d="M2323.49,1544.73c4.58-11,9.24-22.06,21.12-27.64,9.61-4.52,19.66-2.82,28.2,3.61,24.21,18.2,3.11,38.26,30.67,72.77,8.56,10.73,18.92,19.39,24.06,32,7.18,17.59-1.38,26-15.08,34.47-65.59,40.31-100-42.47-98.74-61.4C2314.64,1584.41,2320.54,1551.83,2323.49,1544.73Z" transform="translate(-680.94 -531.79)"/><path class="cls-4" d="M2284,1911.8a187.36,187.36,0,0,0,9,28.92c.33.72,3.35,3.3,3.71,4-.95,18-12,29.07-22.5,37,2-9.13,6.84-19.7,6.1-21.69a255.34,255.34,0,0,0-15.31-35.75C2273.92,1923,2276.91,1917.5,2284,1911.8Z" transform="translate(-680.94 -531.79)"/><path class="cls-5" d="M2324.48,1697.91l55.84,42.41s-27.65,26.6-38,36.48-74.36,55.92-75.26,58.19c-.67,1.68,14.56,54.6,24.38,82.85-5.9,6-18.9,11.94-26.6,13.89-19.35-36.94-43.14-100-43.14-108.54C2221.68,1809.25,2324.48,1697.91,2324.48,1697.91Z" transform="translate(-680.94 -531.79)"/><path class="cls-4" d="M2481.11,1782.52c-1.82,1.77-14,25.39-18.56,38-6.75-4.26-10.83-9.32-18.38-12.18,5.95-8.61,17.56-29.34,18.51-34.27,2.27-11.7,4.92-13.42,4.92-13.42s39.23,13.27,41.84,17S2488.44,1775.37,2481.11,1782.52Z" transform="translate(-680.94 -531.79)"/><path class="cls-6" d="M2462.23,1776.7c-3.05,0,.26-13.75,1-16.92.78-3.56,2.85-4.63,3.36-4.76,1.39-.34,45,14.41,52.35,19.71a8.42,8.42,0,0,1,1.53,1.75c4,7.52-31.9,9-37.07,5.66C2478.76,1779.22,2475.92,1776.66,2462.23,1776.7Z" transform="translate(-680.94 -531.79)"/><path class="cls-2" d="M2312.55,1710.43l48.74-19.69c-.19.08.3,2,.34,2.13,4.57,17.79,29,10.93,39,41.84,7.11,21.84,17.53,103.52,17.53,103.52s7.38-14,30.31-39.88c1.78-2,24.37,13.52,24.37,13.52-16.8,44.54-58.06,80.73-63.64,78.17-37.74-17.32-83.07-153.93-83-153.92C2321.92,1727.76,2312.55,1710.43,2312.55,1710.43Z" transform="translate(-680.94 -531.79)"/><path class="cls-4" d="M2310.75,1566.66s-22.85-36.19-26.83-48.23,0-69.37.34-73.45,14.2-15.21,12-18.41-21.25-5.82-24.45-5.19-9.42,0-12,2.63c-.34.33,6.06,15.43,5.93,17.77-.91,16-10,66.85-7,80.6,3.41,15.82,37.36,66.37,37.36,66.37Z" transform="translate(-680.94 -531.79)"/><path class="cls-4" d="M2393.76,1587.74s61.15,1.52,74.58,2.62,62.14-2.95,64-3.17,14.36-21.35,16.44-19.08-6.95,10.48-4.16,12.61,32.75-2.64,32.36-.43c-.75,4.15-18.23,3.62-18.21,5.62s18.3-1.12,19.54,2.2-17.59,1.35-18.34,2.83,17.46,4.2,15.6,7.29c-1,1.68-16.14-2.8-16.06-.51s11.1,7.49,9.75,9.31-8.66-5.59-15.06-5.69-11-3.43-21.2-.62-45.05,16.84-66.85,15.81-70-3.18-70-3.18Z" transform="translate(-680.94 -531.79)"/><path class="cls-7" d="M2304,1651.59c-.83-10.08-2.24-37.3-1.79-40.64-3-10.48-14.18-26-16.51-30.4,0,0,15.1-17.11,26.29-17,0,0,11.92,15,20.76,19.65.13,0,3.13,1.33,4.44,1.33,8.54-.07,38.36-1,43.93.69l-3.15,46.09c-1.61,2.64-3.55,55.64-6.85,60s-51.31,24.22-59.27,19.09C2311.55,1710.24,2305.7,1672,2304,1651.59Z" transform="translate(-680.94 -531.79)"/><path class="cls-7" d="M2365.6,1586.33c5.5-2.63,45.69-2.54,45.69-2.54s5.56,27.72,1.07,34.38c0,0-35.6,5.3-34.59,8.22Z" transform="translate(-680.94 -531.79)"/><path class="cls-4" d="M2356.66,1567.59s-3.09,16-2.47,22.3-2.36,26.63-15.71,26.7-2.53-25.84-1.28-32,1.56-25.32,1.56-25.32Z" transform="translate(-680.94 -531.79)"/><path class="cls-8" d="M2338.48,1568.85c.21-5.23.28-9.6.28-9.6l17.9,8.34s-.63,3.27-1.27,7.44C2347.56,1576.6,2341.88,1573.7,2338.48,1568.85Z" transform="translate(-680.94 -531.79)"/><path class="cls-4" d="M2363.2,1523.47a22.13,22.13,0,0,1,9.42,12.12c2.52,8.29-.35,29.69-18.16,34.86s-25.54-11.78-21.87-25S2344.24,1515.39,2363.2,1523.47Z" transform="translate(-680.94 -531.79)"/><path class="cls-4" d="M2330.36,1540.28c.35,3.56,2.31,6.28,4.38,6.08s3.48-3.26,3.13-6.82-2.32-6.28-4.39-6.07S2330,1536.72,2330.36,1540.28Z" transform="translate(-680.94 -531.79)"/><path class="cls-6" d="M2293.16,1941.16c1-2.87,12.7,5.75,15.44,7.48,3.09,1.95,3.39,4.25,3.33,4.78-.14,1.39-27.81,38-36.09,43.19a4.92,4.92,0,0,1-3,.39c-4.75-1.65,1.88-31,7.85-37C2284.57,1956.15,2288.54,1954,2293.16,1941.16Z" transform="translate(-680.94 -531.79)"/><path class="cls-9" d="M2394.69,1394.42l-49.09,17.45a8.07,8.07,0,0,0-5.09,5.53l-13.44,50.47a8,8,0,0,1-14.18,2.82l-31.79-41.45a8.07,8.07,0,0,0-6.82-3.15l-52,2.71a8.1,8.1,0,0,1-7.09-12.66l29.45-43.07a8.12,8.12,0,0,0,.87-7.48l-18.72-48.79a8.06,8.06,0,0,1,9.8-10.65l50,14.83a8,8,0,0,0,7.36-1.46l40.46-32.87a8.07,8.07,0,0,1,13.14,6.07L2349,1345a8.12,8.12,0,0,0,3.68,6.57l43.73,28.48A8.1,8.1,0,0,1,2394.69,1394.42Z" transform="translate(-680.94 -531.79)"/><path class="cls-4" d="M2296,1427.07c1.83,2.69-8.09,11.21-10.84,15.92l-6.23-8.49C2282,1433.9,2293.86,1424,2296,1427.07Z" transform="translate(-680.94 -531.79)"/><path class="cls-3" d="M2361.11,1522.38s3.23,23.88,10.95,28.19,4.49,14.9,4.49,14.9,7-24.59.9-32.49S2361.11,1522.38,2361.11,1522.38Z" transform="translate(-680.94 -531.79)"/><path class="cls-4" d="M2367.49,1554c-2.09,3.11-2.08,6.78,0,8.19s5.5,0,7.6-3.07,2.08-6.78,0-8.19S2369.58,1550.89,2367.49,1554Z" transform="translate(-680.94 -531.79)"/><path class="cls-10" d="M2281,1429.07a2.09,2.09,0,0,0,.14.17l2.26,3c-1.66-.45-4.83-1.35-7.91.76C2275.45,1433,2276.47,1430.77,2281,1429.07Z" transform="translate(-680.94 -531.79)"/><path class="cls-4" d="M939.41,1694.36c.6.25-7.95,11.28-16.28,19.07-6.72,8.43-13,18.41-15.19,29.29-3.3,16.55-.55,98.28-3.43,104.1-24.65,24.1-42.5,84.59-47.51,103a19.77,19.77,0,0,1-5.7,9.36h0l1.1,20.86,12.25,11.28s-2.73-17,2.72-29.6c0,0,62.07-94,65.75-101.18,7-20.46,32.68-125.3,32.68-125.3l6-24.1Z" transform="translate(-680.94 -531.79)"/><path class="cls-8" d="M837.88,1965.93s7.75,12,8.42,16.61,4.79,15.21,9.36,15.88c1,.15,18.8,1.46,18.67-.76-.1-1.7-6.53-4.12-9.52-6.19-5.16-3.56-13.17-32.59-13.17-32.59S838.22,1962.21,837.88,1965.93Z" transform="translate(-680.94 -531.79)"/><path class="cls-4" d="M992.46,1730.59s40,85.48,40.24,100.51c.21,12.88-7,85.16-5,145.35.07,2.18,2.82,5.06,6.83,6.9,2.25,1,13.14,5.9,13.14,5.9l1.5,3.89-37.5-2.67-.53-10.24s-14.92-90-13.4-115.5c.24-4,2.18-28,2.18-28l-45.09-87,28.36-37.26Z" transform="translate(-680.94 -531.79)"/><path class="cls-5" d="M996.21,1538.73c-6.06-16.14-21.88-25.92-38.36-22.9a36.15,36.15,0,0,0-22.66-16.18c-18.1-3.88-42.57,3.27-41.91,22.43-7,12.87-7.29,31.27,3.46,41.06-3.74,17.31,12.47,34,33.54,33.43,7.34,12.1,21.32,19.89,35.22,18.23,3.34-.4,8.43-1.23,9.27-1-1.06-.19,22.33,17.74,42.15-9.84C1037.15,1575.79,1022.94,1541.73,996.21,1538.73Z" transform="translate(-680.94 -531.79)"/><path class="cls-4" d="M993.82,1441.92a37,37,0,0,1,3.6-6.59l1.56-2.28c.19-.41.34-.75.42-1,.68-2,.16-8.52.16-8.52l-13.68,3.31-3,7.9c-3-1.41-8.24-12-10.14-9.45-2.24,3,6.21,16,6.88,19.53s-7.27,58.22-9.56,69.08-17.77,41.18-17.77,41.18l14.16,18s22.69-46.23,24.18-60.35c.16-1.48.34-3.7.53-6.45Z" transform="translate(-680.94 -531.79)"/><path class="cls-4" d="M899.54,1613.19l-16.8-14.25s-13.61,22.69-24.51,41.19c-10.82-3.91-38.76-22.13-40.14-23s-4.44-21.43-6.81-20.34,1.82,10.87-1.06,11.6-24.38-13.65-24.82-11.73c-.83,3.6,12.84,9.32,12.15,10.93s-13.74-7.34-15.82-5.11,13.11,7.27,13.19,8.73-14.89-2.77-14.5.37c.22,1.7,13.4,3.42,12.57,5.24s-11.1,2.11-10.67,4.05,8.57-1.45,13.54.73,9.64,1.11,16.58,6.95,41,39.22,51.64,36.36C873.36,1662.45,899.54,1613.19,899.54,1613.19Z" transform="translate(-680.94 -531.79)"/><path class="cls-8" d="M900.82,1833.27s0,0,0,0Z" transform="translate(-680.94 -531.79)"/><path class="cls-8" d="M958,1592c1.07-6.57,11.24-23,12.85-27,0,0-11.79-15-21.36-13.85,0,0-12.87,21.32-20.18,22s-33,1.83-37.55,4.56-23.64,32.12-23.64,32.12,17.19,17.56,24.11,17.52c0,0,3.68-7.24,5.14-8.82,1,3.36,17.06,55.26,17,67l.13.1a33.63,33.63,0,0,0,48.37-6.22h0a267,267,0,0,1-.59-31.1C963.54,1624.94,968.27,1612.51,958,1592Z" transform="translate(-680.94 -531.79)"/><path class="cls-2" d="M1041.39,1792.78l-78.47-113.37a77,77,0,0,1-14.59,4.67c-11.25,2.17-22.52,1.82-33.91,1.45a7.14,7.14,0,0,1-.07,1.11c-1.3,9.35-13.7,23.82-16.26,52.18-2.9,32.19-1.14,88.11-.16,91.78C950.1,1824.26,1026.58,1808.31,1041.39,1792.78Z" transform="translate(-680.94 -531.79)"/><path class="cls-8" d="M995.63,1433.4s-4.93,3.3-9.12,2.24a17.13,17.13,0,0,1-6.11-2.62s2.31,4.22,5.73,6.06C992,1442.24,995.63,1433.4,995.63,1433.4Z" transform="translate(-680.94 -531.79)"/><path class="cls-9" d="M898.33,1410,944,1400.6a7,7,0,0,1,6.42,2l33.36,33.92a7.13,7.13,0,0,0,12.17-4.49l5.45-48.23a7.51,7.51,0,0,1,3.79-5.76l41.15-22.58A7.67,7.67,0,0,0,1046,1342l-42.26-20.4a7.46,7.46,0,0,1-4.08-5.55l-7.93-47.88a7.13,7.13,0,0,0-12.39-3.84l-31.56,35.62a7,7,0,0,1-6.32,2.33l-46-7c-5.9-.9-10.22,5.66-7.3,11.1l22.75,42.41a7.81,7.81,0,0,1,.18,7l-20.53,43.55C887.83,1404.89,892.48,1411.22,898.33,1410Z" transform="translate(-680.94 -531.79)"/><path class="cls-4" d="M916.09,1554.23s2.76,14.86,2.2,20.72,2.11,24.76,14,24.82,2.26-24,1.14-29.77-1.39-23.52-1.39-23.52Z" transform="translate(-680.94 -531.79)"/><path class="cls-8" d="M932.31,1555.4c-.18-4.87-.24-8.92-.24-8.92l-16,7.75s.56,3,1.13,6.91C924.21,1562.6,929.28,1559.91,932.31,1555.4Z" transform="translate(-680.94 -531.79)"/><path class="cls-4" d="M910.24,1513.21a20.42,20.42,0,0,0-8.4,11.27c-2.26,7.71.31,27.6,16.21,32.4s22.8-11,19.53-23.27S927.17,1505.7,910.24,1513.21Z" transform="translate(-680.94 -531.79)"/><path class="cls-4" d="M939.57,1528.84c-.31,3.31-2.07,5.83-3.92,5.65s-3.1-3-2.78-6.34,2.06-5.83,3.91-5.64S939.88,1525.53,939.57,1528.84Z" transform="translate(-680.94 -531.79)"/><path class="cls-4" d="M906.42,1541.59c1.86,2.89,1.86,6.3,0,7.62s-4.91,0-6.78-2.86-1.86-6.3,0-7.62S904.55,1538.7,906.42,1541.59Z" transform="translate(-680.94 -531.79)"/><path class="cls-4" d="M997.94,1415.25c-3.08-.6-16.14,9.65-16,11.18s12.86-5,13.22-3.92c.28.82-14.26,4.63-13.5,6.09.52,1,13.57-1.75,13.91-1.11.55,1-10.88,1.42-10.15,2.53.86,1.28,11.74.75,11.74.75s2.19-3.52,2.42-4.84a10.69,10.69,0,0,0,.05-2.26c0-.72.28-1.35.18-2.16C999.38,1418.21,999.65,1415.58,997.94,1415.25Z" transform="translate(-680.94 -531.79)"/><path class="cls-4" d="M980.54,1423.09l-4.86,6-3.2-2.39a1.6,1.6,0,0,1,.1-1.34C973,1424.54,980.44,1420.87,980.54,1423.09Z" transform="translate(-680.94 -531.79)"/><path class="cls-8" d="M1011.57,1997.61h47.36c1.75-.16,2.18-1.57,1.57-2.44-1.25-1.8-6.77-3.12-13-6-10.9,1.14-34.62-6.31-36.34-8.8C1010.19,1985.39,1010.59,1997.39,1011.57,1997.61Z" transform="translate(-680.94 -531.79)"/><path class="cls-4" d="M976,1428.68s6.43,3.93,9.09,8.51a11.07,11.07,0,0,1,1.43,8.4l-11-13.55Z" transform="translate(-680.94 -531.79)"/><path class="cls-11" d="M1917.48,892.83c-1.15,5.38-2.19,10.94-5,15.44q-7.21,8.72-13.66,18c3-.21,6-.35,9-.35,29.67,0,57.27,10.45,77.73,29.42,18.28,17,28.35,38.68,28.35,61.18s-10.07,44.23-28.35,61.19c-20.46,19-48.06,29.41-77.73,29.41s-57.12-10.39-77.56-29.27c-1.49,4.41-3,8.79-4.45,13.19-10,5.07-17,17-17,30.93,0,18.52,12.43,33.54,27.76,33.54,12.06,0,22.29-9.31,26.13-22.28a142.68,142.68,0,0,0,45.15,7.29c73.86,0,133.73-55.52,133.73-124C2041.53,951,1986.81,897.43,1917.48,892.83Z" transform="translate(-680.94 -531.79)"/><path class="cls-11" d="M1317.75,892.83c1.15,5.38,2.19,10.94,5,15.44q7.21,8.72,13.67,18c-3-.21-6-.35-9-.35-29.67,0-57.27,10.45-77.73,29.42-18.28,17-28.35,38.68-28.35,61.18s10.07,44.23,28.35,61.19c20.46,19,48.06,29.41,77.73,29.41s57.12-10.39,77.56-29.27c1.49,4.41,3,8.79,4.45,13.19,10,5.07,17,17,17,30.93,0,18.52-12.43,33.54-27.76,33.54-12.06,0-22.29-9.31-26.13-22.28a142.58,142.58,0,0,1-45.15,7.29c-73.86,0-133.73-55.52-133.73-124C1193.7,951,1248.42,897.43,1317.75,892.83Z" transform="translate(-680.94 -531.79)"/><path class="cls-9" d="M1936.72,878.71V913c0,154.71-125.45,280.16-280.17,280.16-71.26-.95-120.15,6.42-187.8-23.53-97.49-42.75-167.67-140.71-167.67-256.63V878.71Z" transform="translate(-680.94 -531.79)"/><path class="cls-12" d="M1468.75,1169.58l.21.09,100.71-291H1464.83L1384.11,1112A280.52,280.52,0,0,0,1468.75,1169.58Z" transform="translate(-680.94 -531.79)"/><path class="cls-12" d="M1534.27,1189.21l106.26-310.5h-52.66L1486,1176.55A254,254,0,0,0,1534.27,1189.21Z" transform="translate(-680.94 -531.79)"/><path class="cls-12" d="M1373.89,1101.3l79.48-222.59h-25l-71.9,201.4Q1364.65,1091.15,1373.89,1101.3Z" transform="translate(-680.94 -531.79)"/><path class="cls-9" d="M1909,859.31H1330.43c-21.12,0-38.33,11.75-39.54,26.55h657.62C1947.29,871.06,1930.08,859.31,1909,859.31Z" transform="translate(-680.94 -531.79)"/><polygon class="cls-9" points="830.54 653.13 863.27 821.16 1006.41 821.16 1046.97 653.13 830.54 653.13"/><polygon class="cls-13" points="1046.98 653.14 1037.83 691.06 837.94 691.06 830.55 653.14 1046.98 653.14"/><polygon class="cls-9" points="1046.98 1029.05 830.55 1029.05 846.77 945.64 863.26 861 1006.43 861 1026.86 945.64 1046.98 1029.05"/><polygon class="cls-13" points="1046.98 1029.05 830.55 1029.05 846.77 945.64 1026.86 945.64 1046.98 1029.05"/><path class="cls-12" d="M838.16,821.17h193.36A15.44,15.44,0,0,1,1047,836.61v8.94A15.45,15.45,0,0,1,1031.52,861H838.16a15.44,15.44,0,0,1-15.44-15.44v-8.95a15.44,15.44,0,0,1,15.44-15.44Z"/><path class="cls-9" d="M816.24,962.8H1054a9,9,0,0,1,9,9v45.92a0,0,0,0,1,0,0H807.29a0,0,0,0,1,0,0V971.76A9,9,0,0,1,816.24,962.8Z"/><path class="cls-9" d="M1828.35,1582.26V1599h-424.6v-16.7c0-19.23,11.74-34.85,26.2-34.85h372.19C1816.61,1547.41,1828.35,1563,1828.35,1582.26Z" transform="translate(-680.94 -531.79)"/><polygon class="cls-12" points="822.77 1015.63 809.34 1067.17 791.62 1067.17 805.05 1015.63 822.77 1015.63"/><polygon class="cls-12" points="797.4 1015.63 783.97 1067.17 766.23 1067.17 779.68 1015.63 797.4 1015.63"/><polygon class="cls-12" points="845.33 1015.63 831.9 1067.17 814.15 1067.17 827.61 1015.63 845.33 1015.63"/><path class="cls-9" d="M1986.44,1980.31V1997h-711.5v-16.69c0-19.24,19.67-34.85,43.91-34.85h623.68C1966.77,1945.46,1986.44,1961.07,1986.44,1980.31Z" transform="translate(-680.94 -531.79)"/><polygon class="cls-12" points="761.51 1413.67 739 1465.21 709.31 1465.21 731.82 1413.67 761.51 1413.67"/><polygon class="cls-12" points="719 1413.67 696.49 1465.21 666.76 1465.21 689.3 1413.67 719 1413.67"/><polygon class="cls-12" points="799.31 1413.67 776.8 1465.21 747.07 1465.21 769.62 1413.67 799.31 1413.67"/><path class="cls-9" d="M1800.94,1153.16v12.6a39.45,39.45,0,0,1-39.44,39.48h-285a39.47,39.47,0,0,1-39.48-39.48v-12.6Z" transform="translate(-680.94 -531.79)"/><polygon class="cls-14" points="1206.78 1413.67 671.35 1413.67 677.88 1067.18 1199.6 1067.18 1206.78 1413.67"/><polygon class="cls-7" points="1079.45 1413.67 798.68 1413.67 802.1 1067.18 1075.69 1067.18 1079.45 1413.67"/><path class="cls-15" d="M2466.21,1997H685a4,4,0,0,0-4,4h0a4,4,0,0,0,4,4H2466.21a4,4,0,0,0,4-4h0A4,4,0,0,0,2466.21,1997Z" transform="translate(-680.94 -531.79)"/><polygon class="cls-13" points="1025.19 1403.25 982.73 1333.93 920.34 1386.03 984.54 995.11 1089.39 1012.33 1025.19 1403.25"/><polygon class="cls-13" points="1219.15 1385.84 1156.63 1333.88 1114.33 1403.3 1049.23 1012.52 1154.04 995.06 1219.15 1385.84"/><path class="cls-8" d="M1986.44,1616.87c0,22.59-19.91,41.75-26.53,62.13-6.86,21.12-2.24,48.28-15,65.86-12.92,17.75-40.26,21.7-58,34.62-17.58,12.8-29.71,37.65-50.83,44.51-20.38,6.62-44.71-6.14-67.3-6.14s-46.91,12.76-67.29,6.14c-21.12-6.86-33.25-31.71-50.83-44.51-17.76-12.92-45.1-16.87-58-34.62-12.8-17.58-8.19-44.74-15-65.86-6.62-20.38-26.53-39.54-26.53-62.13s19.91-41.74,26.53-62.12c6.85-21.12,2.24-48.28,15-65.86,12.92-17.76,40.26-21.7,58-34.62,17.58-12.8,29.71-37.66,50.83-44.51,20.38-6.62,44.71,6.14,67.29,6.14s46.92-12.76,67.3-6.14c21.12,6.85,33.26,31.71,50.83,44.51,17.76,12.92,45.1,16.87,58,34.62,12.79,17.58,8.18,44.74,15,65.86C1966.53,1575.13,1986.44,1594.29,1986.44,1616.87Z" transform="translate(-680.94 -531.79)"/><path class="cls-9" d="M1823,1810.1c-6.85,0-14.81-1.75-23.24-3.61-10-2.18-20.25-4.44-31-4.44s-21.07,2.26-31,4.44c-8.43,1.86-16.4,3.6-23.24,3.6a26,26,0,0,1-8.16-1.13c-8.71-2.82-16.52-11.69-24.79-21.08-6.54-7.44-13.31-15.12-21.63-21.17s-17.91-10.26-27.08-14.25c-11.41-5-22.18-9.65-27.46-16.9s-6.33-18.77-7.54-31.1c-1-10-2-20.33-5.24-30.34-3.13-9.61-8.28-18.32-13.27-26.73-6.43-10.83-12.49-21.07-12.49-30.52s6.06-19.68,12.49-30.51c5-8.42,10.14-17.12,13.26-26.73,3.26-10,4.27-20.35,5.25-30.35,1.21-12.32,2.35-24,7.54-31.09s16.05-11.94,27.46-16.9c9.17-4,18.66-8.12,27.09-14.25s15.08-13.74,21.63-21.17c8.27-9.39,16.07-18.26,24.78-21.09a26.26,26.26,0,0,1,8.16-1.12c6.85,0,14.81,1.74,23.24,3.6,10,2.18,20.25,4.44,31,4.44s21.06-2.26,31-4.44c8.43-1.86,16.4-3.6,23.24-3.6a26.26,26.26,0,0,1,8.16,1.12c8.71,2.83,16.52,11.7,24.79,21.09,6.54,7.43,13.31,15.12,21.63,21.17s17.91,10.26,27.08,14.25c11.41,5,22.18,9.65,27.46,16.9s6.33,18.77,7.54,31.1c1,10,2,20.33,5.24,30.34,3.13,9.61,8.29,18.32,13.28,26.73,6.42,10.83,12.48,21.07,12.48,30.51s-6.06,19.69-12.49,30.52c-5,8.41-10.14,17.12-13.26,26.73-3.25,10-4.27,20.34-5.25,30.34-1.21,12.33-2.35,24-7.54,31.1s-16,11.94-27.46,16.9c-9.17,4-18.66,8.11-27.09,14.25s-15.08,13.73-21.62,21.17c-8.27,9.39-16.08,18.26-24.79,21.08A25.93,25.93,0,0,1,1823,1810.1Z" transform="translate(-680.94 -531.79)"/><circle class="cls-8" cx="1768.73" cy="1616.87" r="158.6" transform="translate(-758.44 2612.88) rotate(-82.04)"/><circle class="cls-16" cx="1087.79" cy="1085.09" r="150.69"/><circle class="cls-9" cx="1768.73" cy="1616.87" r="136.62" transform="translate(-695.34 2686.07) rotate(-84.35)"/><path class="cls-16" d="M1695,1674.55l5.08-38.34h-16v-11.54h17.8l3.72-28.36H1688.7v-11.54h18.59l5.08-37.36h11.35l-4.89,37.36h20.34l5.08-37.36h11.54l-4.89,37.36h16v11.54h-17.8l-3.52,28.36h16.82v11.54h-18.58l-5.08,38.34H1727l5.09-38.34h-20.35l-5.08,38.34Zm38.92-49.88,3.71-28.36h-20.34l-3.71,28.36Z" transform="translate(-680.94 -531.79)"/><path class="cls-16" d="M1820.15,1563.45h-.39l-22.1,11.93-3.33-13.1,27.78-14.87h14.66v127.14h-16.62Z" transform="translate(-680.94 -531.79)"/><path class="cls-17" d="M1927.42,654.39c-1.49,6.13-4.18,15.82-4.18,15.82.21,2.67,1,13.75,1.94,27.34l-20-8s.24-22.14-.65-23.5c-.75-1.14-2,.29-8.14-8.47-1.77-2.53-2.1-7.05-2.1-7.05s-.36-5.56.89-6.08a2.59,2.59,0,0,1,3.13,1.27c.45,1,.34,3.2.79,4.16s3.34,2.12,4.56,2.06-.16-16.45-.16-16.45-.68-4.64-1-6.17c-.29-1.29-1.47-5.09-1.47-5.09s-1.39-5.52.32-5.94c1-.25,3.59,4.23,5.35,9,1.9,5.12,3,10.55,3.52,10.48,1.27-.17.6-9.16.6-9.16a28.81,28.81,0,0,1-1.24-6.06c-1.2-2.38-2-6.79.12-7.16.39-.07,3.17,5.54,3.17,5.54s1.1,4,1.73,5.8c1.13,3.25,1.3,8.39,1.88,10.66.49,1.89.94,1.11,1.14,1.19a49.09,49.09,0,0,0-.43-6.11c-.16-1.8,0-3.88-.46-5.93a44.06,44.06,0,0,1-.85-6.26c-.34-4.65,2.58-4.17,3.6.08.38,1.61.79,3.38,1.19,5.17,1.57,7,1.53,13.68,2.28,13.74,1,.07.33-12.15.33-12.15s1.5-6.77,3-.49a54.93,54.93,0,0,1,1.53,13.49C1927.63,641.9,1928.92,648.26,1927.42,654.39Z" transform="translate(-680.94 -531.79)"/><path class="cls-14" d="M1926.12,681.17s-22.5-5.39-22.72-3.58c-4.72,39.59-6.85,53.9-7.65,54.31-2.73,1.41-38.88-31.65-45.32-33.89-3.09-1.07-6.44-.89-9.66-.8-7.67.23-9.18.26-9.18.26h-.28l0,7.22c8.64,7.77,28.42,125.5,30.08,125.43,1.87-.09,41,9.75,40.27,6.45-.12-.53-26.51-22.13-34-53.29-2.51-10.47-3.75-21.73-5.12-31.59,8.69,4.35,42.61,21,48,18.84C1927.3,763.68,1926.12,681.17,1926.12,681.17Z" transform="translate(-680.94 -531.79)"/><path class="cls-4" d="M1993.44,890.21s36.37,28.49,37.58,33.54c1.75,7.27,35.06-2.29,27-3.77-1.85-.34-7.77-1.84-8.25-2.1-2.6-1.39-35-40.39-35-40.39Z" transform="translate(-680.94 -531.79)"/><path class="cls-13" d="M2073.66,920l-23.22-1.89s-6.64,5.49-19.39,5.75a29.74,29.74,0,0,0-1.07,12.64c.16,1.17.36,4.72,1.55,4.64,4.29-.29,15.72-3.13,28.74-5.74,0,0,17.5-3.7,27.61-9.75S2073.66,920,2073.66,920Z" transform="translate(-680.94 -531.79)"/><path class="cls-1" d="M1830.48,818.75a159.09,159.09,0,0,0,56.09-2.42c34.08-8,71.77-15.34,82.82-8.92,8.88,5.16,64.39,89,64.39,89l-21.44,15.65-61.11-68.44s-78,28.77-95.49,25.58C1815.86,862,1815.29,830.12,1830.48,818.75Z" transform="translate(-680.94 -531.79)"/><polygon class="cls-1" points="1178.66 270.04 1205.31 301.71 1155.87 316.77 1149.54 286.96 1178.66 270.04"/><path class="cls-4" d="M1913.76,946.48s-1.62,44-2.63,51.44,18.67,29.75,16.16,22c-.58-1.79-2.07-7.7-2.07-8.25,0-2.95,7.29-53.13,7.29-53.13Z" transform="translate(-680.94 -531.79)"/><path class="cls-13" d="M1939.86,1035.93l-14.52-23.62s-8-3.23-14.28-14.33a29.73,29.73,0,0,0-11.63,5.06c-1,.71-7.46,5.46-7,6.56,1.66,4,10.52,12.69,20.21,22.15,0,0,13.73,11.07,23.85,17.09S1939.86,1035.93,1939.86,1035.93Z" transform="translate(-680.94 -531.79)"/><path class="cls-1" d="M1956.92,859.75c-9.31-12.41-84.47-24.21-84.47-24.21l-21-40.28-46.35,28.58s4.64,36.88,8.12,46.73c4.63,13.13,35.77,13.8,54.8,13.6,17.5-.18,49.47,3.39,49.47,3.39L1906.72,983s21.25,4.84,27.22,4.06C1934.62,986.92,1968.51,875.2,1956.92,859.75Z" transform="translate(-680.94 -531.79)"/><path class="cls-18" d="M1831.57,697.55,1805.42,699s-.6.18-.78.22c-2.13.39-.2,76.59,1.7,105s5.76,40.41,5.76,40.41,35.46-6.29,46.34-10.52c4.52-1.75,15.45-15.42,15.45-15.42s-11.17-15-16.79-39.4c-4.34-18.81-9.69-52.15-12.76-59.11C1837.31,704.25,1831.57,697.55,1831.57,697.55Z" transform="translate(-680.94 -531.79)"/><path class="cls-4" d="M1806.17,675.92l-.75,23.09s16.93,29.16,25.62,25.1c7.29-3.41.82-25.6.82-25.6s-1.27-5.08-3-10.93c-1.22-4.08-2.24-8.5-2.16-11.75C1826.86,667.94,1806.17,675.92,1806.17,675.92Z" transform="translate(-680.94 -531.79)"/><path class="cls-8" d="M1826.68,675.83c.18-7.89-20.51.09-20.51.09l-.08,2.26a12,12,0,0,0,2.31,2.63,28.53,28.53,0,0,0,20.16,5.8A39.78,39.78,0,0,1,1826.68,675.83Z" transform="translate(-680.94 -531.79)"/><path class="cls-15" d="M1826.39,623.27s8.62,13,9.27,23.94a56.72,56.72,0,0,1-1.68,18.41l-27.68-33.08Z" transform="translate(-680.94 -531.79)"/><path class="cls-19" d="M1838.52,645c.39,3.84-1.1,7.13-3.33,7.35s-4.34-2.69-4.73-6.52,1.1-7.13,3.32-7.35S1838.13,641.14,1838.52,645Z" transform="translate(-680.94 -531.79)"/><path class="cls-4" d="M1797.35,637.84c-.64-.14-.57,31.71,8.66,39.21s25.3,8.15,30,.6c5.19-8.35.25-41.91-13.48-49S1797.35,637.84,1797.35,637.84Z" transform="translate(-680.94 -531.79)"/><path class="cls-15" d="M1795,618.09c-7,6.18-10.46,10.69-15.23,21.68-5.87,13.51,5.77,27.5,15.52,33.06s10.57,12.29,10.57,12.29l.4-4.15a10.46,10.46,0,0,0-.12-3.81,18.36,18.36,0,0,0-1.39-3.36c-.83-1.78-3.5-7.86-4.54-9.46-2.74-4.24-3.29-5.15-1.93-9.18,1-3.09-.16-9.92,1.45-15l13.13-2.83s8.22-2,12.37-6.76C1837.15,616.79,1813.59,601.47,1795,618.09Z" transform="translate(-680.94 -531.79)"/><path class="cls-4" d="M1801.41,658.65c1.62,3.49,1.28,7.09-.75,8s-5-1.13-6.6-4.63-1.29-7.09.75-8S1799.8,655.15,1801.41,658.65Z" transform="translate(-680.94 -531.79)"/><path class="cls-17" d="M1711.94,570.78c1.49,6.14,4.18,15.83,4.18,15.83-.21,2.66-1,13.75-1.93,27.33l20-8s-.24-22.14.65-23.49c.75-1.15,2,.28,8.14-8.48,1.77-2.53,2.1-7.05,2.1-7.05s.36-5.56-.89-6.08a2.61,2.61,0,0,0-3.13,1.28c-.45,1-.33,3.2-.79,4.16s-3.34,2.12-4.55,2.06.15-16.45.15-16.45.68-4.65,1-6.17c.3-1.3,1.48-5.1,1.48-5.1s1.38-5.52-.33-5.94c-1-.25-3.58,4.24-5.35,9-1.9,5.12-3,10.56-3.52,10.48-1.27-.17-.6-9.15-.6-9.15a29,29,0,0,0,1.24-6.06c1.2-2.38,2-6.8-.11-7.16-.39-.07-3.18,5.54-3.18,5.54s-1.09,3.95-1.73,5.79c-1.13,3.26-1.3,8.4-1.88,10.67-.49,1.88-.93,1.11-1.13,1.18s.11-2.54.42-6.11c.16-1.8-.05-3.88.46-5.93a44.06,44.06,0,0,0,.85-6.26c.34-4.65-2.58-4.17-3.59.08-.39,1.62-.79,3.39-1.2,5.18-1.57,7-1.53,13.68-2.28,13.73-1,.08-.33-12.15-.33-12.15s-1.5-6.76-3-.48a54.83,54.83,0,0,0-1.53,13.48C1711.73,558.29,1710.45,564.65,1711.94,570.78Z" transform="translate(-680.94 -531.79)"/><path class="cls-14" d="M1805.42,699s-25.92-1.21-32.61-4.23c-4-1.84-37.36-28.68-37.36-28.68l.37-71.86-23.43-1.78s-12.14,79.43-7.93,88.12c4.34,9,53.1,45.95,62.85,62,5.62,9.24,17.33,134.91,19.1,136,12.62,6.57,51.58,13.13,50.66,9.14C1811.71,777.69,1805.42,699,1805.42,699Z" transform="translate(-680.94 -531.79)"/><path class="cls-17" d="M1340.28,1022.06c1.49,6.13,4.18,15.82,4.18,15.82-.21,2.67-1,13.75-1.93,27.34l20-8s-.24-22.14.65-23.5c.75-1.14,2,.29,8.14-8.47,1.77-2.53,2.1-7,2.1-7s.36-5.56-.89-6.08a2.6,2.6,0,0,0-3.13,1.28c-.45,1-.34,3.2-.79,4.16s-3.34,2.12-4.56,2.06.16-16.45.16-16.45.68-4.65,1-6.17c.29-1.3,1.47-5.1,1.47-5.1s1.39-5.52-.32-5.94c-1-.25-3.59,4.24-5.35,9-1.9,5.12-3,10.56-3.52,10.48-1.27-.17-.6-9.15-.6-9.15a29,29,0,0,0,1.24-6.06c1.2-2.38,2-6.8-.12-7.16-.39-.07-3.17,5.54-3.17,5.54s-1.09,3.95-1.73,5.79c-1.13,3.26-1.3,8.4-1.88,10.66-.49,1.89-.94,1.11-1.14,1.19a49.09,49.09,0,0,1,.43-6.11c.16-1.8,0-3.88.46-5.93a44.06,44.06,0,0,0,.85-6.26c.34-4.65-2.58-4.17-3.6.08-.38,1.62-.79,3.38-1.19,5.18-1.57,7-1.53,13.68-2.28,13.73-1,.07-.33-12.15-.33-12.15s-1.5-6.76-3-.48a55.1,55.1,0,0,0-1.52,13.48C1340.07,1009.57,1338.79,1015.93,1340.28,1022.06Z" transform="translate(-680.94 -531.79)"/><path class="cls-17" d="M1552.26,1005.91c-1.5,6.13-4.19,15.82-4.19,15.82.21,2.67,1,13.75,1.94,27.34l-20-8s.24-22.14-.66-23.5c-.75-1.14-2,.29-8.14-8.47-1.76-2.53-2.1-7.05-2.1-7.05s-.36-5.56.89-6.08a2.59,2.59,0,0,1,3.13,1.27c.46,1,.34,3.2.79,4.16s3.34,2.12,4.56,2.06-.15-16.45-.15-16.45-.68-4.64-1-6.16c-.29-1.3-1.47-5.1-1.47-5.1s-1.39-5.52.33-5.94c1-.25,3.58,4.23,5.34,9,1.9,5.12,3,10.55,3.52,10.48,1.28-.17.6-9.16.6-9.16a28.81,28.81,0,0,1-1.24-6.06c-1.2-2.38-2-6.79.12-7.16.39-.06,3.17,5.55,3.17,5.55s1.1,3.94,1.74,5.79c1.12,3.25,1.29,8.4,1.88,10.66.49,1.89.93,1.11,1.13,1.19A49.09,49.09,0,0,0,1542,984a36.84,36.84,0,0,0-.45-5.93,42.75,42.75,0,0,1-.86-6.26c-.34-4.65,2.59-4.17,3.6.08.38,1.62.79,3.38,1.19,5.17,1.57,7,1.53,13.68,2.28,13.74,1,.07.33-12.15.33-12.15s1.5-6.76,3-.49a55.2,55.2,0,0,1,1.52,13.49C1552.46,993.42,1553.75,999.78,1552.26,1005.91Z" transform="translate(-680.94 -531.79)"/><path class="cls-20" d="M1427.63,1077.87s10.17-10.72,18.34,2.32a8.13,8.13,0,0,1,10.72,2.76s11.38-3.42,14.14,13.59c0,0,5.86-1.1,6.63,5.86a17.25,17.25,0,0,1-2.76,11.6s3.29,2.46,1.79,8.86a7.9,7.9,0,0,1-5.77,6.27s-1.21,9.18-5.19,11.94-9.39,1.43-9.39,1.43-1.44,5-6.08,4.53-10.39-4.86-15.58-2.87-18.67-.11-18.67-.11-15.14-6.74-10.61-22.21c0,0-8-7.18-1-15.8,0,0-5.09-13.48,5-21.43S1427.63,1077.87,1427.63,1077.87Z" transform="translate(-680.94 -531.79)"/><path class="cls-4" d="M1497.63,1526.85s11.07,13.73,13.83,15.41-1.23,21.64-8.75,23c-4.23.74-6.59-3.93-6.59-3.93l1.22-5.74-15.82-16.3Z" transform="translate(-680.94 -531.79)"/><path class="cls-4" d="M1440.58,1530.24s9.23,15,11.75,17.06-4,21.3-11.61,21.63c-4.29.2-6-4.73-6-4.73l1.94-5.54L1423,1540.47Z" transform="translate(-680.94 -531.79)"/><path class="cls-20" d="M1451.77,1546.71a116.71,116.71,0,0,1-8.19,9.45,96.48,96.48,0,0,1-8.52,6.86s-5.41,9.83-6.89,13.27c-3.3,7.63-7,16.14-6.46,20.41.17,1.38,3.25,2.83,5.82,2,10.7-3.29,38-28.31,41.5-35C1473,1556,1451.77,1546.71,1451.77,1546.71Z" transform="translate(-680.94 -531.79)"/><path class="cls-13" d="M1373.71,1317.76c1-2.78,1.94-5.36,2.86-7.77,11.38,2.48,24.23,5.21,37.45,8l1.61,48.45c0-3.74-9.94,77.28-9.94,77.28s25.69,56.87,43.26,90c-7.21,9-10.6,11.9-21,18-27.27-32.69-63-92.51-64.44-102.46C1362.62,1443.61,1361.85,1351.12,1373.71,1317.76Z" transform="translate(-680.94 -531.79)"/><path class="cls-8" d="M1475.25,1331.77c-3.48,37.75-11.2,109.93-10.56,115.73,1.94,7.24,36.32,74,42.51,83.75-4.91,7.4-12.53,15.4-20.7,17.61-1.62.44-58.35-80.3-61.44-86.71-3.5-7.24-9.33-46.76-9.43-95.68L1414,1318C1436,1322.71,1456.29,1327.32,1475.25,1331.77Z" transform="translate(-680.94 -531.79)"/><path class="cls-21" d="M1402.92,1159.67l25.93,3.56s20.78.51,23.35.51,18.86,94.57,23.57,130.16,1.06,41.89,1.06,41.89-32.87,7.4-57.19,5.24c-25.28-2.24-53.73-15.89-53.73-15.89s21.61-68.4,25.9-89.75S1402.92,1159.67,1402.92,1159.67Z" transform="translate(-680.94 -531.79)"/><path class="cls-7" d="M1340.06,1045.11s-1.66,70.51,1,75.9c3.86,7.85,47.4,63.48,47.4,63.48s-20.8,87-29.54,117.08c-.88,3-4.78,22.57-4.78,24.48,0,4.23,18.4,9.59,20.58,9.27,2-.28,18-83.07,28.25-123.57a116,116,0,0,1,17.58-38.28l7.13-10.12L1373,1108.53s-6.74-61-6.74-66.07C1366.25,1041.13,1342.71,1040.14,1340.06,1045.11Z" transform="translate(-680.94 -531.79)"/><path class="cls-7" d="M1451.26,1163.61l68.2-69.49s9.5-65.71,10.18-68.18,17.6-3.75,24.42-4.41c2.19-.22-1.14,70-4.41,81.75-3.85,13.9-55.4,77.24-55.4,77.24s-9.24,34.31-7,59.48c3.7,41.79,13.66,99.28,11.88,101.09-11.08,7-53.62,7.73-56.32,3.39C1413.06,1296.6,1451.26,1163.61,1451.26,1163.61Z" transform="translate(-680.94 -531.79)"/><path class="cls-4" d="M1429.35,1150.63l-1.84,13.65s-4.12,19.67,1.18,23.46,22.55-24,22.55-24l-1.82-34.59Z" transform="translate(-680.94 -531.79)"/><path class="cls-8" d="M1450,1140.34c-4.38,11.8-14.82,19.05-22.22,21.86l1.56-11.57,20.07-21.5Z" transform="translate(-680.94 -531.79)"/><path class="cls-20" d="M1477.64,1105.62c0,5.27-3,9.54-6.69,9.54s-6.69-4.27-6.69-9.54,3-9.54,6.69-9.54S1477.64,1100.35,1477.64,1105.62Z" transform="translate(-680.94 -531.79)"/><ellipse class="cls-20" cx="768.48" cy="553.33" rx="8.14" ry="5.48"/><path class="cls-4" d="M1437.16,1092.79a18.23,18.23,0,0,0-23.87,14.54,136.56,136.56,0,0,0-1.48,17.51c-.29,15.94,8,31.46,15.2,31.46s27.25-10.32,28-33C1455.43,1109.37,1448.46,1096.68,1437.16,1092.79Z" transform="translate(-680.94 -531.79)"/><path class="cls-4" d="M1449.65,1125.13c0,3.52,2.33,6.37,5.21,6.37s5.21-2.85,5.21-6.37-2.33-6.36-5.21-6.36S1449.65,1121.62,1449.65,1125.13Z" transform="translate(-680.94 -531.79)"/><path class="cls-20" d="M1405.8,1084.86c-7.48,5.92-10.1,14.92-5.86,20.1s13.75,4.58,21.23-1.35,10.1-14.92,5.86-20.1S1413.28,1078.93,1405.8,1084.86Z" transform="translate(-680.94 -531.79)"/><ellipse class="cls-20" cx="751.35" cy="557.93" rx="6.94" ry="4.66"/><path class="cls-20" d="M1404.69,1109.53a5.93,5.93,0,1,0,5.93-6A6,6,0,0,0,1404.69,1109.53Z" transform="translate(-680.94 -531.79)"/><path class="cls-20" d="M1510.83,1541.75a115.77,115.77,0,0,1-6.92,10.42,98.7,98.7,0,0,1-7.56,7.9s-4.12,10.44-5.15,14c-2.29,8-4.88,17.65-3.81,21.82.35,1.34,3.29,3.89,5.73,2.31,9.37-6.11,34.43-34.71,37-41.81C1533.08,1548.23,1510.83,1541.75,1510.83,1541.75Z" transform="translate(-680.94 -531.79)"/><path class="cls-12" d="M1999,1250.43s-29.91,4.61-52,26.64-35.29,57.42-35.29,57.42l45.24,13.19S1938.88,1305.49,1999,1250.43Z" transform="translate(-680.94 -531.79)"/><path class="cls-9" d="M2007.29,1272.13l-3.24-25.48-22.83-11.78a3.53,3.53,0,0,1,.12-6.33l23.23-11,4.14-25.35a3.53,3.53,0,0,1,6.06-1.85l17.6,18.71,25.38-3.89a3.52,3.52,0,0,1,3.63,5.18L2049,1232.91l11.55,22.95a3.53,3.53,0,0,1-3.82,5.05l-25.23-4.79-18.25,18.07A3.53,3.53,0,0,1,2007.29,1272.13Z" transform="translate(-680.94 -531.79)"/><path class="cls-12" d="M1212.05,1386.08s29.91,4.61,52,26.64,35.28,57.41,35.28,57.41l-45.23,13.19S1272.18,1441.14,1212.05,1386.08Z" transform="translate(-680.94 -531.79)"/><path class="cls-9" d="M1203.76,1407.78l3.24-25.49,22.83-11.77a3.53,3.53,0,0,0-.11-6.33l-23.23-11-4.15-25.35a3.53,3.53,0,0,0-6-1.84l-17.6,18.71-25.39-3.9a3.53,3.53,0,0,0-3.63,5.19l12.35,22.52-11.54,22.94a3.53,3.53,0,0,0,3.81,5.06l25.23-4.79,18.25,18.07A3.53,3.53,0,0,0,1203.76,1407.78Z" transform="translate(-680.94 -531.79)"/><path class="cls-2" d="M2201.34,1272.69l7-11.82-5.77-12.46a1.88,1.88,0,0,1,2.12-2.63l13.4,3,10.07-9.34a1.89,1.89,0,0,1,3.16,1.21l1.29,13.67,12,6.69a1.88,1.88,0,0,1-.17,3.38l-12.61,5.45-2.65,13.47a1.89,1.89,0,0,1-3.27.88l-9.08-10.3-13.63,1.63A1.88,1.88,0,0,1,2201.34,1272.69Z" transform="translate(-680.94 -531.79)"/><path class="cls-22" d="M1526.28,738.13l8.83-14.91-7.28-15.72a2.39,2.39,0,0,1,2.68-3.33l16.91,3.79,12.7-11.78a2.38,2.38,0,0,1,4,1.52l1.63,17.25,15.13,8.45a2.38,2.38,0,0,1-.22,4.26l-15.9,6.87-3.36,17a2.38,2.38,0,0,1-4.12,1.12l-11.45-13-17.21,2.07A2.39,2.39,0,0,1,1526.28,738.13Z" transform="translate(-680.94 -531.79)"/><polygon class="cls-19" points="1493.18 243.37 1469.88 258.93 1482.91 281.56 1460.63 297.89 1470.42 321.05 1455.74 336 1463.31 343.43 1482.94 323.44 1473.66 301.49 1496.84 284.49 1484.02 262.24 1505.14 248.14 1493.18 243.37"/><polygon class="cls-19" points="1528.98 618.25 1512.49 595.6 1490.42 609.54 1473.19 587.94 1450.44 598.66 1434.91 584.6 1427.79 592.47 1448.57 611.27 1470.13 601.11 1488.05 623.58 1509.76 609.87 1524.7 630.4 1528.98 618.25"/><polygon class="cls-19" points="756.28 149 761.87 121.55 736.69 114.66 741 87.37 717.75 77.82 717.64 56.87 707.03 56.92 707.18 84.94 729.22 94 724.73 122.38 749.5 129.16 744.43 154.04 756.28 149"/><polygon class="cls-9" points="538.4 185.52 549.07 205.44 572.07 204.15 582.45 227.32 606.53 218.4 619.42 244.09 642.61 238.6 659.05 261.29 650.46 267.51 638.17 250.55 613.7 256.34 601.31 231.64 576.82 240.72 565.38 215.15 542.91 216.41 533.02 197.94 518.44 201.85 515.69 191.61 538.4 185.52"/><polygon class="cls-7" points="439.16 342.79 422.18 344.52 416.39 317.5 391.25 316.96 383.62 297.45 373.74 301.32 383.96 327.41 407.78 327.92 413.8 356.03 439.36 353.43 439.16 342.79"/><polygon class="cls-7" points="408.62 635.69 402.26 651.53 375.65 644.12 363.5 666.14 342.67 663.85 341.51 674.39 369.37 677.45 380.88 656.59 408.57 664.3 418.13 640.46 408.62 635.69"/><path class="cls-23" d="M1134.68,990.3a47.27,47.27,0,1,1-66.84,1.39A47.28,47.28,0,0,1,1134.68,990.3Z" transform="translate(-680.94 -531.79)"/><path class="cls-24" d="M1133.64,1029.82l-20.11,6.18-6.31,20.08a2.06,2.06,0,0,1-3.64.56l-12.09-17.22-21,.21a2.05,2.05,0,0,1-1.65-3.29l12.63-16.82-6.69-19.95a2.06,2.06,0,0,1,2.61-2.6l19.91,6.82,16.9-12.53a2,2,0,0,1,3.27,1.68l-.33,21,17.14,12.21A2,2,0,0,1,1133.64,1029.82Z" transform="translate(-680.94 -531.79)"/><path class="cls-23" d="M2369.62,1069a47.27,47.27,0,1,1-66.84,1.39A47.28,47.28,0,0,1,2369.62,1069Z" transform="translate(-680.94 -531.79)"/><path class="cls-24" d="M2368.59,1108.5l-20.11,6.18-6.31,20.08a2.06,2.06,0,0,1-3.64.56l-12.09-17.22-21.05.2a2,2,0,0,1-1.66-3.28l12.64-16.82-6.69-20a2.05,2.05,0,0,1,2.61-2.6l19.9,6.82,16.91-12.53a2.05,2.05,0,0,1,3.27,1.68l-.33,21,17.14,12.21A2.05,2.05,0,0,1,2368.59,1108.5Z" transform="translate(-680.94 -531.79)"/><path class="cls-8" d="M2156.29,1009.67l8.26,13.73a2.09,2.09,0,0,0,3.74-.31l5.87-14.91,15.61-3.62a2.09,2.09,0,0,0,.86-3.65l-12.37-10.19,1.39-16a2.09,2.09,0,0,0-3.22-1.94l-13.51,8.61-14.75-6.25a2.1,2.1,0,0,0-2.85,2.45l4,15.51-10.5,12.11a2.09,2.09,0,0,0,1.45,3.46Z" transform="translate(-680.94 -531.79)"/><path class="cls-7" d="M2127.28,1324.12a9.58,9.58,0,1,1-9.58-9.57A9.58,9.58,0,0,1,2127.28,1324.12Z" transform="translate(-680.94 -531.79)"/><path class="cls-7" d="M1006.45,1033.82c0,5.29-4.65,9.58-10.38,9.58s-10.37-4.29-10.37-9.58,4.64-9.58,10.37-9.58S1006.45,1028.53,1006.45,1033.82Z" transform="translate(-680.94 -531.79)"/><path class="cls-21" d="M1549,575.71l12.57,2.48s18.38-8.58,19.78-12.72.76-13.68,3.45-14.27a8.31,8.31,0,0,1,10.13,6c1.49,4.59-3.71,19-2.45,20.36.78.82,8,2.45,13.24,3.56a9.5,9.5,0,0,1,7.17,6.82h0a5.23,5.23,0,0,1-2.54,6l-3.31,1.77,1.56,3.45a5.24,5.24,0,0,1-2.48,6.84l-2.58,1.23,1.13,2.08a5.21,5.21,0,0,1-2.49,7.26l-2.26,1,.17.61a5.21,5.21,0,0,1-3,6.26l-2.25.9-33.49-6.62a23.06,23.06,0,0,1-8.74-3.72l-11.38-4.31a2.67,2.67,0,0,1-1.64-3.07l6.36-29.75A2.66,2.66,0,0,1,1549,575.71Z" transform="translate(-680.94 -531.79)"/></svg>