<?xml version="1.0" encoding="utf-8"?>
<!-- Generator: Adobe Illustrator 23.0.1, SVG Export Plug-In . SVG Version: 6.00 Build 0)  -->
<svg version="1.1" id="Calque_1" xmlns="http://www.w3.org/2000/svg" xmlns:xlink="http://www.w3.org/1999/xlink" x="0px" y="0px"
	 viewBox="0 0 750 500" style="enable-background:new 0 0 750 500;" xml:space="preserve">
<style type="text/css">
	.st0{clip-path:url(#SVGID_2_);}
	.st1{enable-background:new    ;}
	.st2{fill:url(#SVGID_3_);}
	.st3{fill:url(#SVGID_4_);}
	.st4{fill:url(#SVGID_5_);}
	.st5{fill:url(#SVGID_6_);}
	.st6{fill:url(#SVGID_7_);}
	.st7{fill:url(#SVGID_8_);}
	.st8{fill:url(#SVGID_9_);}
	.st9{fill:url(#SVGID_10_);}
	.st10{fill:url(#SVGID_11_);}
	.st11{fill:url(#SVGID_12_);}
	.st12{fill:url(#SVGID_13_);}
	.st13{fill:url(#SVGID_14_);}
	.st14{fill:url(#SVGID_15_);}
	.st15{fill:url(#SVGID_16_);}
	.st16{fill:url(#SVGID_17_);}
	.st17{fill:url(#SVGID_18_);}
	.st18{opacity:0.5608;fill:url(#SVGID_19_);}
	.st19{fill:url(#SVGID_20_);}
	.st20{fill:url(#SVGID_21_);}
	.st21{fill:url(#SVGID_22_);}
	.st22{fill:#FF65EB;}
	.st23{fill:#FF20CE;}
	.st24{opacity:0.5608;fill:url(#SVGID_23_);}
	.st25{fill:#A5FFFF;}
	.st26{opacity:0.5608;fill:url(#SVGID_24_);}
	.st27{opacity:0.5608;fill:url(#SVGID_25_);}
	.st28{opacity:0.5608;fill:url(#SVGID_26_);}
	.st29{fill:url(#SVGID_27_);}
	.st30{fill:#193164;}
	.st31{fill:#1A6CBE;}
	.st32{fill:#102465;}
	.st33{fill:#00154F;}
	.st34{fill:url(#SVGID_28_);}
	.st35{fill:#1A9BDB;}
	.st36{fill:#103450;}
	.st37{fill:#FFC6A0;}
	.st38{fill:#FDF7FB;}
	.st39{fill:#FFFFFF;}
	.st40{fill:#00EDF9;}
	.st41{opacity:0.6;fill:#00EDF9;}
	.st42{fill:url(#SVGID_29_);}
	.st43{fill:url(#SVGID_30_);}
	.st44{fill:url(#SVGID_31_);}
	.st45{fill:url(#SVGID_32_);}
	.st46{fill:url(#SVGID_33_);}
	.st47{fill:url(#SVGID_34_);}
	.st48{opacity:0.5608;fill:#A5FFFF;}
	.st49{fill:#B4FFFF;}
	.st50{opacity:0.8078;fill:#B8FFFF;}
	.st51{fill:url(#SVGID_35_);}
	.st52{fill:url(#SVGID_36_);}
	.st53{fill:url(#SVGID_37_);}
	.st54{opacity:0.5608;fill:url(#SVGID_38_);}
	.st55{fill:url(#SVGID_39_);}
	.st56{fill:url(#SVGID_40_);}
	.st57{fill:url(#SVGID_41_);}
	.st58{fill:#BBBDBF;}
	.st59{fill:#A6A8AB;}
	.st60{fill:#E6E7E8;}
	.st61{fill:#231F20;}
	.st62{fill:url(#SVGID_42_);}
	.st63{fill:url(#SVGID_43_);}
	.st64{fill:url(#SVGID_44_);}
	.st65{opacity:0.5608;fill:url(#SVGID_45_);}
	.st66{fill:url(#SVGID_46_);}
	.st67{fill:url(#SVGID_47_);}
	.st68{fill:url(#SVGID_48_);}
	.st69{fill:url(#SVGID_49_);}
	.st70{fill:url(#SVGID_50_);}
	.st71{fill:url(#SVGID_51_);}
	.st72{fill:url(#SVGID_52_);}
	.st73{fill:url(#SVGID_53_);}
	.st74{opacity:0.5608;fill:url(#SVGID_54_);}
	.st75{fill:url(#SVGID_55_);}
	.st76{fill:url(#SVGID_56_);}
	.st77{fill:url(#SVGID_57_);}
	.st78{fill:#162A56;}
	.st79{fill:url(#SVGID_58_);}
	.st80{fill:#165DA4;}
	.st81{opacity:0.3;}
	.st82{opacity:0.5608;fill:url(#SVGID_59_);}
	.st83{opacity:0.5608;fill:url(#SVGID_60_);}
	.st84{fill:url(#SVGID_61_);}
	.st85{fill:url(#SVGID_62_);}
	.st86{fill:url(#SVGID_63_);}
	.st87{opacity:0.4;fill:#1A9BDB;}
	.st88{fill:#011C63;}
	.st89{fill:#FCFEFB;}
	.st90{opacity:0.6;}
	.st91{fill:url(#SVGID_64_);}
	.st92{fill:url(#SVGID_65_);}
	.st93{fill:url(#SVGID_66_);}
	.st94{fill:url(#SVGID_67_);}
</style>
<g>
	<defs>
		<rect id="SVGID_1_" width="750" height="500"/>
	</defs>
	<clipPath id="SVGID_2_">
		<use xlink:href="#SVGID_1_"  style="overflow:visible;"/>
	</clipPath>
	<g class="st0">
		<g>
			<g class="st1">
				<g>
					<linearGradient id="SVGID_3_" gradientUnits="userSpaceOnUse" x1="233.7712" y1="159.5614" x2="229.3944" y2="171.9371">
						<stop  offset="0" style="stop-color:#89DAF4"/>
						<stop  offset="1" style="stop-color:#008DD7"/>
					</linearGradient>
					<polygon class="st2" points="245.35,165.76 231.61,173.73 217.81,165.76 231.61,157.78 					"/>
				</g>
				<linearGradient id="SVGID_4_" gradientUnits="userSpaceOnUse" x1="231.6094" y1="304.4067" x2="245.3475" y2="304.4067">
					<stop  offset="0" style="stop-color:#144188"/>
					<stop  offset="0.9975" style="stop-color:#1A7CDE"/>
				</linearGradient>
				<polygon class="st3" points="245.35,165.76 245.35,435.08 231.61,443.05 231.61,173.73 				"/>
				<linearGradient id="SVGID_5_" gradientUnits="userSpaceOnUse" x1="217.8113" y1="304.4068" x2="231.6094" y2="304.4068">
					<stop  offset="0" style="stop-color:#144188"/>
					<stop  offset="0.998" style="stop-color:#102465"/>
				</linearGradient>
				<polygon class="st4" points="231.61,173.73 231.61,443.05 217.81,435.08 217.81,165.76 				"/>
			</g>
		</g>
		<linearGradient id="SVGID_6_" gradientUnits="userSpaceOnUse" x1="232.1681" y1="208.297" x2="231.1626" y2="365.6496">
			<stop  offset="0" style="stop-color:#0276CE;stop-opacity:0"/>
			<stop  offset="0.0605" style="stop-color:#0276CE;stop-opacity:0.0745"/>
			<stop  offset="0.812" style="stop-color:#0276CE"/>
		</linearGradient>
		<polygon class="st5" points="231.61,157.78 217.81,165.76 217.81,435.08 231.61,443.05 245.35,435.08 245.35,165.76 		"/>
	</g>
	<g class="st0">
		<g>
			<g class="st1">
				<g>
					<linearGradient id="SVGID_7_" gradientUnits="userSpaceOnUse" x1="215.145" y1="216.606" x2="212.2172" y2="224.8846">
						<stop  offset="0" style="stop-color:#89DAF4"/>
						<stop  offset="1" style="stop-color:#008DD7"/>
					</linearGradient>
					<polygon class="st6" points="222.89,220.75 213.7,226.09 204.47,220.75 213.7,215.42 					"/>
				</g>
				<linearGradient id="SVGID_8_" gradientUnits="userSpaceOnUse" x1="213.6989" y1="313.4981" x2="222.8888" y2="313.4981">
					<stop  offset="0" style="stop-color:#144188"/>
					<stop  offset="0.9975" style="stop-color:#1A7CDE"/>
				</linearGradient>
				<polygon class="st7" points="222.89,220.75 222.89,400.91 213.7,406.24 213.7,226.09 				"/>
				<linearGradient id="SVGID_9_" gradientUnits="userSpaceOnUse" x1="204.4689" y1="313.4981" x2="213.6989" y2="313.4981">
					<stop  offset="0" style="stop-color:#144188"/>
					<stop  offset="0.998" style="stop-color:#102465"/>
				</linearGradient>
				<polygon class="st8" points="213.7,226.09 213.7,406.24 204.47,400.91 204.47,220.75 				"/>
			</g>
		</g>
		<linearGradient id="SVGID_10_" gradientUnits="userSpaceOnUse" x1="214.0726" y1="249.2069" x2="213.4001" y2="354.4655">
			<stop  offset="0" style="stop-color:#006AC6;stop-opacity:0"/>
			<stop  offset="0.8165" style="stop-color:#006CC7"/>
		</linearGradient>
		<polygon class="st9" points="213.7,215.42 204.47,220.75 204.47,400.91 213.7,406.24 222.89,400.91 222.89,220.75 		"/>
	</g>
	<g class="st0">
		<g>
			<g class="st1">
				<g>
					<linearGradient id="SVGID_11_" gradientUnits="userSpaceOnUse" x1="65.5488" y1="362.594" x2="61.172" y2="374.9698">
						<stop  offset="0" style="stop-color:#89DAF4"/>
						<stop  offset="1" style="stop-color:#008DD7"/>
					</linearGradient>
					<polygon class="st10" points="77.13,368.79 63.39,376.77 49.59,368.79 63.39,360.82 					"/>
				</g>
				<linearGradient id="SVGID_12_" gradientUnits="userSpaceOnUse" x1="63.387" y1="470.498" x2="77.1251" y2="470.498">
					<stop  offset="0" style="stop-color:#144188"/>
					<stop  offset="0.9975" style="stop-color:#1A7CDE"/>
				</linearGradient>
				<polygon class="st11" points="77.13,368.79 77.13,564.23 63.39,572.2 63.39,376.77 				"/>
				<linearGradient id="SVGID_13_" gradientUnits="userSpaceOnUse" x1="49.5889" y1="470.498" x2="63.387" y2="470.498">
					<stop  offset="0" style="stop-color:#144188"/>
					<stop  offset="0.998" style="stop-color:#102465"/>
				</linearGradient>
				<polygon class="st12" points="63.39,376.77 63.39,572.2 49.59,564.23 49.59,368.79 				"/>
			</g>
		</g>
		<linearGradient id="SVGID_14_" gradientUnits="userSpaceOnUse" x1="63.7932" y1="398.247" x2="63.0482" y2="514.8466">
			<stop  offset="0" style="stop-color:#0044AE;stop-opacity:0"/>
			<stop  offset="0.0605" style="stop-color:#0044AE;stop-opacity:0.0745"/>
			<stop  offset="0.812" style="stop-color:#0044AE"/>
		</linearGradient>
		<polygon class="st13" points="63.39,360.82 49.59,368.79 49.59,564.23 63.39,572.2 77.13,564.23 77.13,368.79 		"/>
	</g>
	<g class="st0">
		<g>
			<g class="st1">
				<g>
					<linearGradient id="SVGID_15_" gradientUnits="userSpaceOnUse" x1="265.565" y1="208.3342" x2="262.817" y2="216.1046">
						<stop  offset="0" style="stop-color:#89DAF4"/>
						<stop  offset="1" style="stop-color:#008DD7"/>
					</linearGradient>
					<polygon class="st14" points="272.83,212.23 264.21,217.23 255.54,212.23 264.21,207.22 					"/>
				</g>
				<linearGradient id="SVGID_16_" gradientUnits="userSpaceOnUse" x1="264.2077" y1="299.2783" x2="272.8334" y2="299.2783">
					<stop  offset="0" style="stop-color:#144188"/>
					<stop  offset="0.9975" style="stop-color:#1A7CDE"/>
				</linearGradient>
				<polygon class="st15" points="272.83,212.23 272.83,381.32 264.21,386.33 264.21,217.23 				"/>
				<linearGradient id="SVGID_17_" gradientUnits="userSpaceOnUse" x1="255.5443" y1="299.2783" x2="264.2077" y2="299.2783">
					<stop  offset="0" style="stop-color:#144188"/>
					<stop  offset="0.998" style="stop-color:#102465"/>
				</linearGradient>
				<polygon class="st16" points="264.21,217.23 264.21,386.33 255.54,381.32 255.54,212.23 				"/>
			</g>
		</g>
		<linearGradient id="SVGID_18_" gradientUnits="userSpaceOnUse" x1="264.5585" y1="238.9338" x2="263.9272" y2="337.7308">
			<stop  offset="0" style="stop-color:#0276CE;stop-opacity:0"/>
			<stop  offset="0.0605" style="stop-color:#0276CE;stop-opacity:0.0745"/>
			<stop  offset="0.812" style="stop-color:#0276CE"/>
		</linearGradient>
		<polygon class="st17" points="264.21,207.22 255.54,212.23 255.54,381.32 264.21,386.33 272.83,381.32 272.83,212.23 		"/>
	</g>
	<g class="st0">
		<g>
			<linearGradient id="SVGID_19_" gradientUnits="userSpaceOnUse" x1="458.433" y1="81.7044" x2="455.9025" y2="444.4375">
				<stop  offset="0.0373" style="stop-color:#93FFFD;stop-opacity:0"/>
				<stop  offset="0.6222" style="stop-color:#A5FDFE;stop-opacity:0.6076"/>
				<stop  offset="1" style="stop-color:#B2FBFF"/>
			</linearGradient>
			<polygon class="st18" points="276.98,41.68 276.98,437.31 457.72,541.77 637.69,437.3 637.69,41.67 			"/>
			<g>
				<g class="st1">
					<g>
						<linearGradient id="SVGID_20_" gradientUnits="userSpaceOnUse" x1="486.0436" y1="183.2765" x2="428.7097" y2="345.3928">
							<stop  offset="0" style="stop-color:#89DAF4"/>
							<stop  offset="1" style="stop-color:#008DD7"/>
						</linearGradient>
						<polygon class="st19" points="637.69,264.46 457.72,368.93 276.98,264.46 457.72,159.99 						"/>
					</g>
					<linearGradient id="SVGID_21_" gradientUnits="userSpaceOnUse" x1="457.7243" y1="447.4764" x2="637.6881" y2="447.4764">
						<stop  offset="0" style="stop-color:#144188"/>
						<stop  offset="0.9975" style="stop-color:#1A7CDE"/>
					</linearGradient>
					<polygon class="st20" points="637.69,264.46 637.69,526.02 457.72,630.49 457.72,368.93 					"/>
					<linearGradient id="SVGID_22_" gradientUnits="userSpaceOnUse" x1="276.9764" y1="447.4773" x2="457.7243" y2="447.4773">
						<stop  offset="0" style="stop-color:#144188"/>
						<stop  offset="0.998" style="stop-color:#102465"/>
					</linearGradient>
					<polygon class="st21" points="457.72,368.93 457.72,630.49 276.98,526.03 276.98,264.46 					"/>
				</g>
			</g>
			<polygon class="st22" points="457.72,388.7 637.69,284.23 637.69,282.45 457.72,386.92 			"/>
			<polygon class="st23" points="276.98,284.24 457.72,388.7 457.72,386.92 276.98,282.45 			"/>
		</g>
		<g>
			<linearGradient id="SVGID_23_" gradientUnits="userSpaceOnUse" x1="457.5063" y1="131.9916" x2="457.1151" y2="173.8528">
				<stop  offset="0.0373" style="stop-color:#93FFFD;stop-opacity:0"/>
				<stop  offset="0.6222" style="stop-color:#A5FDFE;stop-opacity:0.6076"/>
				<stop  offset="1" style="stop-color:#B2FBFF"/>
			</linearGradient>
			<polygon class="st24" points="443.29,124.9 450.43,175.72 458.03,180.11 465.59,175.72 471.86,124.9 			"/>
			<polygon class="st25" points="450.43,175.72 457.98,171.33 465.59,175.72 458.03,180.11 			"/>
			<linearGradient id="SVGID_24_" gradientUnits="userSpaceOnUse" x1="302.5858" y1="221.2775" x2="302.1945" y2="263.1388">
				<stop  offset="0.0373" style="stop-color:#93FFFD;stop-opacity:0"/>
				<stop  offset="0.6222" style="stop-color:#A5FDFE;stop-opacity:0.6076"/>
				<stop  offset="1" style="stop-color:#B2FBFF"/>
			</linearGradient>
			<polygon class="st26" points="288.37,214.19 295.51,265.01 303.11,269.4 310.67,265.01 316.94,214.19 			"/>
			<polygon class="st25" points="295.51,265.01 303.06,260.62 310.67,265.01 303.11,269.4 			"/>
			<linearGradient id="SVGID_25_" gradientUnits="userSpaceOnUse" x1="615.0867" y1="221.2775" x2="614.6954" y2="263.1388">
				<stop  offset="0.0373" style="stop-color:#93FFFD;stop-opacity:0"/>
				<stop  offset="0.6222" style="stop-color:#A5FDFE;stop-opacity:0.6076"/>
				<stop  offset="1" style="stop-color:#B2FBFF"/>
			</linearGradient>
			<polygon class="st27" points="600.87,214.19 608.01,265.01 615.61,269.4 623.17,265.01 629.44,214.19 			"/>
			<polygon class="st25" points="608.01,265.01 615.57,260.62 623.17,265.01 615.61,269.4 			"/>
			<linearGradient id="SVGID_26_" gradientUnits="userSpaceOnUse" x1="457.5063" y1="308.7778" x2="457.1151" y2="350.6391">
				<stop  offset="0.0373" style="stop-color:#93FFFD;stop-opacity:0"/>
				<stop  offset="0.6222" style="stop-color:#A5FDFE;stop-opacity:0.6076"/>
				<stop  offset="1" style="stop-color:#B2FBFF"/>
			</linearGradient>
			<polygon class="st28" points="443.29,301.69 450.43,352.51 458.03,356.9 465.59,352.51 471.86,301.69 			"/>
			<polygon class="st25" points="450.43,352.51 457.98,348.12 465.59,352.51 458.03,356.9 			"/>
		</g>
		<g>
			<g>
				<linearGradient id="SVGID_27_" gradientUnits="userSpaceOnUse" x1="470.5269" y1="195.5241" x2="446.8027" y2="338.5287">
					<stop  offset="0" style="stop-color:#CDEFFB"/>
					<stop  offset="1" style="stop-color:#89DAF4"/>
				</linearGradient>
				<path class="st29" d="M483.55,198.22c1.33-0.77,3.46-0.77,4.78,0l74.5,43.29c1.32,0.77,1.32,2.01,0,2.77l-125.91,72.69
					c-1.33,0.77-3.47,0.76-4.79-0.01l-74.5-43.29c-1.32-0.77-1.31-2,0.02-2.77L483.55,198.22z"/>
				<path class="st30" d="M486.71,212.24c-0.31,0.18-0.83,0.18-1.14,0l-5.2-3.02c-0.31-0.18-0.31-0.48,0-0.66l5.24-3.02
					c0.31-0.18,0.83-0.18,1.14,0l5.2,3.02c0.31,0.18,0.31,0.48,0,0.66L486.71,212.24z M484.42,213.56c0.31-0.18,0.31-0.48,0-0.66
					l-5.2-3.02c-0.31-0.18-0.83-0.18-1.14,0l-5.24,3.02c-0.31,0.18-0.31,0.48,0,0.66l5.2,3.02c0.31,0.18,0.83,0.18,1.14,0
					L484.42,213.56z M476.89,217.91c0.32-0.19,0.31-0.48,0-0.66l-5.2-3.02c-0.31-0.18-0.82-0.19-1.14,0l-5.22,3.02
					c-0.32,0.19-0.32,0.48,0,0.66l5.2,3.02c0.31,0.18,0.82,0.19,1.14,0L476.89,217.91z M506.9,217.9c0.31-0.18,0.31-0.48,0-0.66
					l-5.2-3.02c-0.31-0.18-0.83-0.18-1.14,0l-5.24,3.02c-0.31,0.18-0.31,0.48,0,0.66l5.2,3.02c0.31,0.18,0.83,0.18,1.14,0
					L506.9,217.9z M481.92,223.66l5.22-3.02c0.32-0.19,0.32-0.48,0-0.66l-5.2-3.02c-0.31-0.18-0.82-0.19-1.14,0l-5.22,3.02
					c-0.32,0.19-0.33,0.49-0.01,0.67l5.2,3.02C481.08,223.85,481.6,223.85,481.92,223.66z M494.17,218.56
					c-0.31-0.18-0.83-0.18-1.14,0l-5.24,3.02c-0.31,0.18-0.31,0.48,0,0.66l5.2,3.02c0.31,0.18,0.83,0.18,1.14,0l5.24-3.02
					c0.31-0.18,0.31-0.48,0-0.66L494.17,218.56z M461.84,226.6c0.31-0.18,0.31-0.48,0-0.66l-5.2-3.02c-0.31-0.18-0.83-0.18-1.14,0
					l-5.24,3.02c-0.31,0.18-0.31,0.48,0,0.66l5.2,3.02c0.31,0.18,0.83,0.18,1.14,0L461.84,226.6z M466.86,232.36l5.24-3.02
					c0.31-0.18,0.31-0.48,0-0.66l-5.2-3.02c-0.31-0.18-0.83-0.18-1.14,0l-5.24,3.02c-0.31,0.18-0.31,0.48,0,0.66l5.2,3.02
					C466.03,232.54,466.55,232.54,466.86,232.36z M454.31,230.94c0.31-0.18,0.31-0.48,0-0.66l-5.2-3.02c-0.31-0.18-0.83-0.18-1.14,0
					l-5.24,3.02c-0.31,0.18-0.31,0.48,0,0.66l5.2,3.02c0.31,0.18,0.83,0.18,1.14,0L454.31,230.94z M477.94,233.96
					c0.31,0.18,0.83,0.18,1.14,0l5.24-3.02c0.31-0.18,0.31-0.48,0-0.66l-5.2-3.02c-0.31-0.18-0.83-0.18-1.14,0l-5.24,3.02
					c-0.31,0.18-0.31,0.48,0,0.66L477.94,233.96z M453,233.02c-0.31,0.18-0.31,0.48,0,0.66l5.2,3.02c0.31,0.18,0.83,0.18,1.14,0
					l5.24-3.02c0.31-0.18,0.31-0.48,0-0.66l-5.2-3.02c-0.31-0.18-0.83-0.18-1.14,0L453,233.02z M446.79,235.28
					c0.31-0.18,0.31-0.48,0-0.66l-5.2-3.02c-0.31-0.18-0.83-0.18-1.14,0l-5.24,3.02c-0.31,0.18-0.31,0.48,0,0.66l5.2,3.02
					c0.31,0.18,0.83,0.18,1.14,0L446.79,235.28z M470.41,238.31c0.31,0.18,0.83,0.18,1.14,0l5.24-3.02c0.31-0.18,0.31-0.48,0-0.66
					l-5.2-3.02c-0.31-0.18-0.83-0.18-1.14,0l-5.24,3.02c-0.31,0.18-0.31,0.48,0,0.66L470.41,238.31z M511.68,237.97
					c-0.32,0.19-0.31,0.48,0,0.66l1.56,0.9c0.31,0.18,0.82,0.19,1.14,0l6.25-3.61c0.31-0.18,0.31-0.48,0-0.66l-1.56-0.9
					c-0.31-0.18-0.83-0.18-1.14,0L511.68,237.97z M445.47,237.36c-0.32,0.19-0.31,0.48,0,0.66l5.2,3.02c0.31,0.18,0.82,0.19,1.14,0
					l5.23-3.02c0.32-0.19,0.31-0.48,0-0.66l-5.2-3.02c-0.31-0.18-0.82-0.19-1.14,0L445.47,237.36z M464.07,235.95
					c-0.31-0.18-0.83-0.18-1.14,0l-5.24,3.02c-0.31,0.18-0.31,0.48,0,0.66l5.2,3.02c0.31,0.18,0.83,0.18,1.14,0l5.24-3.02
					c0.31-0.18,0.31-0.48,0-0.66L464.07,235.95z M437.95,241.7c-0.32,0.19-0.31,0.48,0,0.66l5.2,3.02c0.31,0.18,0.82,0.19,1.14,0
					l5.23-3.02c0.32-0.19,0.31-0.48,0-0.66l-5.2-3.02c-0.31-0.18-0.82-0.19-1.14,0L437.95,241.7z M478.28,243.08
					c0.31-0.18,0.33-0.47,0-0.66l-5.19-3.02c-0.32-0.19-0.83-0.18-1.14,0l-5.24,3.02c-0.31,0.18-0.33,0.47,0,0.66l5.19,3.02
					c0.32,0.19,0.83,0.18,1.14,0L478.28,243.08z M431.73,243.98c0.31-0.18,0.31-0.48,0-0.66l-5.2-3.02c-0.31-0.18-0.83-0.18-1.14,0
					l-5.22,3.02c-0.32,0.19-0.33,0.49-0.01,0.67l5.2,3.02c0.31,0.18,0.83,0.18,1.15-0.01L431.73,243.98z M430.41,246.05
					c-0.31,0.18-0.31,0.48,0,0.66l5.2,3.02c0.31,0.18,0.83,0.18,1.14,0l5.24-3.02c0.31-0.18,0.31-0.48,0-0.66l-5.2-3.02
					c-0.31-0.18-0.83-0.18-1.14,0L430.41,246.05z M464.38,250.45c0.32,0.19,0.83,0.18,1.14,0l5.24-3.02c0.31-0.18,0.33-0.47,0-0.66
					l-5.19-3.02c-0.32-0.19-0.83-0.18-1.14,0l-5.24,3.02c-0.31,0.18-0.33,0.47,0,0.66L464.38,250.45z M424.2,248.32
					c0.31-0.18,0.31-0.48,0-0.66l-5.2-3.02c-0.31-0.18-0.83-0.18-1.14,0l-5.24,3.02c-0.31,0.18-0.31,0.48,0,0.66l5.2,3.02
					c0.31,0.18,0.83,0.18,1.14,0L424.2,248.32z M449.02,244.63c-0.31-0.18-0.83-0.18-1.15,0.01l-5.23,3.02
					c-0.32,0.19-0.31,0.48,0,0.66l5.2,3.02c0.31,0.18,0.82,0.19,1.14,0l5.23-3.02c0.32-0.19,0.33-0.49,0.01-0.67L449.02,244.63z
					 M422.89,250.4c-0.31,0.18-0.31,0.48,0,0.66l5.2,3.02c0.31,0.18,0.83,0.18,1.14,0l5.24-3.02c0.31-0.18,0.31-0.48,0-0.66
					l-5.2-3.02c-0.31-0.18-0.83-0.18-1.14,0L422.89,250.4z M482.83,250.45c-0.32,0.19-0.31,0.48,0,0.66l5.2,3.02
					c0.31,0.18,0.82,0.19,1.14,0l6.76-3.9c0.31-0.18,0.31-0.48,0-0.66l-5.2-3.02c-0.31-0.18-0.83-0.18-1.14,0L482.83,250.45z
					 M441.48,248.98c-0.31-0.18-0.83-0.18-1.14,0l-5.23,3.02c-0.32,0.19-0.33,0.49-0.01,0.67l5.2,3.02
					c0.31,0.18,0.83,0.18,1.15-0.01l5.23-3.02c0.31-0.18,0.31-0.48,0-0.66L441.48,248.98z M474.54,253.91
					c0.31-0.18,0.31-0.48-0.01-0.67l-5.19-3.02c-0.32-0.19-0.83-0.18-1.14,0l-5.24,3.02c-0.31,0.18-0.33,0.47,0,0.66l5.19,3.02
					c0.32,0.19,0.84,0.19,1.15,0.01L474.54,253.91z M415.37,254.74c-0.31,0.18-0.31,0.48,0,0.66l5.2,3.02
					c0.31,0.18,0.83,0.18,1.14,0l5.24-3.02c0.31-0.18,0.31-0.48,0-0.66l-5.2-3.02c-0.31-0.18-0.83-0.18-1.14,0L415.37,254.74z
					 M409.15,257.01c0.31-0.18,0.31-0.48,0-0.66l-5.2-3.02c-0.31-0.18-0.83-0.18-1.14,0l-5.24,3.02c-0.31,0.18-0.31,0.48,0,0.66
					l5.2,3.02c0.31,0.18,0.83,0.18,1.14,0L409.15,257.01z M433.96,253.33c-0.31-0.18-0.83-0.18-1.14,0l-5.24,3.02
					c-0.31,0.18-0.31,0.48,0,0.66l5.2,3.02c0.31,0.18,0.83,0.18,1.14,0l5.24-3.02c0.31-0.18,0.31-0.48,0-0.66L433.96,253.33z
					 M414.18,262.77l5.23-3.02c0.32-0.19,0.33-0.49,0.01-0.67l-5.2-3.02c-0.31-0.18-0.83-0.18-1.15,0.01l-5.23,3.02
					c-0.31,0.18-0.31,0.48,0,0.66l5.2,3.02C413.35,262.95,413.87,262.95,414.18,262.77z M401.62,261.36
					c0.32-0.19,0.33-0.49,0.01-0.67l-5.2-3.02c-0.31-0.18-0.83-0.18-1.15,0.01l-5.23,3.02c-0.32,0.19-0.31,0.48,0,0.66l5.2,3.02
					c0.31,0.18,0.82,0.19,1.14,0L401.62,261.36z M426.43,257.67c-0.31-0.18-0.83-0.18-1.14,0l-5.24,3.02
					c-0.31,0.18-0.31,0.48,0,0.66l5.2,3.02c0.31,0.18,0.83,0.18,1.14,0l5.24-3.02c0.31-0.18,0.31-0.48,0-0.66L426.43,257.67z
					 M459.49,262.6c0.31-0.18,0.31-0.48-0.01-0.67l-5.19-3.02c-0.32-0.19-0.83-0.18-1.14,0l-5.24,3.02c-0.31,0.18-0.33,0.47,0,0.66
					l5.19,3.02c0.32,0.19,0.84,0.19,1.15,0.01L459.49,262.6z M400.32,263.43c-0.32,0.19-0.31,0.48,0,0.66l5.2,3.02
					c0.31,0.18,0.82,0.19,1.14,0l5.23-3.02c0.32-0.19,0.31-0.48,0-0.66l-5.2-3.02c-0.31-0.18-0.82-0.19-1.14,0L400.32,263.43z
					 M417.73,268.72c0.31,0.18,0.83,0.18,1.14,0l5.24-3.02c0.31-0.18,0.31-0.48,0-0.66l-5.2-3.02c-0.31-0.18-0.83-0.18-1.14,0
					l-5.24,3.02c-0.31,0.18-0.31,0.48,0,0.66L417.73,268.72z M411.38,266.36c-0.31-0.18-0.83-0.18-1.15,0.01l-5.23,3.02
					c-0.32,0.19-0.31,0.48,0,0.66l5.2,3.02c0.31,0.18,0.82,0.19,1.14,0l5.23-3.02c0.32-0.19,0.33-0.49,0.01-0.67L411.38,266.36z
					 M444.43,271.3c0.32-0.19,0.31-0.48-0.01-0.67l-5.19-3.02c-0.32-0.19-0.82-0.19-1.14,0l-5.23,3.02
					c-0.32,0.19-0.34,0.48-0.01,0.67l5.19,3.02c0.32,0.19,0.84,0.19,1.16,0L444.43,271.3z M370.26,272.13
					c-0.31,0.18-0.31,0.48,0,0.66l5.2,3.02c0.31,0.18,0.83,0.18,1.14,0l9.98-5.76c0.31-0.18,0.31-0.48,0-0.66l-5.2-3.02
					c-0.31-0.18-0.83-0.18-1.14,0L370.26,272.13z M402.67,277.42c0.31,0.18,0.83,0.18,1.15-0.01l5.22-3.02
					c0.31-0.18,0.31-0.48,0-0.66l-5.2-3.02c-0.31-0.18-0.83-0.18-1.14,0l-5.23,3.02c-0.32,0.19-0.33,0.49-0.01,0.67L402.67,277.42z
					 M439.29,275.59c-0.32,0.19-0.33,0.49-0.01,0.67l5.2,3.02c0.31,0.18,0.83,0.18,1.15-0.01l41.24-23.81
					c0.31-0.18,0.31-0.48,0-0.66l-5.2-3.02c-0.31-0.18-0.83-0.18-1.14,0L439.29,275.59z M377.73,276.47c-0.31,0.18-0.31,0.48,0,0.66
					l5.2,3.02c0.31,0.18,0.83,0.18,1.14,0l5.24-3.02c0.31-0.18,0.31-0.48,0-0.66l-5.2-3.02c-0.31-0.18-0.83-0.18-1.14,0
					L377.73,276.47z M411.7,280.87c0.32,0.19,0.83,0.18,1.14,0l5.22-3.02c0.32-0.19,0.34-0.48,0.01-0.67l-5.19-3.02
					c-0.32-0.19-0.83-0.18-1.15,0.01l-5.23,3.02c-0.31,0.18-0.33,0.47,0,0.66L411.7,280.87z M429.38,279.99
					c0.31-0.18,0.31-0.48-0.01-0.67l-5.19-3.02c-0.32-0.19-0.83-0.18-1.14,0l-5.24,3.02c-0.31,0.18-0.33,0.47,0,0.66L423,283
					c0.32,0.19,0.84,0.19,1.15,0.01L429.38,279.99z M385.21,280.82c-0.31,0.18-0.31,0.48,0,0.66l5.2,3.02
					c0.31,0.18,0.83,0.18,1.14,0l9.98-5.76c0.31-0.18,0.31-0.48,0-0.66l-5.2-3.02c-0.31-0.18-0.83-0.18-1.14,0L385.21,280.82z
					 M430.23,280.82c-0.32,0.19-0.31,0.48,0,0.66l5.2,3.02c0.31,0.18,0.82,0.19,1.14,0l6.76-3.9c0.31-0.18,0.31-0.48,0-0.66
					l-5.2-3.02c-0.31-0.18-0.83-0.18-1.14,0L430.23,280.82z M400.17,289.51c-0.31,0.18-0.33,0.47,0,0.66l5.19,3.02
					c0.32,0.19,0.84,0.19,1.15,0.01l15.35-8.86c0.31-0.18,0.31-0.48-0.01-0.67l-5.19-3.02c-0.32-0.19-0.83-0.18-1.14,0
					L400.17,289.51z M415.17,289.51c-0.31,0.18-0.31,0.48,0,0.66l5.2,3.02c0.31,0.18,0.83,0.18,1.14,0l5.24-3.02
					c0.31-0.18,0.31-0.48,0-0.66l-5.2-3.02c-0.31-0.18-0.83-0.18-1.14,0L415.17,289.51z M499.42,213.56c0.31-0.18,0.31-0.48,0-0.66
					l-5.2-3.02c-0.31-0.18-0.83-0.18-1.14,0l-9.98,5.76c-0.32,0.19-0.31,0.48,0,0.66l5.2,3.02c0.31,0.18,0.82,0.19,1.14,0
					L499.42,213.56z M469.36,222.25c0.31-0.18,0.31-0.48,0-0.66l-5.2-3.02c-0.31-0.18-0.83-0.18-1.14,0l-5.24,3.02
					c-0.31,0.18-0.31,0.48,0,0.66l5.2,3.02c0.31,0.18,0.83,0.18,1.14,0L469.36,222.25z M474.39,228.01l5.24-3.02
					c0.31-0.18,0.31-0.48,0-0.66l-5.2-3.02c-0.31-0.18-0.83-0.18-1.14,0l-5.24,3.02c-0.31,0.18-0.31,0.48,0,0.66l5.2,3.02
					C473.56,228.19,474.07,228.19,474.39,228.01z M514.37,222.25c0.31-0.18,0.33-0.47,0-0.66l-5.19-3.02
					c-0.32-0.19-0.83-0.18-1.14,0l-11.22,6.48c-0.31,0.18-0.33,0.47,0,0.66l5.19,3.02c0.32,0.19,0.83,0.18,1.14,0L514.37,222.25z
					 M485.47,229.61c0.31,0.18,0.82,0.19,1.14,0l5.23-3.02c0.32-0.19,0.31-0.48,0-0.66l-5.2-3.02c-0.31-0.18-0.82-0.19-1.14,0
					l-5.22,3.02c-0.32,0.19-0.32,0.48,0,0.66L485.47,229.61z M500.87,230.04c0.31-0.18,0.33-0.47,0-0.66l-5.19-3.02
					c-0.32-0.19-0.83-0.18-1.14,0l-5.24,3.02c-0.31,0.18-0.33,0.47,0,0.66l5.19,3.02c0.32,0.19,0.83,0.18,1.14,0L500.87,230.04z
					 M500.6,231.53c-0.31,0.18-0.33,0.47,0,0.66l5.17,3c0.31,0.18,0.83,0.18,1.14,0l14.92-8.61c0.31-0.18,0.31-0.48,0-0.66l-5.17-3
					c-0.32-0.19-0.83-0.18-1.14,0L500.6,231.53z M493.33,234.39c0.32-0.19,0.33-0.47,0-0.66l-5.19-3.02c-0.32-0.19-0.82-0.19-1.14,0
					l-5.23,3.02c-0.32,0.19-0.33,0.47,0,0.66l5.19,3.02c0.32,0.19,0.82,0.19,1.14,0L493.33,234.39z M508.13,235.9
					c-0.32,0.19-0.31,0.48,0,0.66l1.54,0.9c0.32,0.19,0.83,0.19,1.15,0.01l6.25-3.61c0.31-0.18,0.31-0.48-0.01-0.67l-1.54-0.9
					c-0.31-0.18-0.83-0.18-1.14,0L508.13,235.9z M503.06,242.92c-0.32,0.19-0.31,0.48,0,0.66l1.54,0.9
					c0.32,0.19,0.83,0.19,1.15,0.01l6.25-3.61c0.31-0.18,0.31-0.48-0.01-0.67l-1.54-0.9c-0.31-0.18-0.83-0.18-1.14,0L503.06,242.92z
					 M520.31,232.98c-0.32,0.19-0.31,0.48,0,0.66l1.54,0.9c0.32,0.19,0.83,0.19,1.15,0.01l6.25-3.61c0.31-0.18,0.31-0.48-0.01-0.67
					l-1.54-0.9c-0.31-0.18-0.83-0.18-1.14,0L520.31,232.98z M504.62,236.51c0.31-0.18,0.31-0.48,0-0.66l-5.17-3
					c-0.32-0.19-0.83-0.18-1.14,0l-5.24,3.02c-0.31,0.18-0.33,0.47,0,0.66l5.17,3c0.31,0.18,0.83,0.18,1.14,0L504.62,236.51z
					 M485.81,238.74c0.31-0.18,0.33-0.47,0-0.66l-5.19-3.02c-0.32-0.19-0.83-0.18-1.14,0l-5.23,3.02c-0.32,0.19-0.34,0.48-0.01,0.67
					l5.19,3.02c0.32,0.19,0.83,0.18,1.15-0.01L485.81,238.74z M439.25,239.64c0.32-0.19,0.33-0.49,0.01-0.67l-5.2-3.02
					c-0.31-0.18-0.83-0.18-1.15,0.01l-5.23,3.02c-0.32,0.19-0.31,0.48,0,0.66l5.2,3.02c0.31,0.18,0.82,0.19,1.14,0L439.25,239.64z
					 M490.74,243.89c0.32,0.19,0.84,0.19,1.15,0.01l5.05-2.92l0.15-0.12c0.31-0.18,0.31-0.48,0-0.66l-5.17-3
					c-0.32-0.19-0.83-0.18-1.14,0l-5.24,3.02c-0.31,0.18-0.33,0.47,0,0.66L490.74,243.89z M456.54,240.29
					c-0.31-0.18-0.83-0.18-1.14,0l-5.24,3.02c-0.31,0.18-0.31,0.48,0,0.66l5.2,3.02c0.31,0.18,0.83,0.18,1.14,0l5.24-3.02
					c0.31-0.18,0.31-0.48,0-0.66L456.54,240.29z M483.21,248.24c0.32,0.19,0.83,0.19,1.15,0.01l5.23-3.02
					c0.32-0.19,0.33-0.49,0-0.67l-5.19-3.02c-0.32-0.19-0.83-0.18-1.15,0.01l-5.23,3.02c-0.32,0.19-0.33,0.47,0,0.66L483.21,248.24z
					 M491.88,245.22c-0.32,0.19-0.31,0.48,0,0.66l5.2,3.02c0.31,0.18,0.82,0.19,1.14,0l5.18-2.99c0.32-0.19,0.33-0.49,0.01-0.67
					l-5.2-3.02c-0.31-0.18-0.83-0.18-1.15,0.01L491.88,245.22z M482.07,249.57c0.32-0.19,0.31-0.48-0.01-0.67l-5.19-3.02
					c-0.32-0.19-0.82-0.19-1.14,0l-5.23,3.02c-0.32,0.19-0.34,0.48-0.01,0.67l5.19,3.02c0.32,0.19,0.84,0.19,1.16,0L482.07,249.57z
					 M456.86,254.79c0.32,0.19,0.83,0.18,1.14,0l5.24-3.02c0.31-0.18,0.33-0.47,0-0.66l-5.19-3.02c-0.32-0.19-0.83-0.18-1.14,0
					l-5.24,3.02c-0.31,0.18-0.33,0.47,0,0.66L456.86,254.79z M416.68,252.67c0.31-0.18,0.31-0.48,0-0.66l-5.2-3.02
					c-0.31-0.18-0.83-0.18-1.14,0l-5.24,3.02c-0.31,0.18-0.31,0.48,0,0.66l5.2,3.02c0.31,0.18,0.83,0.18,1.14,0L416.68,252.67z
					 M449.33,259.14c0.32,0.19,0.83,0.18,1.14,0l5.23-3.02c0.32-0.19,0.34-0.48,0.01-0.67l-5.19-3.02
					c-0.32-0.19-0.83-0.18-1.15,0.01l-5.23,3.02c-0.31,0.18-0.33,0.47,0,0.66L449.33,259.14z M467.02,258.26
					c0.31-0.18,0.31-0.48-0.01-0.67l-5.19-3.02c-0.32-0.19-0.83-0.18-1.14,0l-5.24,3.02c-0.31,0.18-0.33,0.47,0,0.66l5.19,3.02
					c0.32,0.19,0.84,0.19,1.15,0.01L467.02,258.26z M441.8,263.49c0.32,0.19,0.83,0.18,1.15-0.01l5.23-3.02
					c0.32-0.19,0.33-0.47,0-0.66l-5.19-3.02c-0.32-0.19-0.82-0.19-1.14,0l-5.22,3.02c-0.32,0.19-0.34,0.48-0.01,0.67L441.8,263.49z
					 M434.27,267.83c0.32,0.19,0.83,0.18,1.14,0l5.24-3.02c0.31-0.18,0.33-0.47,0-0.66l-5.19-3.02c-0.32-0.19-0.83-0.18-1.14,0
					l-5.24,3.02c-0.31,0.18-0.33,0.47,0,0.66L434.27,267.83z M394.09,265.71c0.31-0.18,0.31-0.48,0-0.66l-5.2-3.02
					c-0.31-0.18-0.83-0.18-1.14,0l-5.23,3.02c-0.32,0.19-0.33,0.49-0.01,0.67l5.2,3.02c0.31,0.18,0.83,0.18,1.15-0.01L394.09,265.71
					z M451.96,266.95c0.32-0.19,0.33-0.49,0-0.67l-5.19-3.02c-0.32-0.19-0.83-0.18-1.15,0.01l-5.22,3.02
					c-0.32,0.19-0.33,0.47,0,0.66l5.19,3.02c0.32,0.19,0.83,0.19,1.15,0.01L451.96,266.95z M399.13,271.46l5.23-3.02
					c0.31-0.18,0.31-0.48,0-0.66l-5.2-3.02c-0.31-0.18-0.83-0.18-1.14,0l-5.23,3.02c-0.32,0.19-0.33,0.49-0.01,0.67l5.2,3.02
					C398.29,271.65,398.81,271.65,399.13,271.46z M426.75,272.18c0.32,0.19,0.83,0.18,1.14,0l5.24-3.02c0.31-0.18,0.33-0.47,0-0.66
					l-5.19-3.02c-0.32-0.19-0.83-0.18-1.14,0l-5.24,3.02c-0.31,0.18-0.33,0.47,0,0.66L426.75,272.18z M390.45,275.81
					c0.31,0.18,0.83,0.18,1.14,0l5.24-3.02c0.31-0.18,0.31-0.48,0-0.66l-5.2-3.02c-0.31-0.18-0.83-0.18-1.14,0l-5.24,3.02
					c-0.31,0.18-0.31,0.48,0,0.66L390.45,275.81z M425.6,273.5c0.31-0.18,0.33-0.47,0-0.66l-5.19-3.02c-0.32-0.19-0.83-0.18-1.14,0
					l-5.24,3.02c-0.31,0.18-0.33,0.47,0,0.66l5.19,3.02c0.32,0.19,0.83,0.18,1.14,0L425.6,273.5z M430.52,278.66
					c0.32,0.19,0.84,0.19,1.15,0.01l5.24-3.02c0.31-0.18,0.31-0.48-0.01-0.67l-5.19-3.02c-0.32-0.19-0.83-0.18-1.14,0l-5.24,3.02
					c-0.31,0.18-0.33,0.47,0,0.66L430.52,278.66z M392.69,285.17c-0.31,0.18-0.33,0.47,0,0.66l5.19,3.02c0.32,0.19,0.83,0.18,1.14,0
					l11.52-6.65c0.32-0.19,0.33-0.47,0-0.66l-5.19-3.02c-0.32-0.19-0.82-0.19-1.14,0L392.69,285.17z M422.71,285.16
					c-0.32,0.19-0.33,0.49-0.01,0.67l5.2,3.02c0.31,0.18,0.83,0.18,1.15-0.01l5.23-3.02c0.31-0.18,0.31-0.48,0-0.66l-5.2-3.02
					c-0.31-0.18-0.83-0.18-1.14,0L422.71,285.16z M444.01,283.52c-0.66,0.38-0.66,1-0.01,1.38l15.63,9.08
					c0.65,0.38,1.73,0.38,2.39,0l28.06-16.15c0.67-0.39,0.66-1,0.01-1.38l-15.63-9.08c-0.65-0.38-1.72-0.39-2.39,0L444.01,283.52z
					 M407.65,293.85c-0.31,0.18-0.31,0.48,0,0.66l5.2,3.02c0.31,0.18,0.83,0.18,1.14,0l5.24-3.02c0.31-0.18,0.31-0.48,0-0.66
					l-5.2-3.02c-0.31-0.18-0.83-0.18-1.14,0L407.65,293.85z"/>
				<path class="st31" d="M483.48,108.76c1.99-1.15,3.6-0.23,3.61,2.06l0.25,87.55l-130.7,75.46l-0.25-87.55
					c-0.01-2.28,1.6-5.06,3.58-6.21L483.48,108.76z"/>
				<path class="st31" d="M563.82,242.9c0,0.5-0.33,1.01-1,1.39l-125.91,72.69c-1.33,0.77-3.47,0.76-4.79-0.01l-74.5-43.29
					c-0.08-0.05-0.14-0.1-0.2-0.15c-0.08-0.06-0.17-0.12-0.24-0.18c-0.11-0.09-0.19-0.19-0.27-0.3c-0.01-0.02-0.02-0.04-0.04-0.05
					c-0.07-0.1-0.12-0.21-0.16-0.31c0-0.01-0.01-0.02-0.01-0.04c-0.04-0.11-0.06-0.23-0.06-0.35l0.02,5.51c0,0.01,0,0.02,0,0.03
					c0,0.06,0.01,0.13,0.02,0.19c0.01,0.04,0.02,0.08,0.04,0.13c0,0.01,0.01,0.02,0.01,0.04c0,0.01,0,0.02,0.01,0.03
					c0.02,0.06,0.05,0.13,0.09,0.19c0.02,0.03,0.04,0.06,0.06,0.09c0.01,0.02,0.02,0.04,0.04,0.05c0.01,0.02,0.02,0.04,0.04,0.05
					c0.06,0.08,0.13,0.15,0.21,0.23c0.01,0.01,0.02,0.01,0.02,0.02c0.07,0.06,0.16,0.12,0.24,0.18c0.06,0.04,0.1,0.08,0.16,0.12
					c0.01,0.01,0.03,0.02,0.04,0.02l74.5,43.29c1.32,0.77,3.46,0.77,4.79,0.01l125.91-72.69c0.67-0.38,1-0.89,0.99-1.39
					L563.82,242.9z"/>
			</g>
			<g>
				<g>
					<polygon class="st32" points="481.1,117.03 481.32,194.93 362.6,263.48 362.38,185.57 					"/>
				</g>
				<polygon class="st33" points="481.11,119.5 481.1,117.03 362.38,185.57 362.39,188.04 				"/>
				<linearGradient id="SVGID_28_" gradientUnits="userSpaceOnUse" x1="353.4881" y1="190.1865" x2="486.0373" y2="190.1865">
					<stop  offset="0" style="stop-color:#CDEFFB"/>
					<stop  offset="1" style="stop-color:#89DAF4"/>
				</linearGradient>
				<path class="st34" d="M484.27,108.41c0.2-0.06,0.4-0.11,0.59-0.13c0.02,0,0.04,0,0.05-0.01c0.2-0.02,0.4-0.01,0.58,0.03
					c0.01,0,0.02,0,0.03,0.01c0.19,0.04,0.36,0.1,0.52,0.2l-2.9-1.73c-0.01,0-0.01-0.01-0.02-0.01c-0.06-0.03-0.12-0.06-0.18-0.09
					c-0.06-0.03-0.12-0.05-0.19-0.07c-0.04-0.01-0.09-0.02-0.13-0.03c-0.01,0-0.02,0-0.03-0.01c-0.01,0-0.03-0.01-0.04-0.01
					c-0.07-0.01-0.14-0.02-0.22-0.03c-0.08,0-0.16-0.01-0.24,0c-0.03,0-0.05,0.01-0.08,0.01c-0.02,0-0.04,0-0.05,0.01
					c-0.05,0-0.09,0.01-0.14,0.01c-0.1,0.02-0.21,0.04-0.32,0.07c-0.05,0.01-0.09,0.03-0.14,0.05c-0.04,0.01-0.08,0.03-0.13,0.04
					c-0.05,0.02-0.11,0.03-0.16,0.05c-0.16,0.07-0.33,0.15-0.5,0.25l-123.51,71.31c-0.23,0.13-0.46,0.29-0.68,0.47
					c-0.07,0.06-0.14,0.12-0.21,0.18c-0.11,0.09-0.22,0.18-0.32,0.28c-0.05,0.05-0.09,0.1-0.14,0.14c-0.04,0.04-0.08,0.08-0.12,0.13
					c-0.05,0.05-0.09,0.1-0.14,0.15c-0.1,0.11-0.2,0.23-0.29,0.36c-0.03,0.04-0.06,0.09-0.1,0.13c-0.02,0.02-0.03,0.04-0.05,0.07
					c-0.03,0.04-0.06,0.08-0.09,0.13c-0.07,0.1-0.14,0.21-0.21,0.31c-0.06,0.1-0.13,0.2-0.19,0.3c-0.01,0.01-0.01,0.02-0.01,0.03
					c0,0.01-0.01,0.02-0.01,0.02c-0.05,0.08-0.1,0.17-0.14,0.25c-0.05,0.1-0.11,0.2-0.15,0.31c-0.05,0.09-0.09,0.19-0.13,0.28
					c0,0,0,0.01-0.01,0.01c0,0.01,0,0.01-0.01,0.02c-0.05,0.11-0.09,0.21-0.13,0.32c-0.04,0.11-0.08,0.23-0.12,0.34
					c-0.02,0.06-0.03,0.11-0.05,0.17c-0.01,0.02-0.02,0.05-0.02,0.07c-0.01,0.04-0.03,0.08-0.04,0.12c-0.04,0.14-0.07,0.28-0.1,0.41
					c-0.02,0.08-0.03,0.17-0.04,0.25c-0.01,0.04-0.02,0.09-0.02,0.13c-0.01,0.04-0.02,0.08-0.02,0.12c-0.03,0.24-0.05,0.47-0.05,0.7
					l0.24,85.15c0,1.49,0.8,2.87,2.09,3.61l0.82,0.52l-0.25-87.55c0-0.27,0.02-0.54,0.07-0.82c0.01-0.04,0.01-0.09,0.02-0.13
					c0.04-0.26,0.1-0.52,0.18-0.79c0.01-0.02,0.01-0.05,0.02-0.07c0.09-0.28,0.19-0.57,0.31-0.85c0,0,0-0.01,0.01-0.01
					c0.13-0.29,0.27-0.57,0.42-0.84c0-0.01,0.01-0.02,0.01-0.02c0.15-0.27,0.32-0.52,0.5-0.77c0.02-0.02,0.03-0.04,0.05-0.07
					c0.17-0.22,0.34-0.43,0.53-0.63c0.04-0.04,0.08-0.09,0.12-0.13c0.15-0.15,0.3-0.29,0.45-0.42c0.07-0.06,0.14-0.13,0.21-0.18
					c0.22-0.17,0.44-0.33,0.68-0.47l123.51-71.31c0.23-0.13,0.45-0.23,0.66-0.31C484.19,108.44,484.23,108.43,484.27,108.41z"/>
			</g>
		</g>
		<g>
			<g>
				<g>
					<path class="st35" d="M549.4,276.01c-4.09-2.36-10.71-2.37-14.78-0.01c-4.09,2.37-4.05,6.21,0.05,8.57
						c4.09,2.36,10.7,2.36,14.78-0.01C553.52,282.19,553.49,278.37,549.4,276.01z"/>
					<g>
						<g>
							<path class="st36" d="M538.25,283.04c0,0-3.7-2.41-3.8-2.99c-0.1-0.58,0.8-1.22,1.42-1.19c0.62,0.02,3.24,0.24,3.24,0.24
								l0.84,0.95C539.95,280.05,541.45,283.63,538.25,283.04z"/>
							<path class="st36" d="M546.35,280.02c0,0-3.7-2.41-3.8-2.99c-0.1-0.58,0.8-1.22,1.42-1.19c0.62,0.02,3.24,0.24,3.24,0.24
								l0.84,0.95C548.05,277.02,549.55,280.61,546.35,280.02z"/>
							<path class="st36" d="M537.03,249.39l-0.11,30.46c0,0,1.69,1.03,3.64-0.08c0,0,3.45-26.31,3.51-26.94
								c0.05-0.58,0.49,24.02,0.49,24.02s2.14,1.23,3.76-0.44l1.92-29.14L537.03,249.39z"/>
							<path class="st37" d="M548.4,238.25l0.21,5.36c0,0,4.2-2.22,4.1-5.47c-0.02-0.73-1.41-5.39-1.72-6.57
								C549.57,232.33,549.48,237.11,548.4,238.25z"/>
							<path class="st38" d="M540.07,226.63c0,0-1.56,0.34-3.58,1.99l0.54,20.77c0,0,2.62,1.92,7.98,0.52
								c4.37-1.14,5.51-2.98,5.51-2.98s-0.1-9.63-0.51-13.84c-0.41-4.21-1.62-7.44-1.62-7.44c-0.95-0.29-3.05-0.17-3.05-0.17
								L540.07,226.63z"/>
							<path class="st37" d="M544.9,225.36l0.12-4.06c0,0,1.02-0.08,0.85-1.2c-0.18-1.12-1.22-0.38-1.41-0.05
								c0,0-0.24-3.85-2.28-4.22c-2.04-0.37-2.89-0.07-2.94,0.92c-0.05,0.99-0.12,4.47,0,5.76c0.12,1.29,0,1.96,1.86,1.91l0.16,1.35
								c0,0,0.85,0.79,3.46,0.15L544.9,225.36z"/>
						</g>
					</g>
				</g>
				<path class="st39" d="M540.07,226.63c0.01-0.79,0.14-1.22,1.98-1.43c1.84-0.21,3.34-0.7,3.53,0c0.19,0.7-0.18,1.14-2.03,1.3
					C541.71,226.65,540.07,226.63,540.07,226.63z"/>
				<path class="st36" d="M542.48,220.22c0.09-0.31,0.01-0.73-0.35-0.82c-0.28-0.06-0.51,0.07-0.69,0.29
					c-0.31,0.37-0.51,0.98-0.67,1.38c-0.19-0.16-0.38-0.32-0.58-0.47c0.01-0.12,0.02-0.24,0.02-0.37c0.02-0.3,0.04-0.61-0.03-0.9
					c-0.15-0.62-0.8-0.72-1.11-1.18c-0.42-0.62-0.24-1.51,0.16-2.11c0.42-0.62,1.09-1.04,1.81-1.27c2.43-0.8,6.07,0.99,5.36,3.95
					c-0.41,1.7-1,3.35-1.44,5.03c-0.06,0.22-0.56,0.31-0.78,0.24c-0.22-0.07-0.4-0.22-0.57-0.37c-0.8-0.73-1.46-1.6-1.95-2.56
					C541.7,221.17,542.44,220.35,542.48,220.22z"/>
			</g>
			<path class="st37" d="M536.58,250.34c0.05,0.25,0.24,0.51,0.5,0.52c0.3,0.01,0.49-0.3,0.62-0.57c0.08-0.17,0.17-0.34,0.25-0.51
				c0.07-0.14,0.14-0.29,0.12-0.44c-0.02-0.15-0.11-0.28-0.12-0.43c-0.01-0.29,0.3-0.49,0.38-0.76c0.1-0.33-0.15-0.65-0.38-0.9
				c-0.16-0.18-0.31-0.35-0.51-0.48c-0.78-0.5-1.49,0.39-1.34,1.16c0.07,0.34,0.3,0.65,0.4,0.99
				C536.64,249.4,536.49,249.86,536.58,250.34z"/>
			<path class="st37" d="M536.49,248.74c0,0-4.53-6.94-4.65-8.5c-0.13-1.55,3.74-9.7,3.74-9.7l2.98,3.32l-3.36,6.04l1.9,6.73
				L536.49,248.74z"/>
			<path class="st38" d="M537.62,237.55c0.36-0.91,0.65-1.8,0.73-2.53c0.38-3.43-1.86-6.4-1.86-6.4c-0.85,0.38-2.21,3.21-3.42,6.35
				C534.55,235.9,536.07,236.75,537.62,237.55z"/>
			<path class="st38" d="M551.84,232.5c-1.15-3.33-2.66-6.59-3.44-6.86l0.33,8.67C549.73,233.66,550.81,233.09,551.84,232.5z"/>
		</g>
		<g>
			<g class="st1">
				<g>
					<path class="st40" d="M377.36,187.56c-1.94,1.12-3.51,3.84-3.51,6.08c0.01,2.23,1.59,3.14,3.53,2.02
						c1.94-1.12,3.52-3.85,3.52-6.09C380.89,187.33,379.3,186.44,377.36,187.56"/>
					<path class="st38" d="M419.57,164.26l-34.86,20.13c-0.41,0.24-0.75,0.82-0.75,1.3l0,0.14c0,0.48,0.34,0.67,0.76,0.43
						l34.86-20.13c0.42-0.24,0.75-0.82,0.75-1.3l0-0.14C420.32,164.21,419.99,164.01,419.57,164.26"/>
					<path class="st38" d="M393.35,184.07l-8.63,4.98c-0.41,0.24-0.75,0.82-0.75,1.3l0,0.13c0,0.48,0.34,0.68,0.76,0.44l8.63-4.98
						c0.41-0.24,0.75-0.82,0.75-1.31l0-0.13C394.1,184.02,393.76,183.83,393.35,184.07"/>
					<path class="st38" d="M419.53,168.96l-22.97,13.26c-0.44,0.26-0.81,0.89-0.81,1.4c0,0.51,0.37,0.72,0.82,0.47l22.97-13.26
						c0.44-0.26,0.8-0.89,0.8-1.4C420.34,168.91,419.97,168.7,419.53,168.96"/>
					<path class="st38" d="M389.44,191l-4.64,2.68c-0.45,0.26-0.81,0.89-0.81,1.41c0,0.52,0.36,0.73,0.82,0.47l4.64-2.68
						c0.44-0.26,0.81-0.88,0.8-1.4C390.24,190.95,389.88,190.74,389.44,191"/>
					<path class="st40" d="M377.41,205.92c-1.94,1.12-3.51,3.84-3.51,6.08c0.01,2.23,1.59,3.13,3.53,2.01
						c1.94-1.12,3.52-3.85,3.52-6.08C380.94,205.69,379.35,204.8,377.41,205.92"/>
					<path class="st38" d="M419.62,182.62l-34.86,20.13c-0.41,0.24-0.75,0.82-0.75,1.3l0,0.14c0,0.48,0.34,0.67,0.76,0.43
						l34.86-20.13c0.42-0.24,0.75-0.82,0.75-1.3l0-0.14C420.37,182.57,420.04,182.37,419.62,182.62"/>
					<path class="st38" d="M393.4,202.43l-8.63,4.98c-0.41,0.24-0.75,0.82-0.75,1.3l0,0.13c0,0.48,0.34,0.67,0.76,0.43l8.63-4.98
						c0.41-0.24,0.75-0.82,0.75-1.3l0-0.13C394.16,202.37,393.82,202.19,393.4,202.43"/>
					<path class="st38" d="M419.58,187.31l-22.97,13.26c-0.44,0.26-0.81,0.89-0.81,1.4c0,0.52,0.37,0.72,0.82,0.47l22.97-13.26
						c0.44-0.26,0.8-0.88,0.8-1.4C420.39,187.26,420.03,187.06,419.58,187.31"/>
					<path class="st38" d="M389.49,209.35l-4.64,2.68c-0.45,0.26-0.81,0.89-0.81,1.4c0,0.52,0.36,0.73,0.82,0.47l4.64-2.68
						c0.44-0.26,0.81-0.88,0.8-1.4C390.3,209.31,389.93,209.1,389.49,209.35"/>
					<path class="st40" d="M377.46,224.28c-1.94,1.12-3.51,3.84-3.51,6.08c0.01,2.23,1.59,3.13,3.53,2.01
						c1.94-1.12,3.52-3.85,3.52-6.08C380.99,224.05,379.41,223.15,377.46,224.28"/>
					<path class="st38" d="M419.67,200.97l-34.86,20.13c-0.41,0.24-0.75,0.82-0.75,1.3l0,0.14c0,0.48,0.34,0.67,0.76,0.43
						l34.86-20.13c0.42-0.24,0.75-0.82,0.75-1.3l0-0.14C420.43,200.93,420.09,200.73,419.67,200.97"/>
					<path class="st38" d="M393.45,220.78l-8.63,4.98c-0.41,0.24-0.75,0.82-0.75,1.31l0,0.13c0,0.48,0.34,0.67,0.76,0.43l8.63-4.98
						c0.41-0.24,0.75-0.82,0.75-1.3l0-0.13C394.21,220.73,393.87,220.54,393.45,220.78"/>
					<path class="st38" d="M419.63,205.66l-22.97,13.26c-0.44,0.26-0.81,0.89-0.81,1.4c0,0.52,0.37,0.72,0.82,0.47l22.97-13.26
						c0.44-0.26,0.81-0.88,0.8-1.4C420.44,205.62,420.08,205.4,419.63,205.66"/>
					<path class="st38" d="M389.54,227.71l-4.64,2.68c-0.45,0.26-0.81,0.89-0.81,1.4c0,0.52,0.36,0.73,0.82,0.47l4.64-2.68
						c0.44-0.26,0.81-0.88,0.8-1.4C390.35,227.66,389.99,227.45,389.54,227.71"/>
					<path class="st40" d="M451.42,145.87l0.02,7.51c7.9-4.56,14.33-0.89,14.36,8.18l6.53-3.77
						C472.3,144.56,462.94,139.22,451.42,145.87"/>
					<path class="st38" d="M451.42,145.87c-11.51,6.65-20.81,22.76-20.78,35.99c0.02,6.62,2.36,11.26,6.15,13.42l4.6-7.98
						c-2.6-1.47-4.21-4.66-4.22-9.21c-0.03-9.07,6.36-20.14,14.26-24.71L451.42,145.87"/>
					<path class="st23" d="M472.33,157.78l-6.53,3.77c0.03,9.08-6.36,20.15-14.26,24.71c-3.96,2.28-7.53,2.5-10.13,1.02l-4.6,7.98
						c3.78,2.15,9,1.83,14.76-1.5C463.07,187.13,472.37,171.01,472.33,157.78"/>
					<path class="st38" d="M420.1,219.35l-37.92,21.89c-0.42,0.24-0.75,0.82-0.75,1.3l0,0.14c0,0.48,0.33,0.67,0.76,0.43
						l37.92-21.89c0.42-0.24,0.76-0.83,0.76-1.31l0-0.14C420.86,219.3,420.52,219.11,420.1,219.35"/>
					<path class="st23" d="M376.21,244.7l-1.45,0.84c-0.41,0.24-0.75,0.82-0.75,1.3l0,0.14c0,0.48,0.34,0.67,0.76,0.43l1.45-0.84
						c0.41-0.24,0.75-0.82,0.75-1.3l0-0.14C376.96,244.65,376.62,244.46,376.21,244.7"/>
					<path class="st38" d="M470.54,190.24l-37.92,21.89c-0.42,0.24-0.76,0.83-0.76,1.31l0,0.14c0,0.48,0.34,0.67,0.76,0.43
						l37.92-21.89c0.42-0.24,0.75-0.82,0.75-1.3l0-0.14C471.29,190.19,470.96,189.99,470.54,190.24"/>
					<path class="st23" d="M426.64,215.58l-1.45,0.84c-0.42,0.24-0.75,0.82-0.75,1.3l0,0.14c0,0.48,0.33,0.67,0.76,0.43l1.45-0.84
						c0.42-0.24,0.75-0.82,0.75-1.3l0-0.14C427.39,215.54,427.06,215.34,426.64,215.58"/>
				</g>
			</g>
		</g>
		<g>
			<g class="st1">
				<g>
					<path class="st41" d="M377.4,114.25l4.84-5.51c-0.01-0.13-0.03-0.27-0.03-0.41c-0.01-1.78,1.25-3.95,2.8-4.84
						c1.55-0.89,2.81-0.17,2.81,1.6c0.01,1.78-1.25,3.95-2.8,4.84c-0.78,0.45-1.5,0.49-2.01,0.18l-4.84,5.51
						c0.02,0.13,0.03,0.27,0.03,0.41c0.01,1.78-1.25,3.95-2.8,4.84c-0.31,0.18-0.61,0.29-0.89,0.35l-6.41,13.66
						c0.32,0.34,0.51,0.86,0.51,1.55c0.01,1.78-1.25,3.95-2.8,4.84c-1.55,0.89-2.81,0.17-2.81-1.6c0-0.54,0.12-1.12,0.32-1.69
						l-5.95-3.64c-0.37,0.41-0.78,0.77-1.21,1.02c-0.43,0.25-0.84,0.37-1.21,0.38l-5.91,10.49c0.21,0.33,0.33,0.77,0.33,1.31
						c0.01,1.78-1.25,3.95-2.8,4.84c-1.55,0.89-2.81,0.17-2.81-1.6c-0.01-1.78,1.25-3.95,2.8-4.84c0.44-0.25,0.84-0.37,1.21-0.38
						l5.91-10.49c-0.21-0.33-0.33-0.77-0.33-1.31c-0.01-1.78,1.25-3.95,2.8-4.84s2.81-0.17,2.81,1.6c0,0.54-0.12,1.12-0.32,1.68
						l5.95,3.64c0.37-0.42,0.78-0.77,1.21-1.02c0.31-0.18,0.61-0.29,0.89-0.35l6.41-13.65c-0.32-0.34-0.51-0.87-0.51-1.56
						c0-1.77,1.25-3.94,2.8-4.84C376.17,113.98,376.89,113.95,377.4,114.25 M392.3,92.54l-53.13,30.68c-0.72,0.42-1.3,1.43-1.3,2.26
						l0.11,37.11c0,0.83,0.59,1.16,1.31,0.75l53.13-30.68c0.72-0.42,1.31-1.43,1.31-2.26l-0.11-37.11
						C393.61,92.46,393.02,92.12,392.3,92.54"/>
					<path class="st25" d="M385,103.48c-1.55,0.89-2.8,3.06-2.8,4.84c0,0.14,0.01,0.28,0.03,0.41l-4.84,5.51
						c-0.51-0.31-1.22-0.27-2.01,0.18c-1.55,0.89-2.8,3.06-2.8,4.84c0,0.69,0.19,1.22,0.51,1.56l-6.41,13.65
						c-0.28,0.06-0.58,0.17-0.89,0.35c-0.44,0.25-0.85,0.6-1.21,1.02l-5.95-3.64c0.2-0.57,0.32-1.14,0.32-1.68
						c-0.01-1.78-1.27-2.5-2.81-1.6s-2.8,3.06-2.8,4.84c0,0.54,0.12,0.98,0.33,1.31l-5.91,10.49c-0.37,0.01-0.78,0.13-1.21,0.38
						c-1.55,0.89-2.8,3.06-2.8,4.84c0.01,1.78,1.27,2.5,2.81,1.6c1.55-0.89,2.8-3.06,2.8-4.84c0-0.54-0.12-0.98-0.33-1.31
						l5.91-10.49c0.37-0.01,0.78-0.13,1.21-0.38c0.44-0.25,0.85-0.61,1.21-1.02l5.95,3.64c-0.2,0.57-0.32,1.15-0.32,1.69
						c0.01,1.78,1.27,2.5,2.81,1.6c1.55-0.89,2.8-3.06,2.8-4.84c0-0.69-0.2-1.21-0.51-1.55l6.41-13.66
						c0.28-0.05,0.58-0.17,0.89-0.35c1.55-0.89,2.8-3.06,2.8-4.84c0-0.14-0.01-0.28-0.03-0.41l4.84-5.51
						c0.51,0.3,1.22,0.27,2.01-0.18c1.55-0.89,2.8-3.06,2.8-4.84C387.81,103.31,386.55,102.59,385,103.48"/>
				</g>
			</g>
		</g>
		<g>
			<g class="st1">
				<g>
					<path class="st41" d="M320.02,197.34c-0.23,0.13-0.42,0.03-0.42-0.24c0-0.27,0.19-0.59,0.42-0.72l1.77-1.02
						c0.23-0.13,0.42-0.03,0.42,0.24c0,0.27-0.19,0.59-0.42,0.72L320.02,197.34 M323.56,195.29c-0.23,0.13-0.42,0.03-0.42-0.24
						c0-0.27,0.19-0.59,0.42-0.72l1.77-1.02c0.23-0.13,0.42-0.03,0.42,0.24c0,0.27-0.19,0.59-0.42,0.72L323.56,195.29
						 M320.01,193.97c-0.23,0.13-0.42,0.03-0.42-0.24c0-0.27,0.19-0.59,0.42-0.72l15.36-8.87c0.23-0.13,0.42-0.03,0.42,0.24
						c0,0.27-0.19,0.59-0.42,0.72L320.01,193.97 M320,190.59c-0.23,0.13-0.42,0.03-0.42-0.24c0-0.27,0.19-0.59,0.42-0.72l8.62-4.98
						c0.23-0.14,0.42-0.03,0.42,0.24c0,0.27-0.19,0.59-0.42,0.73L320,190.59 M330.42,184.58c-0.23,0.13-0.42,0.03-0.42-0.24
						c0-0.27,0.19-0.59,0.42-0.72l1.08-0.62c0.23-0.13,0.42-0.03,0.42,0.24c0,0.27-0.19,0.59-0.42,0.72L330.42,184.58
						 M333.38,182.87c-0.23,0.13-0.42,0.03-0.42-0.24c0-0.27,0.19-0.59,0.42-0.72l7.04-4.06c0.23-0.13,0.42-0.03,0.42,0.24
						c0,0.27-0.19,0.59-0.42,0.72L333.38,182.87 M319.99,187.22c-0.23,0.13-0.42,0.03-0.42-0.24c0-0.27,0.19-0.59,0.42-0.72
						l14.65-8.46c0.23-0.13,0.42-0.03,0.42,0.24c0,0.27-0.19,0.59-0.42,0.72L319.99,187.22 M336.47,177.71
						c-0.23,0.13-0.42,0.03-0.42-0.24c0-0.27,0.19-0.59,0.42-0.72l3.93-2.27c0.23-0.13,0.42-0.03,0.42,0.24
						c0,0.27-0.19,0.59-0.42,0.72L336.47,177.71 M314.56,191.64c-0.68,0.39-1.23,0.08-1.23-0.7c0-0.78,0.55-1.73,1.22-2.12
						c0.68-0.39,1.23-0.08,1.23,0.7C315.79,190.29,315.24,191.24,314.56,191.64 M342.89,169.87L311.5,188
						c-0.53,0.31-0.95,1.04-0.95,1.65l0.04,15.27c0,0.6,0.43,0.85,0.96,0.55l31.39-18.12c0.53-0.31,0.95-1.04,0.95-1.65l-0.04-15.27
						C343.84,169.81,343.41,169.57,342.89,169.87"/>
					<path class="st25" d="M334.64,177.8l-14.65,8.46c-0.23,0.13-0.42,0.45-0.42,0.72c0,0.27,0.19,0.37,0.42,0.24l14.65-8.46
						c0.23-0.13,0.42-0.46,0.42-0.72C335.06,177.77,334.87,177.67,334.64,177.8"/>
					<path class="st25" d="M328.62,184.65l-8.62,4.98c-0.23,0.13-0.42,0.46-0.42,0.72c0,0.27,0.19,0.37,0.42,0.24l8.62-4.98
						c0.23-0.14,0.42-0.46,0.42-0.73C329.04,184.62,328.85,184.51,328.62,184.65"/>
					<path class="st25" d="M335.37,184.13L320.01,193c-0.23,0.13-0.42,0.45-0.42,0.72c0,0.27,0.19,0.37,0.42,0.24l15.36-8.87
						c0.23-0.13,0.42-0.46,0.42-0.72C335.79,184.1,335.6,184,335.37,184.13"/>
					<path class="st25" d="M321.78,195.35l-1.77,1.02c-0.23,0.13-0.42,0.46-0.42,0.72c0,0.27,0.19,0.37,0.42,0.24l1.77-1.02
						c0.23-0.13,0.42-0.46,0.42-0.72C322.2,195.32,322.02,195.22,321.78,195.35"/>
					<path class="st25" d="M331.49,182.99l-1.08,0.62c-0.23,0.13-0.42,0.46-0.42,0.72c0,0.27,0.19,0.37,0.42,0.24l1.08-0.62
						c0.23-0.13,0.42-0.46,0.42-0.72C331.91,182.96,331.72,182.86,331.49,182.99"/>
					<path class="st25" d="M340.41,177.84l-7.04,4.06c-0.23,0.13-0.42,0.46-0.42,0.72c0,0.27,0.19,0.37,0.42,0.24l7.04-4.06
						c0.23-0.13,0.42-0.46,0.42-0.72C340.83,177.82,340.64,177.71,340.41,177.84"/>
					<path class="st25" d="M340.4,174.47l-3.93,2.27c-0.23,0.13-0.42,0.45-0.42,0.72c0,0.27,0.19,0.37,0.42,0.24l3.93-2.27
						c0.23-0.13,0.42-0.46,0.42-0.72C340.82,174.44,340.63,174.34,340.4,174.47"/>
					<path class="st25" d="M314.55,188.81c-0.68,0.39-1.23,1.34-1.22,2.12c0,0.78,0.55,1.09,1.23,0.7c0.68-0.39,1.23-1.34,1.23-2.12
						C315.78,188.74,315.23,188.42,314.55,188.81"/>
					<path class="st25" d="M325.33,193.3l-1.77,1.02c-0.23,0.13-0.42,0.46-0.42,0.72c0,0.27,0.19,0.37,0.42,0.24l1.77-1.02
						c0.23-0.13,0.42-0.46,0.42-0.72C325.75,193.28,325.56,193.17,325.33,193.3"/>
				</g>
			</g>
		</g>
		<g>
			<g>
				<linearGradient id="SVGID_29_" gradientUnits="userSpaceOnUse" x1="411.4189" y1="387.0766" x2="384.2479" y2="426.5982">
					<stop  offset="0" style="stop-color:#144188"/>
					<stop  offset="0.9975" style="stop-color:#1A7CDE"/>
				</linearGradient>
				<polygon class="st42" points="435.42,442.68 435.42,405.32 364.73,364.47 364.73,401.83 				"/>
				<linearGradient id="SVGID_30_" gradientUnits="userSpaceOnUse" x1="397.1643" y1="377.6973" x2="335.4116" y2="388.1952">
					<stop  offset="0.1531" style="stop-color:#144188"/>
					<stop  offset="0.9975" style="stop-color:#1A7CDE"/>
				</linearGradient>
				<polygon class="st43" points="364.91,364.57 364.73,364.67 364.73,401.83 397.05,383.15 				"/>
			</g>
			<g>
				<linearGradient id="SVGID_31_" gradientUnits="userSpaceOnUse" x1="411.4189" y1="442.7198" x2="384.2479" y2="482.2414">
					<stop  offset="0" style="stop-color:#144188"/>
					<stop  offset="0.9975" style="stop-color:#1A7CDE"/>
				</linearGradient>
				<polygon class="st44" points="435.42,498.33 435.42,460.97 364.73,420.11 364.73,457.47 				"/>
				<linearGradient id="SVGID_32_" gradientUnits="userSpaceOnUse" x1="397.1643" y1="433.3405" x2="335.4116" y2="443.8384">
					<stop  offset="0.1531" style="stop-color:#144188"/>
					<stop  offset="0.9975" style="stop-color:#1A7CDE"/>
				</linearGradient>
				<polygon class="st45" points="364.91,420.21 364.73,420.31 364.73,457.47 397.05,438.79 				"/>
			</g>
			<g>
				<linearGradient id="SVGID_33_" gradientUnits="userSpaceOnUse" x1="411.4189" y1="498.363" x2="384.2479" y2="537.8846">
					<stop  offset="0" style="stop-color:#144188"/>
					<stop  offset="0.9975" style="stop-color:#1A7CDE"/>
				</linearGradient>
				<polygon class="st46" points="435.42,553.97 435.42,516.61 364.73,475.75 364.73,513.11 				"/>
				<linearGradient id="SVGID_34_" gradientUnits="userSpaceOnUse" x1="397.1643" y1="488.9837" x2="335.4116" y2="499.4816">
					<stop  offset="0.1531" style="stop-color:#144188"/>
					<stop  offset="0.9975" style="stop-color:#1A7CDE"/>
				</linearGradient>
				<polygon class="st47" points="364.91,475.85 364.73,475.95 364.73,513.11 397.05,494.43 				"/>
			</g>
		</g>
		<g>
			<g class="st1">
				<g>
					<polyline class="st48" points="596.16,162.39 545.2,132.97 545.11,163.09 596.08,192.52 596.16,162.39 					"/>
					<polyline class="st48" points="596.76,196.3 565.14,178.05 565.11,189.24 596.72,207.5 596.76,196.3 					"/>
					<polyline class="st48" points="588.38,136.16 578.64,130.53 578.61,141.72 588.35,147.35 588.38,136.16 					"/>
					<path class="st48" d="M518.23,107.26c0,0,3.6-13.79,8.75-10.81c5.15,2.98,6.18,14.7,10.23,17.04c4.05,2.34,4.27-4.61,6.78-3.16
						c2.5,1.44,2.52,9.06,5.13,10.57c2.61,1.51,4.47-4.72,8.72-2.27c5.26,3.03,8.3,16.29,8.3,16.29L518.23,107.26 M569.68,110.97
						l-54.83-31.66l-0.09,32.69l54.83,31.66L569.68,110.97"/>
					<path class="st49" d="M526.98,96.45c-5.15-2.98-8.75,10.81-8.75,10.81l47.92,27.66c0,0-3.05-13.26-8.3-16.29
						c-4.25-2.46-6.11,3.77-8.72,2.27c-2.62-1.51-2.63-9.12-5.13-10.57c-2.5-1.45-2.73,5.5-6.78,3.16
						C533.16,111.16,532.14,99.43,526.98,96.45"/>
					<path class="st48" d="M525.61,149.99l0.01-5.25l0.01-5.25l3.95,4.91l3.95,4.92l-3.97,0.34L525.61,149.99 M528.83,132.19
						c-6.89-3.98-12.49-0.79-12.52,7.13c-0.02,7.92,5.55,17.57,12.44,21.55c6.89,3.98,12.5,0.78,12.52-7.14
						C541.29,145.81,535.72,136.17,528.83,132.19"/>
					<polyline class="st50" points="525.64,139.48 525.63,144.73 525.61,149.99 529.58,149.65 533.55,149.31 529.59,144.39 
						525.64,139.48 					"/>
					<path class="st48" d="M515.27,170.01c-1.54-0.89-2.79-3.06-2.79-4.83c0.01-1.78,1.26-2.49,2.81-1.6
						c1.55,0.89,2.8,3.06,2.79,4.84C518.08,170.18,516.82,170.9,515.27,170.01 M534.79,168.23l-31.24-18.04l-0.06,22.73l31.24,18.04
						l-31.24-18.04l0.01-3.49l5.8-3.3l5.87,10.17l11.85-6.75l7.73,13.39L534.79,168.23"/>
					<polyline class="st49" points="527.02,169.55 515.16,176.3 509.29,166.13 503.49,169.43 503.49,172.92 534.73,190.96 
						534.75,182.94 527.02,169.55 					"/>
					<path class="st49" d="M515.29,163.57c-1.54-0.89-2.8-0.17-2.81,1.6c-0.01,1.77,1.25,3.94,2.79,4.83
						c1.55,0.89,2.81,0.18,2.81-1.6C518.09,166.63,516.84,164.47,515.29,163.57"/>
				</g>
			</g>
		</g>
	</g>
	<g class="st0">
		<g>
			<g class="st1">
				<g>
					<linearGradient id="SVGID_35_" gradientUnits="userSpaceOnUse" x1="151.2254" y1="246.6984" x2="135.2784" y2="291.7899">
						<stop  offset="0" style="stop-color:#89DAF4"/>
						<stop  offset="1" style="stop-color:#008DD7"/>
					</linearGradient>
					<polygon class="st51" points="193.4,269.28 143.35,298.34 93.07,269.28 143.35,240.22 					"/>
				</g>
				<linearGradient id="SVGID_36_" gradientUnits="userSpaceOnUse" x1="143.3485" y1="415.9091" x2="193.4042" y2="415.9091">
					<stop  offset="0" style="stop-color:#144188"/>
					<stop  offset="0.9975" style="stop-color:#1A7CDE"/>
				</linearGradient>
				<polygon class="st52" points="193.4,269.28 193.4,533.48 143.35,562.54 143.35,298.34 				"/>
				<linearGradient id="SVGID_37_" gradientUnits="userSpaceOnUse" x1="93.0748" y1="415.9094" x2="143.3485" y2="415.9094">
					<stop  offset="0" style="stop-color:#144188"/>
					<stop  offset="0.998" style="stop-color:#102465"/>
				</linearGradient>
				<polygon class="st53" points="143.35,298.34 143.35,562.54 93.07,533.48 93.07,269.28 				"/>
			</g>
		</g>
		<polygon class="st22" points="143.35,304.55 193.4,275.49 193.4,274.28 143.35,303.34 		"/>
		<polygon class="st23" points="93.07,275.49 143.35,304.55 143.35,303.34 93.07,274.28 		"/>
		<linearGradient id="SVGID_38_" gradientUnits="userSpaceOnUse" x1="156.7074" y1="146.3048" x2="114.4008" y2="265.93">
			<stop  offset="0.0373" style="stop-color:#93FFFD;stop-opacity:0"/>
			<stop  offset="0.6222" style="stop-color:#A5FDFE;stop-opacity:0.6076"/>
			<stop  offset="1" style="stop-color:#B2FBFF"/>
		</linearGradient>
		<polygon class="st54" points="97.31,147.99 114.46,269.28 143.3,285.95 172.01,269.28 189.17,147.99 		"/>
		<g>
			<polygon class="st25" points="172.01,269.28 143.3,285.95 114.46,269.28 143.3,252.61 			"/>
		</g>
		<g>
			<linearGradient id="SVGID_39_" gradientUnits="userSpaceOnUse" x1="123.9853" y1="390.1473" x2="106.8293" y2="389.8069">
				<stop  offset="0" style="stop-color:#144188"/>
				<stop  offset="0.9975" style="stop-color:#1A7CDE"/>
			</linearGradient>
			<polygon class="st55" points="124.18,316.71 110.11,308.58 110.11,463.31 124.18,471.44 			"/>
			<linearGradient id="SVGID_40_" gradientUnits="userSpaceOnUse" x1="129.004" y1="463.4073" x2="114.8932" y2="463.1273">
				<stop  offset="0" style="stop-color:#144188"/>
				<stop  offset="0.9975" style="stop-color:#1A7CDE"/>
			</linearGradient>
			<polygon class="st56" points="110.11,463.31 124.18,471.44 124.18,455.18 			"/>
		</g>
		<linearGradient id="SVGID_41_" gradientUnits="userSpaceOnUse" x1="142.2258" y1="540.757" x2="143.5034" y2="365.095">
			<stop  offset="0" style="stop-color:#0044AE"/>
			<stop  offset="1" style="stop-color:#0044AE;stop-opacity:0"/>
		</linearGradient>
		<polygon class="st57" points="143.35,298.34 93.07,269.28 93.07,533.48 143.35,562.54 193.4,533.48 193.4,269.28 		"/>
	</g>
	<g id="XMLID_15_" class="st0">
		<g id="XMLID_31_">
			<g id="XMLID_2_">
				<g id="XMLID_500_" class="st1">
					<g id="XMLID_513_">
						<polygon id="XMLID_514_" class="st58" points="163.47,188.09 156.96,184.1 156.17,177.7 162.68,181.69 						"/>
					</g>
					<g id="XMLID_511_">
						<polygon id="XMLID_512_" class="st59" points="157.58,177.62 151.07,173.62 155.54,172.91 162.05,176.91 						"/>
					</g>
					<g id="XMLID_509_">
						<polygon id="XMLID_510_" class="st58" points="162.05,176.91 155.54,172.91 153.38,155.06 159.89,159.06 						"/>
					</g>
					<g id="XMLID_507_">
						<polygon id="XMLID_508_" class="st60" points="156.69,153.19 150.18,149.2 156.98,148.12 163.48,152.12 						"/>
					</g>
					<g id="XMLID_505_">
						<polygon id="XMLID_506_" class="st58" points="151.9,189.93 145.39,185.93 150.18,149.2 156.69,153.19 						"/>
					</g>
					<g id="XMLID_501_">
						<path id="XMLID_502_" class="st39" d="M163.48,152.12l4.67,35.23l-4.68,0.74l-0.79-6.4l-5.7,0.9l-0.81,6.66l-4.26,0.68
							l4.79-36.73L163.48,152.12z M157.58,177.62l4.47-0.71l-2.17-17.85l-0.08,0.01L157.58,177.62"/>
					</g>
				</g>
				<g id="XMLID_470_" class="st1">
					<g id="XMLID_498_">
						<path id="XMLID_499_" class="st58" d="M135.56,183.63l-6.51-3.99c1.56-0.25,2.41-1.26,2.41-3.93l6.51,3.99
							C137.96,182.37,137.12,183.38,135.56,183.63z"/>
					</g>
					<g id="XMLID_496_">
						<polygon id="XMLID_497_" class="st58" points="137.97,179.7 131.46,175.7 131.47,172.57 137.97,176.56 						"/>
					</g>
					<g id="XMLID_494_">
						<polygon id="XMLID_495_" class="st59" points="132.9,184.05 126.39,180.05 129.05,179.63 135.56,183.63 						"/>
					</g>
					<g id="XMLID_492_">
						<path id="XMLID_493_" class="st61" d="M133.63,165.52l6.51,3.99c-0.29-0.18-0.62-0.33-0.97-0.44l-6.51-3.99
							C133.01,165.19,133.33,165.34,133.63,165.52z"/>
					</g>
					<g id="XMLID_490_">
						<path id="XMLID_491_" class="st58" d="M130.35,168.88l6.51,3.99c0.77,0.47,1.11,1.6,1.11,3.69l-6.51-3.99
							C131.47,170.48,131.13,169.35,130.35,168.88z"/>
					</g>
					<g id="XMLID_488_">
						<path id="XMLID_489_" class="st58" d="M134.74,167.57l-6.51-3.99c1.73-0.27,2.79-1.37,2.79-4.25l6.51,3.99
							C137.53,166.2,136.47,167.29,134.74,167.57z"/>
					</g>
					<g id="XMLID_486_">
						<polygon id="XMLID_487_" class="st58" points="137.53,163.32 131.02,159.33 131.03,157.32 137.54,161.32 						"/>
					</g>
					<g id="XMLID_484_">
						<polygon id="XMLID_485_" class="st59" points="132.92,167.86 126.42,163.86 128.23,163.57 134.74,167.57 						"/>
					</g>
					<g id="XMLID_482_">
						<path id="XMLID_483_" class="st58" d="M130.03,154.18l6.51,3.99c0.69,0.42,1,1.44,1,3.14l-6.51-3.99
							C131.03,155.62,130.72,154.6,130.03,154.18z"/>
					</g>
					<g id="XMLID_480_">
						<path id="XMLID_481_" class="st60" d="M133.22,149.39l6.51,3.99c-1.08-0.66-2.54-0.85-4.42-0.55l-6.51-3.99
							C130.68,148.54,132.14,148.72,133.22,149.39z"/>
					</g>
					<g id="XMLID_478_">
						<polygon id="XMLID_479_" class="st58" points="128.25,189.93 121.74,185.93 121.8,149.95 128.31,153.94 						"/>
					</g>
					<g id="XMLID_473_">
						<path id="XMLID_474_" class="st39" d="M139.17,169.08c2.49,0.79,3.46,3.31,3.45,7.11l0,2.93c-0.01,5.55-2.42,8.92-7.06,9.65
							l-7.3,1.16l0.06-35.98l7.01-1.11c4.81-0.76,6.88,1.63,6.87,7.19l0,1.28c-0.01,3.7-0.94,6.16-3.01,7.67L139.17,169.08z
							 M137.97,179.7l0.01-3.14c0.01-3.34-0.88-4.23-2.99-3.89l-2.07,0.33l-0.02,11.05l2.66-0.42
							C137.12,183.38,137.96,182.37,137.97,179.7 M132.94,158.35l-0.02,9.51l1.82-0.29c1.73-0.27,2.79-1.37,2.79-4.25l0-2
							c0-2.57-0.71-3.59-2.36-3.33L132.94,158.35"/>
					</g>
					<g id="XMLID_471_">
						<polygon id="XMLID_472_" class="st60" points="128.31,153.94 121.8,149.95 128.81,148.84 135.31,152.83 						"/>
					</g>
				</g>
				<g id="XMLID_410_" class="st1">
					<g id="XMLID_417_">
						<polygon id="XMLID_418_" class="st59" points="184.33,169.19 177.83,165.2 183.82,164.25 190.33,168.24 						"/>
					</g>
					<g id="XMLID_415_">
						<polygon id="XMLID_416_" class="st58" points="179.66,189.93 173.15,185.93 173.21,149.95 179.72,153.94 						"/>
					</g>
					<g id="XMLID_413_">
						<polygon id="XMLID_414_" class="st60" points="179.72,153.94 173.21,149.95 185.49,148 192,151.99 						"/>
					</g>
					<g id="XMLID_411_">
						<polygon id="XMLID_412_" class="st39" points="192,151.99 191.99,157.13 184.35,158.35 184.33,169.19 190.33,168.24 
							190.32,173.38 184.33,174.33 184.3,189.19 179.66,189.93 179.72,153.94 						"/>
					</g>
				</g>
				<g id="XMLID_387_" class="st1">
					<g id="XMLID_408_">
						<path id="XMLID_409_" class="st59" d="M109.76,184.41l-6.51-3.99c0.38,0.23,0.85,0.28,1.4,0.2c1.48-0.23,2.41-1.31,2.41-3.88
							l6.51,3.99c0,2.57-0.93,3.64-2.41,3.88C110.61,184.69,110.13,184.64,109.76,184.41z"/>
					</g>
					<g id="XMLID_406_">
						<polygon id="XMLID_407_" class="st59" points="113.56,180.73 107.06,176.73 107.07,170.1 113.58,174.1 						"/>
					</g>
					<g id="XMLID_404_">
						<polygon id="XMLID_405_" class="st58" points="111.46,174.43 104.96,170.44 104.97,165.3 111.47,169.29 						"/>
					</g>
					<g id="XMLID_402_">
						<polygon id="XMLID_403_" class="st60" points="111.47,169.29 104.97,165.3 111.47,164.27 117.97,168.26 						"/>
					</g>
					<g id="XMLID_400_">
						<path id="XMLID_401_" class="st58" d="M106.94,189.21l-6.51-3.99c-1.88-1.15-2.84-3.67-2.83-7.34l6.51,3.99
							C104.1,185.54,105.06,188.06,106.94,189.21z"/>
					</g>
					<g id="XMLID_398_">
						<polygon id="XMLID_399_" class="st58" points="113.59,165.15 107.08,161.16 107.09,157.3 113.6,161.3 						"/>
					</g>
					<g id="XMLID_396_">
						<path id="XMLID_397_" class="st58" d="M106.06,154.34l6.51,3.99c0.65,0.4,1.03,1.33,1.02,2.97l-6.51-3.99
							C107.09,155.67,106.72,154.74,106.06,154.34z"/>
					</g>
					<g id="XMLID_394_">
						<path id="XMLID_395_" class="st60" d="M108.65,149.62l6.51,3.99c-1.07-0.65-2.43-0.87-4.08-0.61l-6.51-3.99
							C106.22,148.75,107.58,148.97,108.65,149.62z"/>
					</g>
					<g id="XMLID_392_">
						<polygon id="XMLID_393_" class="st58" points="104.11,181.87 97.6,177.87 97.63,159.16 104.14,163.16 						"/>
					</g>
					<g id="XMLID_390_">
						<path id="XMLID_391_" class="st39" d="M111.08,153.01c4.56-0.72,6.92,2.19,6.91,7.95l-0.01,3.5l-4.39,0.7l0.01-3.85
							c0-2.57-0.92-3.4-2.4-3.17c-1.48,0.23-2.41,1.36-2.41,3.93l-0.03,19.43c0,2.57,0.92,3.35,2.4,3.11
							c1.48-0.23,2.41-1.31,2.41-3.88l0.01-6.63l-2.11,0.33l0.01-5.14l6.5-1.03l-0.02,11.41c-0.01,5.76-2.38,9.42-6.94,10.15
							c-4.56,0.72-6.92-2.19-6.91-7.95l0.03-18.71C104.15,157.4,106.52,153.73,111.08,153.01z"/>
					</g>
					<g id="XMLID_388_">
						<path id="XMLID_389_" class="st58" d="M104.14,163.16l-6.51-3.99c0.01-5.76,2.38-9.42,6.94-10.15l6.51,3.99
							C106.52,153.73,104.15,157.4,104.14,163.16z"/>
					</g>
				</g>
			</g>
		</g>
	</g>
	<g class="st0">
		<g>
			<g>
				<g class="st1">
					<g>
						<linearGradient id="SVGID_42_" gradientUnits="userSpaceOnUse" x1="679.3038" y1="136.1987" x2="670.8679" y2="160.0519">
							<stop  offset="0" style="stop-color:#89DAF4"/>
							<stop  offset="1" style="stop-color:#008DD7"/>
						</linearGradient>
						<polygon class="st62" points="701.62,148.14 675.14,163.51 648.54,148.14 675.14,132.77 						"/>
					</g>
					<linearGradient id="SVGID_43_" gradientUnits="userSpaceOnUse" x1="675.137" y1="272.9247" x2="701.6162" y2="272.9247">
						<stop  offset="0" style="stop-color:#144188"/>
						<stop  offset="0.9975" style="stop-color:#1A7CDE"/>
					</linearGradient>
					<polygon class="st63" points="701.62,148.14 701.62,382.33 675.14,397.71 675.14,163.51 					"/>
					<linearGradient id="SVGID_44_" gradientUnits="userSpaceOnUse" x1="648.5425" y1="272.9248" x2="675.137" y2="272.9248">
						<stop  offset="0" style="stop-color:#144188"/>
						<stop  offset="0.998" style="stop-color:#102465"/>
					</linearGradient>
					<polygon class="st64" points="675.14,163.51 675.14,397.71 648.54,382.33 648.54,148.14 					"/>
				</g>
			</g>
			<polygon class="st22" points="675.14,166.8 701.62,151.43 701.62,150.79 675.14,166.16 			"/>
			<polygon class="st23" points="648.54,151.43 675.14,166.8 675.14,166.16 648.54,150.79 			"/>
			<linearGradient id="SVGID_45_" gradientUnits="userSpaceOnUse" x1="682.2037" y1="83.091" x2="659.8239" y2="146.3721">
				<stop  offset="0.0373" style="stop-color:#93FFFD;stop-opacity:0"/>
				<stop  offset="0.6222" style="stop-color:#A5FDFE;stop-opacity:0.6076"/>
				<stop  offset="1" style="stop-color:#B2FBFF"/>
			</linearGradient>
			<polygon class="st65" points="650.78,83.98 659.86,148.14 675.11,156.96 690.3,148.14 699.37,83.98 			"/>
			<g>
				<polygon class="st25" points="690.3,148.14 675.11,156.96 659.86,148.14 675.11,139.33 				"/>
			</g>
			<g>
				<path class="st32" d="M692.48,104.94c-0.1,0.06-0.2,0.12-0.3,0.18c-0.23,0.14-0.47,0.28-0.7,0.41
					c-0.11,0.06-0.22,0.13-0.33,0.19c-0.27,0.15-0.55,0.3-0.82,0.45c-0.07,0.04-0.14,0.08-0.21,0.11c-0.35,0.18-0.7,0.36-1.06,0.54
					c-0.09,0.04-0.18,0.09-0.28,0.13c-0.27,0.13-0.55,0.26-0.82,0.39c-0.12,0.06-0.24,0.11-0.37,0.17
					c-0.27,0.12-0.54,0.24-0.82,0.36c-0.11,0.05-0.22,0.09-0.33,0.14c-0.38,0.16-0.76,0.31-1.15,0.46
					c-0.04,0.02-0.08,0.03-0.13,0.05c-0.35,0.13-0.7,0.26-1.05,0.39c-0.12,0.04-0.25,0.09-0.38,0.13c-0.28,0.1-0.57,0.2-0.86,0.29
					c-0.13,0.04-0.25,0.08-0.38,0.12c-0.45,0.14-0.9,0.28-1.35,0.41c-0.05,0.01-0.09,0.03-0.14,0.04c-0.42,0.12-0.83,0.23-1.26,0.34
					c-0.12,0.03-0.25,0.06-0.37,0.09c-0.45,0.11-0.89,0.22-1.35,0.31c-0.02,0.01-0.05,0.01-0.07,0.02c-0.47,0.1-0.95,0.2-1.43,0.28
					c-0.12,0.02-0.24,0.04-0.35,0.06c-0.55,0.1-1.1,0.19-1.65,0.26c-0.04,0.01-0.09,0.01-0.13,0.02c-0.53,0.07-1.07,0.14-1.6,0.19
					c-0.11,0.01-0.22,0.02-0.33,0.03c-0.45,0.04-0.9,0.08-1.35,0.11c-0.01,0-0.03,0-0.04,0c-0.44,0.03-0.88,0.05-1.32,0.07
					c-0.16,0.01-0.32,0.01-0.48,0.01c-0.26,0.01-0.52,0.01-0.78,0.02c-0.17,0-0.34,0-0.52,0c-0.26,0-0.51,0-0.77-0.01
					c-0.18,0-0.36-0.01-0.54-0.01c-0.22-0.01-0.45-0.02-0.67-0.03c-0.19-0.01-0.37-0.02-0.56-0.03c-0.23-0.01-0.45-0.03-0.68-0.05
					c-0.19-0.01-0.37-0.03-0.56-0.04c-0.23-0.02-0.45-0.04-0.68-0.07c-0.19-0.02-0.37-0.04-0.56-0.06
					c-0.23-0.03-0.46-0.06-0.69-0.09c-0.18-0.02-0.36-0.05-0.54-0.07c-0.27-0.04-0.54-0.08-0.82-0.13c-0.15-0.02-0.3-0.05-0.45-0.07
					c-0.35-0.06-0.69-0.13-1.04-0.2c-0.08-0.02-0.16-0.03-0.24-0.05c-1.09-1.75-1.59-3.49-1.58-5.21l-0.01,4.27
					c0,1.71,0.49,3.46,1.58,5.21c0.01,0,0.02,0,0.03,0.01c0.07,0.01,0.14,0.03,0.21,0.04c0.35,0.07,0.69,0.14,1.04,0.2
					c0.15,0.03,0.3,0.05,0.45,0.07c0.27,0.04,0.54,0.09,0.82,0.13c0.04,0.01,0.08,0.01,0.12,0.02c0.14,0.02,0.28,0.04,0.42,0.05
					c0.23,0.03,0.46,0.06,0.69,0.09c0.19,0.02,0.37,0.04,0.56,0.06c0.23,0.02,0.45,0.05,0.68,0.07c0.06,0.01,0.12,0.01,0.18,0.02
					c0.13,0.01,0.25,0.02,0.38,0.03c0.23,0.02,0.45,0.03,0.68,0.05c0.19,0.01,0.37,0.02,0.56,0.03c0.22,0.01,0.45,0.02,0.67,0.03
					c0.08,0,0.16,0.01,0.24,0.01c0.1,0,0.2,0,0.29,0c0.26,0,0.51,0.01,0.77,0.01c0.17,0,0.34,0,0.52,0c0.26,0,0.52-0.01,0.78-0.02
					c0.11,0,0.22,0,0.33-0.01c0.05,0,0.1-0.01,0.14-0.01c0.45-0.02,0.89-0.04,1.33-0.07c0.01,0,0.02,0,0.03,0
					c0.45-0.03,0.91-0.07,1.36-0.11c0.04,0,0.09-0.01,0.13-0.01c0.06-0.01,0.13-0.02,0.19-0.02c0.54-0.06,1.07-0.12,1.61-0.19
					c0.04-0.01,0.09-0.01,0.13-0.02c0.56-0.08,1.11-0.17,1.65-0.26c0.06-0.01,0.12-0.02,0.18-0.03c0.06-0.01,0.11-0.02,0.17-0.03
					c0.48-0.09,0.96-0.18,1.43-0.28c0.02-0.01,0.05-0.01,0.07-0.02c0.45-0.1,0.9-0.2,1.35-0.31c0.12-0.03,0.25-0.06,0.37-0.09
					c0.42-0.11,0.84-0.22,1.26-0.34c0.05-0.01,0.1-0.03,0.14-0.04c0.46-0.13,0.91-0.27,1.35-0.41c0.05-0.02,0.1-0.03,0.15-0.04
					c0.08-0.03,0.15-0.05,0.23-0.08c0.29-0.09,0.57-0.19,0.86-0.29c0.13-0.04,0.25-0.09,0.38-0.13c0.35-0.13,0.7-0.26,1.05-0.39
					c0.04-0.02,0.09-0.03,0.13-0.05c0.39-0.15,0.77-0.31,1.15-0.46c0.11-0.05,0.22-0.09,0.33-0.14c0.27-0.12,0.55-0.24,0.82-0.36
					c0.12-0.05,0.24-0.11,0.37-0.17c0.28-0.13,0.55-0.26,0.82-0.39c0.09-0.04,0.19-0.09,0.28-0.13c0.36-0.18,0.71-0.35,1.06-0.54
					c0.07-0.04,0.14-0.08,0.21-0.11c0.28-0.15,0.55-0.3,0.82-0.45c0.11-0.06,0.22-0.12,0.33-0.19c0.24-0.14,0.47-0.27,0.7-0.41
					c0.07-0.04,0.13-0.08,0.2-0.12c0.04-0.02,0.07-0.04,0.11-0.07c0.33-0.2,0.65-0.4,0.97-0.61l0.01-4.27
					C693.13,104.54,692.81,104.74,692.48,104.94z"/>
				<g>
					<path class="st40" d="M693.45,104.33c-8.55,5.55-21.41,9.18-34.3,6.5c-4.66-7.46,1.57-14.92,11.11-19.89l14.7,4.89
						L693.45,104.33z"/>
				</g>
				<g>
					<path class="st31" d="M690.86,104.16c-4.07,2.47-8.77,4.31-13.67,5.37c-5.58,1.2-11.09,1.32-16.39,0.35
						c-1.69-3.07-1.5-6.26,0.55-9.5c1.8-2.84,4.97-5.57,9.22-7.94l12.87,4.28L690.86,104.16z"/>
				</g>
				<g>
					<polygon class="st38" points="680.58,102.73 680.59,104.55 667.77,104.55 667.75,99.67 670.89,99.67 670.91,102.73 					"/>
				</g>
			</g>
		</g>
		<linearGradient id="SVGID_46_" gradientUnits="userSpaceOnUse" x1="673.7967" y1="350.5378" x2="676.3517" y2="180.6248">
			<stop  offset="0" style="stop-color:#0091DE"/>
			<stop  offset="0.6428" style="stop-color:#0099E3;stop-opacity:0.3572"/>
			<stop  offset="1" style="stop-color:#00A0E8;stop-opacity:0"/>
		</linearGradient>
		<polygon class="st66" points="691.16,142.07 699.37,83.98 650.78,83.98 659,142.1 648.54,148.14 648.54,382.33 675.14,397.71 
			701.62,382.33 701.62,148.14 		"/>
	</g>
	<g class="st0">
		<g>
			<g class="st1">
				<g>
					<linearGradient id="SVGID_47_" gradientUnits="userSpaceOnUse" x1="789.682" y1="170.4016" x2="754.8569" y2="268.8723">
						<stop  offset="0" style="stop-color:#89DAF4"/>
						<stop  offset="1" style="stop-color:#008DD7"/>
					</linearGradient>
					<polygon class="st67" points="881.79,219.71 772.48,283.17 662.69,219.71 772.48,156.26 					"/>
				</g>
				<linearGradient id="SVGID_48_" gradientUnits="userSpaceOnUse" x1="772.4806" y1="400.0688" x2="881.792" y2="400.0688">
					<stop  offset="0" style="stop-color:#144188"/>
					<stop  offset="0.9975" style="stop-color:#1A7CDE"/>
				</linearGradient>
				<polygon class="st68" points="881.79,219.71 881.79,516.97 772.48,580.42 772.48,283.17 				"/>
				<linearGradient id="SVGID_49_" gradientUnits="userSpaceOnUse" x1="662.693" y1="400.0692" x2="772.4806" y2="400.0692">
					<stop  offset="0" style="stop-color:#144188"/>
					<stop  offset="0.998" style="stop-color:#102465"/>
				</linearGradient>
				<polygon class="st69" points="772.48,283.17 772.48,580.42 662.69,516.97 662.69,219.71 				"/>
			</g>
		</g>
		<polygon class="st22" points="772.48,295.73 881.79,232.28 881.79,230.64 772.48,294.1 		"/>
		<polygon class="st23" points="662.69,232.28 772.48,295.73 772.48,294.1 662.69,230.64 		"/>
		<g>
			<linearGradient id="SVGID_50_" gradientUnits="userSpaceOnUse" x1="700.4943" y1="345.9307" x2="683.3383" y2="345.5903">
				<stop  offset="0" style="stop-color:#144188"/>
				<stop  offset="0.9975" style="stop-color:#1A7CDE"/>
			</linearGradient>
			<polygon class="st70" points="700.69,272.49 686.62,264.36 686.62,419.1 700.69,427.23 			"/>
			<linearGradient id="SVGID_51_" gradientUnits="userSpaceOnUse" x1="705.513" y1="419.1906" x2="691.4022" y2="418.9106">
				<stop  offset="0" style="stop-color:#144188"/>
				<stop  offset="0.9975" style="stop-color:#1A7CDE"/>
			</linearGradient>
			<polygon class="st71" points="686.62,419.1 700.69,427.23 700.69,410.96 			"/>
		</g>
		<g>
			<linearGradient id="SVGID_52_" gradientUnits="userSpaceOnUse" x1="724.6356" y1="359.7127" x2="707.4797" y2="359.3723">
				<stop  offset="0" style="stop-color:#144188"/>
				<stop  offset="0.9975" style="stop-color:#1A7CDE"/>
			</linearGradient>
			<polygon class="st72" points="724.83,286.28 710.76,278.15 710.76,432.88 724.83,441.01 			"/>
			<linearGradient id="SVGID_53_" gradientUnits="userSpaceOnUse" x1="729.6544" y1="432.9727" x2="715.5435" y2="432.6927">
				<stop  offset="0" style="stop-color:#144188"/>
				<stop  offset="0.9975" style="stop-color:#1A7CDE"/>
			</linearGradient>
			<polygon class="st73" points="710.76,432.88 724.83,441.01 724.83,424.75 			"/>
		</g>
		<linearGradient id="SVGID_54_" gradientUnits="userSpaceOnUse" x1="794.541" y1="15.97" x2="724.4949" y2="214.031">
			<stop  offset="0.0373" style="stop-color:#93FFFD;stop-opacity:0"/>
			<stop  offset="0.6222" style="stop-color:#A5FDFE;stop-opacity:0.6076"/>
			<stop  offset="1" style="stop-color:#B2FBFF"/>
		</linearGradient>
		<polygon class="st74" points="696.2,18.77 724.6,219.58 772.35,247.17 819.89,219.58 848.28,18.76 		"/>
		<g>
			<polygon class="st25" points="819.89,219.58 772.35,247.17 724.6,219.58 772.35,191.98 			"/>
		</g>
	</g>
	<g class="st0">
		<g>
			<g>
				<g class="st1">
					<g>
						<linearGradient id="SVGID_55_" gradientUnits="userSpaceOnUse" x1="634.7751" y1="350.0647" x2="599.9501" y2="448.5353">
							<stop  offset="0" style="stop-color:#89DAF4"/>
							<stop  offset="1" style="stop-color:#008DD7"/>
						</linearGradient>
						<polygon class="st75" points="726.89,399.38 617.57,462.83 507.79,399.38 617.57,335.92 						"/>
					</g>
					<linearGradient id="SVGID_56_" gradientUnits="userSpaceOnUse" x1="617.5738" y1="509.5697" x2="726.8852" y2="509.5697">
						<stop  offset="0" style="stop-color:#144188"/>
						<stop  offset="0.9975" style="stop-color:#1A7CDE"/>
					</linearGradient>
					<polygon class="st76" points="726.89,399.38 726.89,556.31 617.57,619.76 617.57,462.83 					"/>
					<linearGradient id="SVGID_57_" gradientUnits="userSpaceOnUse" x1="507.7861" y1="509.5702" x2="617.5738" y2="509.5702">
						<stop  offset="0" style="stop-color:#144188"/>
						<stop  offset="0.998" style="stop-color:#102465"/>
					</linearGradient>
					<polygon class="st77" points="617.57,462.83 617.57,619.76 507.79,556.31 507.79,399.38 					"/>
				</g>
			</g>
			<polygon class="st22" points="617.57,475.4 726.89,411.94 726.89,410.3 617.57,473.76 			"/>
			<polygon class="st23" points="507.79,411.94 617.57,475.4 617.57,473.76 507.79,410.3 			"/>
		</g>
		<g>
			<g class="st1">
				<path class="st78" d="M670.51,382.81c-0.01,0.08-0.01,0.17-0.03,0.25c-0.01,0.07-0.03,0.13-0.05,0.2
					c-0.02,0.08-0.04,0.16-0.07,0.24c-0.02,0.06-0.05,0.13-0.08,0.19c-0.04,0.08-0.07,0.17-0.12,0.25
					c-0.03,0.06-0.07,0.12-0.11,0.18c-0.06,0.09-0.12,0.18-0.19,0.28c-0.04,0.05-0.08,0.11-0.13,0.16c-0.1,0.12-0.21,0.24-0.33,0.36
					c-0.04,0.04-0.08,0.09-0.13,0.13c-0.08,0.07-0.16,0.13-0.24,0.2c-0.07,0.06-0.14,0.12-0.22,0.18c-0.09,0.06-0.19,0.13-0.28,0.19
					c-0.1,0.07-0.19,0.13-0.3,0.19l-66.72,38.78c-3.07,1.78-8.07,1.78-11.16,0l-30.75-17.75c-1.55-0.9-2.33-2.08-2.33-3.26
					l-0.01,4.08c0,1.18,0.77,2.36,2.33,3.26l30.75,17.75c3.09,1.78,8.09,1.78,11.16,0l66.72-38.78c0.03-0.02,0.06-0.04,0.1-0.06
					c0.07-0.04,0.14-0.09,0.21-0.14c0.1-0.06,0.19-0.12,0.28-0.19c0.08-0.06,0.15-0.12,0.22-0.18c0.08-0.07,0.17-0.13,0.24-0.2
					c0.02-0.01,0.03-0.03,0.05-0.04c0.03-0.03,0.05-0.06,0.08-0.09c0.12-0.12,0.23-0.24,0.33-0.36c0.02-0.03,0.05-0.05,0.07-0.08
					c0.02-0.03,0.03-0.05,0.05-0.08c0.07-0.09,0.13-0.18,0.18-0.27c0.02-0.04,0.06-0.08,0.08-0.12c0.01-0.02,0.02-0.04,0.03-0.06
					c0.04-0.08,0.08-0.16,0.11-0.25c0.02-0.05,0.05-0.1,0.07-0.14c0.01-0.02,0.01-0.03,0.01-0.05c0.03-0.08,0.05-0.16,0.07-0.24
					c0.01-0.05,0.03-0.11,0.05-0.16c0-0.01,0-0.03,0-0.04c0.02-0.08,0.02-0.17,0.03-0.25c0-0.05,0.02-0.11,0.02-0.16
					c0-0.02,0-0.05,0-0.07l0.01-4.08C670.53,382.66,670.52,382.74,670.51,382.81z"/>
				<g>
					<linearGradient id="SVGID_58_" gradientUnits="userSpaceOnUse" x1="629.9327" y1="360.5379" x2="584.2064" y2="453.3466">
						<stop  offset="0" style="stop-color:#CDEFFB"/>
						<stop  offset="1" style="stop-color:#89DAF4"/>
					</linearGradient>
					<path class="st79" d="M668.2,379.33c3.09,1.78,3.11,4.68,0.04,6.47l-66.72,38.78c-3.07,1.78-8.07,1.78-11.16,0l-30.75-17.75
						c-3.09-1.78-3.11-4.68-0.04-6.47l66.72-38.78c3.07-1.78,8.07-1.78,11.16,0L668.2,379.33z M599.91,423.64l66.72-38.78
						c2.19-1.27,2.18-3.34-0.03-4.62l-2.77-1.6l-4.18,0.11l-21.21-12.25l0.18-2.42l-2.77-1.6c-2.2-1.27-5.78-1.27-7.97,0
						l-66.72,38.78c-2.19,1.27-2.18,3.34,0.03,4.62l30.75,17.75C594.15,424.92,597.72,424.92,599.91,423.64"/>
				</g>
				<g>
					<path class="st80" d="M666.61,380.25c2.2,1.27,2.21,3.34,0.03,4.62l-66.72,38.78c-2.19,1.27-5.76,1.27-7.97,0l-30.75-17.75
						c-2.2-1.27-2.21-3.34-0.03-4.62l66.72-38.78c2.19-1.27,5.77-1.27,7.97,0l2.77,1.6l-0.18,2.42l21.21,12.25l4.18-0.11
						L666.61,380.25z"/>
				</g>
				<g>
					<path class="st80" d="M666.61,380.25c2.2,1.27,2.21,3.34,0.03,4.62l-66.72,38.78c-2.19,1.27-5.76,1.27-7.97,0l-30.75-17.75
						c-2.2-1.27-2.21-3.34-0.03-4.62l66.72-38.78c2.19-1.27,5.77-1.27,7.97,0l2.77,1.6l-0.18,2.42l21.21,12.25l4.18-0.11
						L666.61,380.25z"/>
				</g>
			</g>
		</g>
		<g>
			<g class="st81">
				<path class="st35" d="M582.71,375.56c3.86,2.23,3.88,5.84,0.05,8.06c-3.85,2.24-10.08,2.24-13.94,0.01
					c-3.86-2.23-3.9-5.85-0.05-8.08C572.61,373.32,578.85,373.33,582.71,375.56z"/>
			</g>
			<g>
				<g>
					<path class="st36" d="M569.96,377.27c0,0-0.56,0.07-0.66,0.28c-0.1,0.21-0.16,2.05-0.15,2.3c0,0,1.47,1.44,2.84,2.14
						c1.37,0.7,2.56,1.01,3.09,0.55c0.53-0.46,0.2-0.99-0.93-1.91c-1.13-0.92-2.22-3.37-2.22-3.37
						C571.93,377.28,569.96,377.27,569.96,377.27z"/>
					<path class="st36" d="M577.17,374.38c0,0-0.56,0.07-0.66,0.28c-0.1,0.21-0.16,2.05-0.15,2.3c0,0,1.47,1.44,2.84,2.14
						c1.37,0.7,2.56,1.01,3.09,0.55c0.53-0.46,0.2-0.99-0.93-1.91c-1.13-0.92-2.22-3.37-2.22-3.37
						C579.14,374.38,577.17,374.38,577.17,374.38z"/>
					<path class="st37" d="M581.15,347.73c0,0-0.04,0.73-0.07,0.87c-0.03,0.14-0.66,1.07-0.67,1.38c-0.01,0.31,0.32,0.56,0.32,0.56
						s0.01,0.68,0.08,0.82c0.07,0.14,0.69,0.05,0.76,0.09c0.07,0.04,0.47,0.29,0.74,0.18c0.27-0.11,1.01-0.34,1.1-0.44
						c0.09-0.09,0.17-2.37-0.17-4.11c-0.11-0.58-0.63-14.08-0.94-13.98C581.68,333.29,581.15,347.73,581.15,347.73z"/>
					<path class="st39" d="M583.12,334.7c-0.28-1.33-0.62-2.88-0.91-3.95c-0.61-2.25-1.06-3.99-2.37-4.03l-0.45,7.63
						c0,0,0.14,1.15,0.38,2.45C580.96,336.22,582.04,335.47,583.12,334.7z"/>
					<path class="st36" d="M569.12,349.11l-0.1,28.73c0,0,1.59,0.97,3.43-0.07c0,0,3.25-24.82,3.31-25.4
						c0.05-0.54,0.46,22.66,0.46,22.66s2.01,1.16,3.55-0.41l1.81-27.48L569.12,349.11z"/>
					<path class="st39" d="M571.98,327.64c0,0-2.14,0.79-4.04,2.35l1.18,19.12c0,0,2.47,1.81,7.53,0.49c4.12-1.08,5.2-2.81,5.2-2.81
						s0.38-9.39-0.01-13.37c-0.39-3.97-2-6.7-2-6.7c-0.9-0.27-2.88-0.16-2.88-0.16L571.98,327.64z"/>
					<path class="st36" d="M577.31,315.99c-0.88-0.32-1.62-0.31-2.58-0.21c-1.81,0.19-3.33,1.07-3.63,3.01
						c-0.23,1.46,0.32,2.95,0.89,4.26c0.76,1.74,1.3,1.11,1.3,1.11c1.48-0.6,2.95-1.19,4.43-1.79c0.41-0.16,1.02-0.29,1.36-0.58
						c0.54-0.47,0.36-1.29,0.46-1.92c0.13-0.85,0.26-1.57-0.21-2.36c-0.37-0.63-0.99-1.08-1.65-1.37
						C577.55,316.09,577.43,316.04,577.31,315.99z"/>
					<path class="st37" d="M572.82,326.72l-0.11-3.83c0,0-0.96-0.07-0.8-1.13c0.17-1.05,1.15-0.36,1.33-0.05
						c0,0,0.22-3.63,2.15-3.98s3.79,0.06,3.84,1c0.05,0.94,0.11,4.21,0,5.43c-0.11,1.22-1.06,1.72-2.82,1.67l0.12,1.97
						c0,0-0.88,0.65-3.34,0.05L572.82,326.72z"/>
					<path class="st39" d="M576.42,326.23c0,0,0.34-0.01,0.47,0.07c0.13,0.07,0.84,0.78,0.85,1.55c0.02,0.78-0.3,1.66-0.3,1.66
						l-1.59-1.44l-1,1.94c0,0-0.63-0.12-1.48-0.77c-0.86-0.65-1.37-1.61-1.37-1.61c0.28-0.7,0.46-1.12,0.46-1.12
						c0.07-0.16,0.37-0.24,0.37-0.24s1.7,1.54,3.03,1.62C575.85,327.91,576.32,327.68,576.42,326.23z"/>
					<path class="st37" d="M569.11,350.41c0,0,0.19,0.71,0.24,0.84c0.06,0.13,0.86,0.91,0.93,1.21c0.07,0.3-0.2,0.62-0.2,0.62
						s0.13,0.67,0.09,0.82s-0.67,0.19-0.73,0.24c-0.06,0.05-0.4,0.38-0.69,0.32c-0.28-0.06-1.06-0.13-1.17-0.21
						c-0.11-0.07-0.64-2.29-0.66-4.06c-0.01-0.66,0.22-13.93,0.22-13.93c0.18,0.04,2.89,1.08,2.89,1.08L569.11,350.41z"/>
					<path class="st39" d="M570.21,338.3c0.04-1.68,0.1-3.51,0.08-3.95c-0.07-1.5-0.07-5.73-2.35-4.37
						c-0.92,0.55-1.13,4.65-1.32,7.41C567.65,338.11,569.27,338.3,570.21,338.3z"/>
				</g>
			</g>
			<path class="st36" d="M579.33,319.21c0.22-0.41,0.15-0.94-0.1-1.34c-0.25-0.4-0.66-0.68-1.08-0.88c-1.05-0.51-4-1.07-4.08,0.76
				c-0.04,0.91,0.75,2.43,1.84,2.24c0.47-0.08,0.74-0.52,1.26-0.37c0.26,0.07,0.95,0.73,0.99,0.03
				C578.58,319.82,579.1,319.63,579.33,319.21z"/>
			<path class="st36" d="M572.62,320.96c0.54,0.45,0.9,1.12,0.98,1.82c0.12,0,0.24,0.01,0.37,0.01c-0.02-0.48,0.02-0.92,0-1.4
				c0.68-0.78,1-1.86,0.78-2.87c-0.09-0.41-0.33-0.87-0.75-0.91c-0.42-0.04-0.75,0.37-0.92,0.76
				C572.69,319.18,572.51,320.09,572.62,320.96z"/>
		</g>
		<linearGradient id="SVGID_59_" gradientUnits="userSpaceOnUse" x1="611.4442" y1="293.0287" x2="607.6084" y2="408.7425">
			<stop  offset="0.0373" style="stop-color:#93FFFD;stop-opacity:0"/>
			<stop  offset="0.6222" style="stop-color:#A5FDFE;stop-opacity:0.6076"/>
			<stop  offset="1" style="stop-color:#B2FBFF"/>
		</linearGradient>
		<path class="st82" d="M539.71,263.88c0.3,18.59,19.86,140.09,19.86,140.09l0.03-0.01c0.15,0.71,0.66,1.39,1.6,1.93l30.75,17.75
			c2.2,1.27,5.78,1.27,7.97,0l66.72-38.78c1.08-0.63,1.62-1.46,1.63-2.28l0,0c0,0,11.32-74.52,16.84-118.71H539.71z"/>
		<g>
			<g class="st1">
				<g>
					<path class="st41" d="M631.37,386.12c-0.43,0.25-0.78,0.05-0.78-0.45s0.34-1.1,0.78-1.35l3.81-2.2
						c0.43-0.25,0.78-0.05,0.78,0.45s-0.34,1.1-0.78,1.35L631.37,386.12 M612.17,393.42c-0.43,0.25-0.78,0.05-0.78-0.45
						c0-0.49,0.34-1.08,0.78-1.34l6.35-3.67c0.42-0.24,0.77-0.05,0.77,0.44c0,0.5-0.34,1.1-0.77,1.34L612.17,393.42 M612.16,389.66
						c-0.43,0.25-0.78,0.05-0.78-0.45s0.34-1.1,0.78-1.35l15.28-8.82c0.42-0.24,0.77-0.05,0.77,0.45c0,0.5-0.34,1.1-0.77,1.34
						L612.16,389.66 M630.46,379.1c-0.43,0.25-0.78,0.05-0.78-0.45c0-0.5,0.34-1.1,0.78-1.35l4.7-2.71
						c0.43-0.25,0.78-0.05,0.78,0.45c0,0.5-0.34,1.1-0.78,1.35L630.46,379.1 M639.07,381.67l-0.04-13.06l9.2-5.31l0.04,13.06
						L639.07,381.67 M612.15,385.89c-0.43,0.25-0.78,0.05-0.78-0.43c0-0.5,0.34-1.1,0.78-1.35l4.7-2.71
						c0.43-0.25,0.78-0.05,0.78,0.45c0,0.49-0.34,1.09-0.78,1.34L612.15,385.89 M619.87,381.43c-0.43,0.25-0.78,0.05-0.78-0.43
						c0-0.5,0.34-1.1,0.78-1.35l15.28-8.82c0.43-0.25,0.78-0.05,0.78,0.45c0,0.49-0.34,1.08-0.78,1.34L619.87,381.43 M612.13,378.36
						c-0.43,0.25-0.78,0.05-0.78-0.43c0-0.5,0.34-1.1,0.78-1.35l7.29-4.21c0.43-0.25,0.78-0.05,0.78,0.45
						c0,0.49-0.34,1.08-0.78,1.34L612.13,378.36 M612.12,374.59c-0.43,0.25-0.78,0.05-0.78-0.45c0-0.49,0.34-1.08,0.78-1.34
						l28.48-16.44c0.43-0.25,0.78-0.05,0.78,0.43c0,0.5-0.34,1.1-0.78,1.35L612.12,374.59 M643.62,356.41
						c-0.42,0.24-0.78,0.05-0.78-0.45c0-0.49,0.35-1.09,0.78-1.34l3.81-2.2c0.43-0.25,0.78-0.05,0.78,0.43c0,0.5-0.34,1.1-0.78,1.35
						L643.62,356.41 M612.11,370.83c-0.43,0.25-0.78,0.04-0.78-0.45c0-0.5,0.34-1.1,0.78-1.35l22.32-12.88
						c0.43-0.25,0.78-0.05,0.78,0.45c0,0.49-0.34,1.1-0.78,1.35L612.11,370.83 M637.82,355.99c-0.42,0.24-0.77,0.04-0.77-0.45
						c0-0.5,0.34-1.1,0.77-1.34l9.6-5.54c0.43-0.25,0.78-0.05,0.78,0.45c0,0.49-0.34,1.1-0.78,1.35L637.82,355.99 M612.1,367.06
						c-0.43,0.25-0.78,0.05-0.78-0.45c0-0.49,0.34-1.09,0.78-1.34l35.31-20.39c0.43-0.25,0.78-0.05,0.78,0.43
						c0,0.5-0.34,1.1-0.78,1.35L612.1,367.06 M611.62,361.59l-0.06-19.38l36.55-21.1l0.05,19.38L611.62,361.59 M652.45,311.44
						l-45.26,26.13c-1.22,0.71-2.21,2.42-2.21,3.82l0.18,63.39c0,1.4,1,1.97,2.22,1.27l45.26-26.13c1.22-0.71,2.21-2.42,2.21-3.82
						l-0.18-63.39C654.67,311.3,653.67,310.74,652.45,311.44"/>
					<polyline class="st25" points="648.12,321.1 611.57,342.2 611.62,361.59 648.18,340.48 648.12,321.1 					"/>
					<path class="st25" d="M647.41,344.89l-35.31,20.39c-0.43,0.25-0.78,0.85-0.78,1.34c0,0.5,0.35,0.7,0.78,0.45l35.31-20.39
						c0.43-0.25,0.78-0.85,0.78-1.35C648.19,344.84,647.84,344.64,647.41,344.89"/>
					<path class="st25" d="M634.42,356.16l-22.32,12.88c-0.43,0.25-0.78,0.85-0.78,1.35c0,0.49,0.35,0.7,0.78,0.45l22.32-12.88
						c0.43-0.25,0.78-0.86,0.78-1.35C635.2,356.11,634.85,355.91,634.42,356.16"/>
					<path class="st25" d="M647.42,348.65l-9.6,5.54c-0.42,0.24-0.77,0.84-0.77,1.34c0,0.49,0.35,0.7,0.77,0.45l9.6-5.54
						c0.43-0.25,0.78-0.86,0.78-1.35C648.2,348.6,647.85,348.4,647.42,348.65"/>
					<path class="st25" d="M640.59,356.37l-28.48,16.44c-0.43,0.25-0.78,0.85-0.78,1.34c0,0.5,0.35,0.7,0.78,0.45l28.48-16.44
						c0.43-0.25,0.78-0.85,0.78-1.35C641.37,356.32,641.03,356.12,640.59,356.37"/>
					<path class="st25" d="M647.43,352.43l-3.81,2.2c-0.42,0.24-0.78,0.85-0.78,1.34c0,0.5,0.36,0.69,0.78,0.45l3.81-2.2
						c0.43-0.25,0.78-0.85,0.78-1.35C648.21,352.37,647.86,352.18,647.43,352.43"/>
					<path class="st25" d="M619.41,372.37l-7.29,4.21c-0.43,0.25-0.78,0.85-0.78,1.35c0,0.49,0.35,0.68,0.78,0.43l7.29-4.21
						c0.43-0.25,0.78-0.85,0.78-1.34C620.19,372.32,619.85,372.12,619.41,372.37"/>
					<path class="st25" d="M635.16,374.59l-4.7,2.71c-0.43,0.25-0.78,0.85-0.78,1.35c0,0.5,0.35,0.7,0.78,0.45l4.7-2.71
						c0.43-0.25,0.78-0.85,0.78-1.35C635.94,374.54,635.59,374.34,635.16,374.59"/>
					<path class="st25" d="M627.44,379.05l-15.28,8.82c-0.43,0.25-0.78,0.85-0.78,1.35s0.35,0.7,0.78,0.45l15.28-8.82
						c0.42-0.24,0.77-0.84,0.77-1.34C628.21,379,627.86,378.8,627.44,379.05"/>
					<path class="st25" d="M635.18,382.12l-3.81,2.2c-0.43,0.25-0.78,0.85-0.78,1.35s0.35,0.7,0.78,0.45l3.81-2.2
						c0.43-0.25,0.78-0.85,0.78-1.35S635.61,381.87,635.18,382.12"/>
					<path class="st25" d="M618.52,387.97l-6.35,3.67c-0.43,0.25-0.78,0.85-0.78,1.34c0,0.5,0.35,0.7,0.78,0.45l6.35-3.67
						c0.42-0.24,0.77-0.84,0.77-1.34C619.29,387.93,618.95,387.73,618.52,387.97"/>
					<path class="st25" d="M616.85,381.4l-4.7,2.71c-0.43,0.25-0.78,0.85-0.78,1.35c0,0.49,0.35,0.68,0.78,0.43l4.7-2.71
						c0.43-0.25,0.78-0.85,0.78-1.34C617.63,381.34,617.28,381.15,616.85,381.4"/>
					<path class="st25" d="M635.15,370.83l-15.28,8.82c-0.43,0.25-0.78,0.85-0.78,1.35c0,0.49,0.35,0.68,0.78,0.43l15.28-8.82
						c0.43-0.25,0.78-0.85,0.78-1.34C635.93,370.78,635.58,370.58,635.15,370.83"/>
					<polyline class="st25" points="648.24,363.29 639.04,368.61 639.07,381.67 648.28,376.36 648.24,363.29 					"/>
				</g>
			</g>
		</g>
	</g>
	<g class="st0">
		<linearGradient id="SVGID_60_" gradientUnits="userSpaceOnUse" x1="242.4211" y1="277.4204" x2="242.737" y2="418.4943">
			<stop  offset="0.0373" style="stop-color:#93FFFD;stop-opacity:0"/>
			<stop  offset="0.6222" style="stop-color:#A5FDFE;stop-opacity:0.6076"/>
			<stop  offset="1" style="stop-color:#B2FBFF"/>
		</linearGradient>
		<polygon class="st83" points="172.01,258.53 172.01,413.26 242.71,454.12 313.09,413.26 313.09,258.53 		"/>
		<g>
			<g>
				<g class="st1">
					<g>
						<linearGradient id="SVGID_61_" gradientUnits="userSpaceOnUse" x1="253.7811" y1="346.1564" x2="231.3578" y2="409.56">
							<stop  offset="0" style="stop-color:#89DAF4"/>
							<stop  offset="1" style="stop-color:#008DD7"/>
						</linearGradient>
						<polygon class="st84" points="313.09,377.91 242.71,418.77 172.01,377.91 242.71,337.05 						"/>
					</g>
					<linearGradient id="SVGID_62_" gradientUnits="userSpaceOnUse" x1="242.7054" y1="475.7017" x2="313.0892" y2="475.7017">
						<stop  offset="0" style="stop-color:#144188"/>
						<stop  offset="0.9975" style="stop-color:#1A7CDE"/>
					</linearGradient>
					<polygon class="st85" points="313.09,377.91 313.09,532.64 242.71,573.5 242.71,418.77 					"/>
					<linearGradient id="SVGID_63_" gradientUnits="userSpaceOnUse" x1="172.0149" y1="475.702" x2="242.7054" y2="475.702">
						<stop  offset="0" style="stop-color:#144188"/>
						<stop  offset="0.998" style="stop-color:#102465"/>
					</linearGradient>
					<polygon class="st86" points="242.71,418.77 242.71,573.5 172.01,532.64 172.01,377.91 					"/>
				</g>
			</g>
			<polygon class="st22" points="242.71,427.5 313.09,386.64 313.09,384.94 242.71,425.8 			"/>
			<polygon class="st23" points="172.01,386.64 242.71,427.5 242.71,425.8 172.01,384.94 			"/>
		</g>
		<g>
			<path class="st87" d="M272.36,393.29c-4.09-2.36-10.71-2.37-14.78-0.01c-4.09,2.37-4.05,6.21,0.05,8.57
				c4.09,2.36,10.7,2.36,14.78-0.01C276.47,399.48,276.45,395.65,272.36,393.29z"/>
			<path class="st36" d="M272.59,419.28c0,0-0.53,0.07-0.63,0.27c-0.1,0.21-0.15,1.97-0.14,2.21c0,0,1.41,1.38,2.72,2.06
				c1.32,0.68,2.45,0.97,2.96,0.53s0.19-0.96-0.89-1.84s-2.13-3.24-2.13-3.23C274.48,419.28,272.59,419.28,272.59,419.28z"/>
			<path class="st36" d="M275.24,413.88c0,0-0.53-0.07-0.68,0.1c-0.15,0.17-0.65,1.87-0.7,2.1c0,0,1.01,1.7,2.11,2.68
				c1.1,0.99,2.13,1.56,2.73,1.26c0.61-0.3,0.43-0.87-0.39-2s-1.24-3.67-1.24-3.67C277.07,414.36,275.24,413.88,275.24,413.88z"/>
			<path class="st36" d="M257.75,391.8c-0.04,2.5,0.28,6.48,1.57,7.37c1.97,1.35,10.05,7.56,10.05,7.56l2.2,12.78
				c0,0,1.37,1.36,3.5,0c0,0-1.43-14.37-1.74-15.63c-0.31-1.26-7.78-9.38-7.78-9.38L257.75,391.8z"/>
			<path class="st36" d="M264.52,390.49c-0.68,2.41-1.15,5.26-0.05,6.38c1.19,1.21,13.45,4.87,13.45,4.87l-3.63,12.21
				c0,0,0.98,1.66,3.39,0.89c0,0,6.54-13.96,6.56-15.26s-12.35-7.29-12.35-7.29L264.52,390.49z"/>
			<g>
				<g>
					<g class="st1">
						<g>
							<path class="st88" d="M284.24,395.71l-12,6.97c0.04-0.02,0.06-0.07,0.06-0.13l12-6.97
								C284.3,395.64,284.27,395.69,284.24,395.71z"/>
						</g>
						<g>
							<polygon class="st88" points="272.29,402.3 284.3,395.32 284.3,395.58 272.29,402.56 							"/>
						</g>
						<g>
							<polygon class="st89" points="263.26,396.99 275.26,390.01 284.22,395.18 272.22,402.16 							"/>
						</g>
						<g>
							<path class="st36" d="M281.58,394.84c0.18,0.1,0.19,0.28,0,0.39l-9.02,5.24c-0.18,0.1-0.49,0.1-0.67,0l-3.41-1.97
								c-0.18-0.1-0.17-0.28,0.01-0.38l9.02-5.24c0.19-0.11,0.48-0.11,0.66-0.01L281.58,394.84z"/>
						</g>
						<path class="st89" d="M272.75,402.56l3.72-6.57l12-6.97l-3.72,6.57c-0.01,0.02-0.02,0.03-0.04,0.04l-12,6.97
							C272.72,402.59,272.74,402.58,272.75,402.56z"/>
						<g>
							<path class="st89" d="M276.18,395.15l0.1,0.11c0.2,0.23,0.28,0.56,0.18,0.73l-3.72,6.57c-0.14,0.3-0.54,0.18-0.65,0.11
								l-8.42-4.86c-0.23-0.13-0.41-0.45-0.41-0.71l0-0.12l8.96,5.17L276.18,395.15z"/>
						</g>
						<path class="st89" d="M276.18,395.15l12-6.97l0.1,0.11c0.2,0.23,0.28,0.56,0.18,0.73l-12,6.97c0.1-0.17,0.02-0.5-0.18-0.73
							L276.18,395.15z"/>
					</g>
				</g>
				<g>
					<path class="st36" d="M275.09,393.08c0.08,0.05,0.08,0.12,0,0.17l-2.98,1.73c-0.08,0.05-0.21,0.05-0.29,0l-1.49-0.86
						c-0.08-0.05-0.08-0.12,0-0.17l2.98-1.73c0.08-0.05,0.21-0.05,0.29,0L275.09,393.08z"/>
				</g>
			</g>
			<path class="st37" d="M270.14,379.95c0,0,1.32,3.35,1.59,4.26c0.27,0.91,3.38,6.39,3.56,6.67s2.47,2.1,2.47,2.38
				c0,0.27-0.18,0.79-0.91,0.88c-0.73,0.08-2.7-1.34-2.7-1.34s-0.5,1.26-0.71-0.25c-0.21-1.52,0.38-1.28-0.12-2.06
				c0,0-3.29-2.2-4.06-5.04c-0.78-2.83-0.09-5.21-0.09-5.21L270.14,379.95z"/>
			<path class="st89" d="M271.13,380.47c-0.61-2.81-1.88-6.49-3.08-6.64l1.11,8.03C269.15,381.86,270.27,381.5,271.13,380.47z"/>
			<path class="st89" d="M260.5,374.72c0,0-2.06,0.76-3.88,2.25l1.14,16c0,0,2.37,1.74,7.23,0.47c3.95-1.03,4.99-2.7,4.99-2.7
				s0.36-7.84-0.01-11.66c-0.37-3.81-1.92-5.26-1.92-5.26c-0.86-0.26-2.77-0.15-2.77-0.15L260.5,374.72z"/>
			<path class="st36" d="M265.86,363.85c0,0-2.56-0.63-5.05,0.31c-2.49,0.93-1.04,4.49-0.3,6.16c0.73,1.67,1.24,1.07,1.24,1.07
				l5.43-2.19c0,0,0.16-0.17,0.06-2.44C267.14,364.48,265.86,363.85,265.86,363.85z"/>
			<path class="st37" d="M261.3,373.84l-0.11-3.68c0,0-0.93-0.07-0.77-1.08c0.16-1.01,1.11-0.35,1.27-0.05c0,0,0.21-3.49,2.06-3.82
				c1.85-0.33,3.64,0.06,3.69,0.96c0.05,0.9,0.11,4.04,0,5.21c-0.11,1.17-1.02,1.65-2.71,1.6l0.12,1.89c0,0-0.85,0.62-3.21,0.04
				L261.3,373.84z"/>
			<path class="st36" d="M264.76,373.37c0,0,0.32-0.01,0.45,0.07c0.13,0.07,0.8,0.75,0.82,1.49c0.02,0.74-0.29,1.6-0.29,1.6
				l-1.53-1.38l-0.96,1.86c0,0-0.6-0.12-1.42-0.74c-0.82-0.62-1.32-1.54-1.32-1.54c0.26-0.67,0.44-1.07,0.44-1.07
				c0.06-0.15,0.35-0.23,0.35-0.23s1.63,1.48,2.91,1.55C264.21,374.98,264.66,374.76,264.76,373.37z"/>
			<path class="st89" d="M257.55,385.27c0.49-1.24,1.57-4.25,1.27-5.83c-0.38-2.02-2.2-2.47-2.2-2.47c-0.76,0.87-1.87,3.75-2.6,6.15
				C255.2,383.82,256.36,384.57,257.55,385.27z"/>
			<path class="st36" d="M269.45,364.66c-0.11-0.35-0.28-0.69-0.52-0.98c-1.24-1.52-3.04-0.63-4.64-0.91
				c-0.39-0.07-0.71-0.25-1.12-0.27c-0.98-0.04-2.06,0.49-2.46,1.42c-0.07,0.16-0.14,0.34-0.2,0.52c-0.1,0.28-0.17,0.58-0.17,0.86
				c-0.01,0.61,0.27,1.18,0.33,1.78c0.09,0.87,0.59,1.8,1.06,2.62c0.14-0.04,0.29-0.08,0.43-0.12c-0.04-0.38,0.08-0.8,0.25-1.16
				c0.27-0.58,0.53-1.21,0.19-1.82c0.95,0.49,1.12,0.55,2.23,0.34c0.69-0.13,1.37,0.21,2.02,0.48c0.65,0.27,1.44,0.46,2.02,0.07
				c0.45-0.3,0.65-0.87,0.71-1.4C269.63,365.63,269.59,365.13,269.45,364.66z"/>
			<path class="st37" d="M255.11,383.78c0,0-0.83,4.24-0.1,5.09c0.73,0.85,7.68,4.99,8.25,5.59c0.57,0.59,2.49,2.24,3.78,2.21
				c1.29-0.03,1.95,1.19,2.59,1.31c0.65,0.12,0.55-1.54,0.36-2.18c-0.23-0.76-1.78-0.9-1.78-0.9s1.67-0.82-0.95-0.48l-1.52-0.25
				l-7.67-7.35l0.15-1.26L255.11,383.78z"/>
		</g>
		<g class="st90">
			<path class="st40" d="M222.1,364.92l-0.02-7.35l5-2.89l0.02,7.35L222.1,364.92 M241.13,353.93l-0.03-11.06l5-2.89l0.03,11.06
				L241.13,353.93 M222.08,357.57l-0.01-4.55l5-2.89l0.01,4.55L222.08,357.57 M231.62,359.42l-0.04-12.88l4.99-2.88l0.04,12.88
				L231.62,359.42 M250.64,348.44L250.59,331l5-2.89l0.05,17.43L250.64,348.44 M241.1,342.86l-0.02-6.85l5-2.89l0.02,6.85
				L241.1,342.86 M231.58,346.54l-0.02-7.98l4.99-2.88l0.02,7.98L231.58,346.54 M250.59,331l-0.03-10.79l5-2.89l0.03,10.79
				L250.59,331 M218.39,371.79c-0.22,0.13-0.4,0.03-0.4-0.22l-0.1-34.73c0-0.26,0.18-0.57,0.4-0.69c0.22-0.13,0.4-0.02,0.4,0.23
				l0.1,34.27l43.73-25.25c0.22-0.13,0.4-0.03,0.4,0.23c0,0.25-0.18,0.56-0.4,0.69L218.39,371.79 M226.99,326.38
				c-0.44,0.25-0.8,0.05-0.8-0.46c0-0.51,0.35-1.12,0.8-1.38l12.76-7.37c0.44-0.25,0.8-0.05,0.8,0.46c0,0.51-0.36,1.12-0.8,1.38
				L226.99,326.38 M242.46,317.45c-0.44,0.25-0.8,0.05-0.8-0.46c0-0.51,0.35-1.12,0.8-1.38l2.94-1.7c0.44-0.25,0.8-0.05,0.8,0.46
				c0,0.51-0.35,1.12-0.8,1.38L242.46,317.45 M218.28,331.58l-0.01-2.16l4.79-2.76l0.01,2.16L218.28,331.58 M235.51,316.87
				c-0.22,0.13-0.42,0.14-0.57,0.06c-0.15-0.08-0.23-0.27-0.23-0.51l0.02-0.19l0.04-0.19l0.08-0.21l0.1-0.19
				c0.15-0.26,0.36-0.46,0.57-0.58c0.21-0.12,0.42-0.16,0.57-0.08l0.1,0.08l0.07,0.12l0.05,0.14l0.01,0.18
				c0,0.24-0.08,0.52-0.23,0.78C235.93,316.52,235.73,316.74,235.51,316.87 M226.98,321.79c-0.44,0.25-0.8,0.05-0.8-0.46
				c0-0.51,0.35-1.12,0.8-1.38l6.18-3.57c0.44-0.25,0.8-0.05,0.8,0.46c0,0.51-0.35,1.12-0.8,1.38L226.98,321.79 M237.98,315.44
				c-0.44,0.25-0.8,0.05-0.8-0.46c0-0.51,0.36-1.12,0.8-1.38l7.41-4.28c0.44-0.25,0.8-0.05,0.8,0.46c0,0.51-0.35,1.12-0.8,1.38
				L237.98,315.44 M218.27,326.98l-0.01-2.16l4.79-2.76l0.01,2.16L218.27,326.98 M265.94,290.82l-51.89,29.96
				c-1.33,0.77-2.4,2.63-2.39,4.14l0.16,55.05c0,1.52,1.08,2.13,2.41,1.37l51.89-29.96c1.33-0.77,2.4-2.62,2.39-4.14l-0.16-55.05
				C268.35,290.67,267.27,290.05,265.94,290.82"/>
			<path class="st25" d="M218.29,336.15c-0.22,0.13-0.4,0.44-0.4,0.69l0.1,34.73c0,0.25,0.18,0.35,0.4,0.22l44.13-25.48
				c0.22-0.13,0.4-0.44,0.4-0.69c0-0.26-0.18-0.36-0.4-0.23l-43.73,25.25l-0.1-34.27C218.69,336.12,218.51,336.02,218.29,336.15"/>
			<polyline class="st38" points="227.07,354.68 222.08,357.57 222.1,364.92 227.1,362.03 227.07,354.68 			"/>
			<polyline class="st38" points="236.57,343.66 231.58,346.54 231.62,359.42 236.61,356.54 236.57,343.66 			"/>
			<polyline class="st38" points="246.1,339.98 241.1,342.86 241.13,353.93 246.13,351.04 246.1,339.98 			"/>
			<polyline class="st38" points="255.59,328.12 250.59,331 250.64,348.44 255.64,345.55 255.59,328.12 			"/>
			<polyline class="st25" points="227.06,350.13 222.06,353.02 222.08,357.57 227.07,354.68 227.06,350.13 			"/>
			<polyline class="st25" points="236.55,335.67 231.56,338.56 231.58,346.54 236.57,343.66 236.55,335.67 			"/>
			<polyline class="st25" points="246.08,333.13 241.08,336.01 241.1,342.86 246.1,339.98 246.08,333.13 			"/>
			<polyline class="st25" points="255.56,317.33 250.56,320.21 250.59,331 255.59,328.12 255.56,317.33 			"/>
			<polyline class="st38" points="223.05,322.06 218.26,324.83 218.27,326.98 223.06,324.22 223.05,322.06 			"/>
			<polyline class="st38" points="223.06,326.65 218.27,329.42 218.28,331.58 223.07,328.81 223.06,326.65 			"/>
			<path class="st25" d="M233.16,316.39l-6.18,3.57c-0.44,0.25-0.8,0.87-0.8,1.38c0,0.51,0.36,0.71,0.8,0.46l6.18-3.57
				c0.44-0.25,0.8-0.87,0.8-1.38C233.96,316.34,233.6,316.13,233.16,316.39"/>
			<path class="st25" d="M235.51,315.04c-0.21,0.12-0.42,0.33-0.57,0.58l-0.1,0.19l-0.08,0.21l-0.04,0.19l-0.02,0.19
				c0,0.24,0.08,0.43,0.23,0.51c0.15,0.08,0.35,0.07,0.57-0.06c0.22-0.13,0.41-0.34,0.57-0.6c0.15-0.25,0.23-0.54,0.23-0.78
				l-0.01-0.18l-0.05-0.14l-0.07-0.12l-0.1-0.08C235.92,314.89,235.72,314.92,235.51,315.04"/>
			<path class="st25" d="M245.38,309.33l-7.41,4.28c-0.44,0.25-0.8,0.87-0.8,1.38c0,0.51,0.36,0.71,0.8,0.46l7.41-4.28
				c0.44-0.25,0.8-0.87,0.8-1.38C246.18,309.28,245.82,309.07,245.38,309.33"/>
			<path class="st25" d="M239.75,317.18l-12.76,7.37c-0.44,0.25-0.8,0.87-0.8,1.38c0,0.51,0.36,0.71,0.8,0.46l12.76-7.37
				c0.44-0.25,0.8-0.87,0.8-1.38C240.55,317.13,240.19,316.93,239.75,317.18"/>
			<path class="st25" d="M245.4,313.92l-2.94,1.7c-0.44,0.25-0.8,0.87-0.8,1.38c0,0.51,0.36,0.71,0.8,0.46l2.94-1.7
				c0.44-0.25,0.8-0.87,0.8-1.38C246.2,313.87,245.84,313.67,245.4,313.92"/>
		</g>
	</g>
	<g class="st0">
		<g>
			<g class="st1">
				<g>
					<linearGradient id="SVGID_64_" gradientUnits="userSpaceOnUse" x1="95.1773" y1="432.5468" x2="91.6783" y2="442.4404">
						<stop  offset="0" style="stop-color:#89DAF4"/>
						<stop  offset="1" style="stop-color:#008DD7"/>
					</linearGradient>
					<polygon class="st91" points="104.43,437.5 93.45,443.88 82.42,437.5 93.45,431.13 					"/>
				</g>
				<linearGradient id="SVGID_65_" gradientUnits="userSpaceOnUse" x1="93.449" y1="518.8093" x2="104.4318" y2="518.8093">
					<stop  offset="0" style="stop-color:#144188"/>
					<stop  offset="0.9975" style="stop-color:#1A7CDE"/>
				</linearGradient>
				<polygon class="st92" points="104.43,437.5 104.43,593.74 93.45,600.12 93.45,443.88 				"/>
				<linearGradient id="SVGID_66_" gradientUnits="userSpaceOnUse" x1="82.4183" y1="518.8094" x2="93.449" y2="518.8094">
					<stop  offset="0" style="stop-color:#144188"/>
					<stop  offset="0.998" style="stop-color:#102465"/>
				</linearGradient>
				<polygon class="st93" points="93.45,443.88 93.45,600.12 82.42,593.74 82.42,437.5 				"/>
			</g>
		</g>
		<linearGradient id="SVGID_67_" gradientUnits="userSpaceOnUse" x1="93.7738" y1="461.0492" x2="93.1781" y2="554.2634">
			<stop  offset="0" style="stop-color:#0044AE;stop-opacity:0"/>
			<stop  offset="0.0605" style="stop-color:#0044AE;stop-opacity:0.0745"/>
			<stop  offset="0.812" style="stop-color:#0044AE"/>
		</linearGradient>
		<polygon class="st94" points="93.45,431.13 82.42,437.5 82.42,593.74 93.45,600.12 104.43,593.74 104.43,437.5 		"/>
	</g>
</g>
</svg>
