<svg id="Calque_1" data-name="Calque 1" xmlns="http://www.w3.org/2000/svg" viewBox="0 0 94.4 41.93"><defs><style>.cls-1{isolation:isolate;}.cls-2{fill:#bbbdbf;}.cls-3{fill:#a6a8ab;}.cls-4{fill:#e6e7e8;}.cls-5{fill:#fff;}.cls-6{fill:#231f20;}</style></defs><title>isometric2</title><g class="cls-1"><polygon class="cls-2" points="65.86 40.09 59.36 36.1 58.57 29.7 65.07 33.69 65.86 40.09"/><polygon class="cls-3" points="59.97 29.62 53.47 25.62 57.94 24.91 64.45 28.91 59.97 29.62"/><polygon class="cls-2" points="64.45 28.91 57.94 24.91 55.77 7.06 62.28 11.06 64.45 28.91"/><polygon class="cls-4" points="59.09 5.19 52.58 1.2 59.37 0.12 65.88 4.12 59.09 5.19"/><polygon class="cls-2" points="54.3 41.93 47.79 37.93 52.58 1.2 59.09 5.19 54.3 41.93"/><path class="cls-5" d="M66.48,4.12l4.67,35.23-4.68.74-.79-6.4-5.7.9-.82,6.66-4.26.68L59.69,5.19Zm-5.9,25.5,4.47-.71L62.89,11.06H62.8L60.58,29.62" transform="translate(-0.6)"/></g><g class="cls-1"><path class="cls-2" d="M38.56,35.63l-6.51-4c1.56-.24,2.41-1.25,2.41-3.93l6.51,4C41,34.37,40.12,35.38,38.56,35.63Z" transform="translate(-0.6)"/><polygon class="cls-2" points="40.37 31.7 33.86 27.7 33.86 24.57 40.37 28.56 40.37 31.7"/><polygon class="cls-3" points="35.3 36.05 28.79 32.05 31.45 31.63 37.95 35.63 35.3 36.05"/><path class="cls-6" d="M36.63,17.52l6.51,4a4.47,4.47,0,0,0-1-.43l-6.51-4A4.5,4.5,0,0,1,36.63,17.52Z" transform="translate(-0.6)"/><path class="cls-2" d="M33.35,20.88l6.51,4c.77.48,1.12,1.61,1.11,3.69l-6.5-4C34.47,22.48,34.13,21.35,33.35,20.88Z" transform="translate(-0.6)"/><path class="cls-2" d="M37.74,19.57l-6.51-4C33,15.3,34,14.21,34,11.33l6.51,4C40.53,18.2,39.47,19.29,37.74,19.57Z" transform="translate(-0.6)"/><polygon class="cls-2" points="39.93 15.32 33.42 11.33 33.43 9.32 39.93 13.32 39.93 15.32"/><polygon class="cls-3" points="35.32 19.86 28.82 15.86 30.63 15.57 37.14 19.57 35.32 19.86"/><path class="cls-2" d="M33,6.18l6.51,4c.69.42,1,1.44,1,3.14L34,9.32C34,7.62,33.72,6.6,33,6.18Z" transform="translate(-0.6)"/><path class="cls-4" d="M36.22,1.39l6.51,4a6.41,6.41,0,0,0-4.42-.55l-6.5-4A6.33,6.33,0,0,1,36.22,1.39Z" transform="translate(-0.6)"/><polygon class="cls-2" points="30.64 41.93 24.14 37.93 24.2 1.95 30.7 5.94 30.64 41.93"/><path class="cls-5" d="M42.17,21.08c2.49.78,3.45,3.3,3.45,7.11v2.93c0,5.55-2.42,8.91-7.06,9.65l-7.3,1.16.06-36,7-1.11c4.81-.76,6.88,1.63,6.87,7.19V13.3c0,3.7-.94,6.16-3,7.67ZM41,31.7V28.56c0-3.34-.88-4.23-3-3.89L35.92,25l0,11,2.66-.42c1.56-.25,2.4-1.26,2.41-3.93m-5-21.35,0,9.51,1.82-.29c1.73-.28,2.79-1.37,2.79-4.25v-2c0-2.57-.72-3.59-2.36-3.33l-2.24.36" transform="translate(-0.6)"/><polygon class="cls-4" points="30.7 5.94 24.2 1.95 31.2 0.84 37.71 4.83 30.7 5.94"/></g><g class="cls-1"><polygon class="cls-3" points="86.73 21.19 80.22 17.2 86.22 16.25 92.72 20.24 86.73 21.19"/><polygon class="cls-2" points="82.06 41.93 75.55 37.93 75.61 1.95 82.11 5.94 82.06 41.93"/><polygon class="cls-4" points="82.11 5.94 75.61 1.95 87.89 0 94.4 4 82.11 5.94"/><polygon class="cls-5" points="94.4 4 94.39 9.13 86.75 10.35 86.73 21.19 92.72 20.24 92.72 25.38 86.72 26.33 86.7 41.19 82.06 41.93 82.11 5.94 94.4 4"/></g><g class="cls-1"><path class="cls-3" d="M12.76,36.41l-6.51-4a2,2,0,0,0,1.4.2c1.47-.23,2.4-1.31,2.41-3.88l6.5,4c0,2.57-.93,3.64-2.41,3.88A2,2,0,0,1,12.76,36.41Z" transform="translate(-0.6)"/><polygon class="cls-3" points="15.96 32.73 9.46 28.73 9.47 22.1 15.97 26.1 15.96 32.73"/><polygon class="cls-2" points="13.86 26.43 7.36 22.44 7.36 17.3 13.87 21.29 13.86 26.43"/><polygon class="cls-4" points="13.87 21.29 7.36 17.3 13.86 16.27 20.37 20.26 13.87 21.29"/><path class="cls-2" d="M9.94,41.21l-6.51-4C1.55,36.06.6,33.55.6,29.87l6.51,4C7.1,37.54,8.06,40.06,9.94,41.21Z" transform="translate(-0.6)"/><polygon class="cls-2" points="15.99 17.15 9.48 13.16 9.49 9.3 15.99 13.3 15.99 17.15"/><path class="cls-2" d="M9.06,6.34l6.51,4c.66.4,1,1.33,1,3l-6.51-4C10.09,7.67,9.72,6.74,9.06,6.34Z" transform="translate(-0.6)"/><path class="cls-4" d="M11.65,1.62l6.51,4A5.85,5.85,0,0,0,14.08,5L7.57,1A5.85,5.85,0,0,1,11.65,1.62Z" transform="translate(-0.6)"/><polygon class="cls-2" points="6.51 33.87 0 29.87 0.03 11.16 6.54 15.16 6.51 33.87"/><path class="cls-5" d="M14.08,5C18.64,4.29,21,7.2,21,13v3.5l-4.39.69V13.3c0-2.57-.93-3.4-2.4-3.17s-2.41,1.36-2.42,3.93l0,19.43c0,2.57.93,3.35,2.4,3.12s2.41-1.31,2.41-3.88l0-6.63-2.12.33V21.29l6.5-1,0,11.41c0,5.76-2.37,9.42-6.93,10.15s-6.92-2.19-6.91-8l0-18.71C7.15,9.4,9.52,5.73,14.08,5Z" transform="translate(-0.6)"/><path class="cls-2" d="M7.14,15.16l-6.51-4C.64,5.4,3,1.74,7.57,1l6.51,4C9.52,5.73,7.15,9.4,7.14,15.16Z" transform="translate(-0.6)"/></g></svg>