<svg id="Calque_1" data-name="Calque 1" xmlns="http://www.w3.org/2000/svg" viewBox="0 0 499.64 390.39"><defs><style>.cls-1,.cls-21{fill:#d6d8e5;}.cls-1,.cls-20{opacity:0.4;}.cls-1,.cls-7{isolation:isolate;}.cls-2{fill:#b1b4c4;}.cls-3{fill:#616e84;}.cls-4{fill:#20232d;}.cls-5,.cls-7{fill:#fff;}.cls-6{fill:#2b303f;}.cls-7{opacity:0.1;}.cls-8{fill:#757b89;}.cls-9{fill:#d3d3dd;}.cls-10{fill:#e0dee9;}.cls-11{fill:#eaeaf4;}.cls-12{fill:#2a313f;}.cls-13{fill:#ff2c2c;}.cls-14{fill:#d5d7e2;}.cls-15{fill:#ffcea9;}.cls-16{fill:#ededed;}.cls-17{fill:#6b1a1a;}.cls-18{fill:#9c73ff;}.cls-19{fill:#f4f4f4;}.cls-22{fill:#e9eaf4;}.cls-23{fill:#3a4151;}.cls-24{fill:#323944;}</style></defs><title>security</title><g id="Слой_2" data-name="Слой 2"><g id="Слой_1-2" data-name="Слой 1-2"><path class="cls-1" d="M349.27,322.2l-96.42-55.52a3.55,3.55,0,0,1,.14-6.24l12.13-6.26a3.59,3.59,0,0,1,3.41.08l99.66,57.39a3.56,3.56,0,0,1-.14,6.25l-8.8,4.53A10.4,10.4,0,0,1,349.27,322.2Z" transform="translate(0 0.04)"/><path class="cls-2" d="M355.18,311.75,273,264.31c-7-4-12.61-14.8-12.61-24.08V11c0-9.28,5.65-13.55,12.61-9.53L355.18,49c7,4,12.61,14.8,12.61,24.08v229.2C367.79,311.51,362.14,315.77,355.18,311.75Z" transform="translate(0 0.04)"/><polygon class="cls-2" points="356.59 315.92 363.1 312.63 356.86 301.93 356.59 315.92"/><polygon class="cls-2" points="259.14 3.84 265.13 0.7 263.92 9.53 259.14 3.84"/><path class="cls-3" d="M350,314.37l-82.17-47.44c-7-4-12.6-14.8-12.6-24.08V13.66c0-9.28,5.64-13.55,12.6-9.53L350,51.57c7,4,12.6,14.8,12.6,24.08v229.2C362.55,314.13,356.91,318.39,350,314.37Z" transform="translate(0 0.04)"/><path class="cls-4" d="M361.67,76.24V305.42c0,9.29-5.64,13.55-12.6,9.54l-32.22-18.61-10-5.78-40-23.05c-7-4-12.6-14.8-12.6-24.09V14.25C254.3,5,259.94.7,266.9,4.71l82.17,47.44C356,56.17,361.67,67,361.67,76.24Z" transform="translate(0 0.04)"/><path class="cls-5" d="M355.75,73.91V297.13c0,5.62-3.95,7.91-8.82,5.09l-25.69-14.83L319,286.08l-.76-.44-5.55-3.21-16.07-9.26h0L290,269.32l-2.68-1.55L269,257.26c-4.87-2.81-8.81-9.66-8.81-15.28V18.76c0-5.63,3.94-7.91,8.81-5.1l32.08,18.53v.09A15.2,15.2,0,0,0,308,44.17c3.8,2.17,6.88.41,6.88-4v-.1L347,58.6C351.8,61.44,355.75,68.28,355.75,73.91Z" transform="translate(0 0.04)"/><ellipse class="cls-6" cx="309.22" cy="38.83" rx="2.14" ry="3.69" transform="translate(21.77 159.28) rotate(-29.89)"/><path class="cls-7" d="M308,39.93A2.42,2.42,0,0,1,306.9,38c0-.7.49-1,1.09-.63a2.39,2.39,0,0,1,1.09,1.89C309.08,40,308.59,40.28,308,39.93Z" transform="translate(0 0.04)"/><path class="cls-8" d="M365,106.39h0c-.67.39-1.22,0-1.22-.92V95.7A2.94,2.94,0,0,1,365,93.38h0c.67-.38,1.21,0,1.21.92v9.77A2.9,2.9,0,0,1,365,106.39Z" transform="translate(0 0.04)"/><path class="cls-8" d="M365,122.4h0c-.67.39-1.22,0-1.22-.91v-9.78a2.94,2.94,0,0,1,1.22-2.32h0c.67-.38,1.21,0,1.21.92v9.77A2.9,2.9,0,0,1,365,122.4Z" transform="translate(0 0.04)"/><polygon class="cls-1" points="172.46 258.98 86.51 308.93 0 258.98 85.95 209.03 172.46 258.98"/><polygon class="cls-9" points="179.09 247.3 179.07 255.89 93.12 305.84 93.14 297.24 179.09 247.3"/><polygon class="cls-10" points="93.14 297.24 93.12 305.84 6.61 255.89 6.63 247.3 93.14 297.24"/><polygon class="cls-11" points="179.09 247.3 93.14 297.24 6.63 247.3 92.58 197.35 179.09 247.3"/><polygon class="cls-9" points="165.69 117.04 165.32 245.97 92.98 288.01 93.35 159.08 165.69 117.04"/><polygon class="cls-10" points="93.35 159.08 92.98 288.01 20.17 245.97 20.53 117.04 93.35 159.08"/><polygon class="cls-11" points="165.69 117.04 93.35 159.08 20.53 117.04 92.87 75 165.69 117.04"/><polygon class="cls-12" points="39.3 173.41 39.26 186.78 27.64 180.07 27.67 166.7 39.3 173.41"/><polygon class="cls-12" points="39.35 154.82 39.32 168.18 27.69 161.47 27.73 148.11 39.35 154.82"/><polygon class="cls-12" points="39.41 136.22 39.37 149.59 27.74 142.88 27.78 129.51 39.41 136.22"/><polygon class="cls-12" points="86.28 219.17 86.25 232.54 44.53 208.45 44.56 195.08 86.28 219.17"/><polygon class="cls-12" points="86.34 200.57 86.3 213.94 44.58 189.85 44.62 176.48 86.34 200.57"/><polygon class="cls-12" points="86.39 181.98 86.35 195.34 44.63 171.25 44.67 157.89 86.39 181.98"/><polygon class="cls-12" points="86.44 163.38 86.4 176.75 44.69 152.66 44.72 139.29 86.44 163.38"/><polygon class="cls-12" points="39.2 210.6 39.16 223.97 27.53 217.26 27.57 203.89 39.2 210.6"/><polygon class="cls-12" points="39.25 192.01 39.21 205.38 27.58 198.67 27.62 185.3 39.25 192.01"/><polygon class="cls-12" points="86.23 237.76 86.19 251.13 44.47 227.04 44.51 213.67 86.23 237.76"/><polygon class="cls-12" points="111.71 175.41 111.75 188.78 100.12 195.49 100.08 182.12 111.71 175.41"/><polygon class="cls-12" points="111.66 156.81 111.7 170.18 100.06 176.89 100.03 163.53 111.66 156.81"/><polygon class="cls-12" points="158.9 204.04 158.94 217.4 117.22 241.49 117.18 228.13 158.9 204.04"/><polygon class="cls-12" points="158.85 185.45 158.88 198.81 117.17 222.9 117.13 209.53 158.85 185.45"/><polygon class="cls-12" points="158.79 166.85 158.83 180.21 117.11 204.3 117.07 190.94 158.79 166.85"/><polygon class="cls-12" points="158.74 148.26 158.78 161.62 117.06 185.71 117.02 172.34 158.74 148.26"/><polygon class="cls-12" points="158.69 129.66 158.73 143.02 117.01 167.11 116.97 153.74 158.69 129.66"/><polygon class="cls-12" points="111.87 231.2 111.91 244.56 100.27 251.27 100.24 237.91 111.87 231.2"/><polygon class="cls-12" points="111.82 212.6 111.86 225.97 100.22 232.68 100.18 219.31 111.82 212.6"/><polygon class="cls-12" points="111.76 194.01 111.8 207.37 100.17 214.08 100.13 200.72 111.76 194.01"/><polygon class="cls-13" points="165.35 235.57 165.32 245.97 92.99 288.01 93.01 277.36 165.35 235.57"/><polygon class="cls-13" points="93.01 277.36 92.98 288.01 20.17 245.97 20.2 235.32 93.01 277.36"/><path class="cls-12" d="M92.53,118.71h.82l4.14,2.38a15.74,15.74,0,0,1-9.07,0Z" transform="translate(0 0.04)"/><path class="cls-12" d="M74.55,103.55c10.55-5.1,26-5.1,36.61,0l-3.73,2.17c-8.52-3.93-20.66-3.93-29.12,0Z" transform="translate(0 0.04)"/><path class="cls-12" d="M81,107.24a31.68,31.68,0,0,1,23.86,0l-3.76,2.18a23.5,23.5,0,0,0-16.32,0Z" transform="translate(0 0.04)"/><path class="cls-12" d="M88.36,111.52a15.61,15.61,0,0,1,9.08,0l-4.11,2.39a5.89,5.89,0,0,0-.84,0Z" transform="translate(0 0.04)"/><path class="cls-12" d="M97.06,116.55a1.93,1.93,0,0,0,0-.48l4.11-2.39a3.55,3.55,0,0,1,.24,5,2.72,2.72,0,0,1-.24.24Z" transform="translate(0 0.04)"/><path class="cls-12" d="M104.84,121c3.35-2.83,3.33-6.61,0-9.45l3.76-2.18c5.39,4.06,5.42,9.76.07,13.82Z" transform="translate(0 0.04)"/><path class="cls-12" d="M81,111.58c-3.35,2.84-3.32,6.62.06,9.45l-3.76,2.19c-5.39-4.06-5.42-9.76-.08-13.82Z" transform="translate(0 0.04)"/><path class="cls-12" d="M111.26,124.74c6.75-4.91,6.7-11.95-.09-16.86l3.73-2.17c8.83,6.12,8.89,15.08.12,21.2Z" transform="translate(0 0.04)"/><path class="cls-12" d="M78.43,126.9c8.51,3.92,20.65,3.92,29.12,0l3.75,2.17c-10.54,5.1-26,5.1-36.6,0Z" transform="translate(0 0.04)"/><path class="cls-12" d="M74.59,107.88c-6.74,4.91-6.7,11.94.1,16.86L71,126.91c-8.84-6.12-8.89-15.08-.13-21.2Z" transform="translate(0 0.04)"/><path class="cls-12" d="M84.81,123.19a23.47,23.47,0,0,0,16.31,0l3.79,2.19a31.68,31.68,0,0,1-23.86,0Z" transform="translate(0 0.04)"/><path class="cls-12" d="M88.78,116.07a1.93,1.93,0,0,0,0,.48l-4.11,2.39a3.56,3.56,0,0,1-.23-5,2.5,2.5,0,0,1,.23-.23Z" transform="translate(0 0.04)"/><path class="cls-14" d="M334,203.88a8.77,8.77,0,0,1,4,6.88v6.81c0,2.53-1.8,3.55-4,2.27l-54.44-31.42a8.77,8.77,0,0,1-4-6.88v-6.81c0-2.53,1.81-3.55,4-2.28Z" transform="translate(0 0.04)"/><ellipse class="cls-1" cx="219.44" cy="336.98" rx="37.97" ry="21.92"/><g id="Men_2" data-name="Men 2"><path class="cls-15" d="M188,166.22c-.45,3.92-5.13,20.84-4.13,26.63s17,15.5,17,15.5l2.22-9.93-8.86-8.67,2.4-16.43Z" transform="translate(0 0.04)"/><path class="cls-16" d="M200.35,149.54a7,7,0,0,0-8.9,2.69c-2.35,3.9-4.79,17.26-5,19.54,0,0,3.3,4.56,8.25,3.8Z" transform="translate(0 0.04)"/><path class="cls-17" d="M218.61,338.19A13.65,13.65,0,0,0,229,336.94c2.5.08,16-5.71,17.86-.85,1.61,4.26-4.25,8.2-7.38,9-6.83,1.65-11.88,5.06-14.63,5.64-2,.43-4.69.71-6.32-.89C216.53,347.87,216.7,340.73,218.61,338.19Z" transform="translate(0 0.04)"/><path class="cls-18" d="M224.8,349.51c2.75-.58,7.8-4,14.63-5.64,2.63-.64,7.15-3.51,7.6-6.93.61,3.92-4.68,7.4-7.6,8.11-6.83,1.65-11.88,5.06-14.63,5.64-2,.43-4.69.71-6.32-.89a4,4,0,0,1-.89-1.64A8.13,8.13,0,0,0,224.8,349.51Z" transform="translate(0 0.04)"/><path class="cls-17" d="M196.67,328.34A13.69,13.69,0,0,0,207,327.09c2.5.08,16-5.72,17.86-.85,1.61,4.26-4.24,8.2-7.37,9-6.84,1.65-11.89,5.06-14.64,5.64-2,.43-4.69.71-6.32-.9C194.59,338,194.76,330.88,196.67,328.34Z" transform="translate(0 0.04)"/><path class="cls-18" d="M202.86,339.66c2.75-.58,7.8-4,14.64-5.64,2.62-.64,7.14-3.51,7.59-6.93.61,3.92-4.67,7.4-7.59,8.11-6.84,1.65-11.89,5.06-14.64,5.64-2,.43-4.69.71-6.32-.9a3.89,3.89,0,0,1-.89-1.63A8.13,8.13,0,0,0,202.86,339.66Z" transform="translate(0 0.04)"/><path class="cls-13" d="M196.4,291.59a82.24,82.24,0,0,1,3.12-14.82s-.93-12.78-1.39-24.9c-.53-13.76-5.31-25.87-1.54-36.84L239,224.47s-2.57,54.84-3.13,61.48a122.69,122.69,0,0,1-1.91,15.4c-1.94,10.64-5.08,36-5.08,36-4.49,2.6-10.38,1.16-10.38,1.16s.32-32,.61-39.7c.35-9.36.64-8.65.64-8.65l-1.4-23.33-.92-11.61s-1.18,8.52-1.94,16.13c-.67,6.63-2.27,12.64-4.06,25-1.55,10.72-4.07,32.24-4.07,32.24-4.49,2.61-10.58.45-10.58.45S195.19,300.88,196.4,291.59Z" transform="translate(0 0.04)"/><path class="cls-15" d="M202.6,149.78c3.23.15,5.64,1,6,0a41,41,0,0,0,.74-5.05c-.37-.94-.69-1.95-.69-1.95-4.06-2.49-5.34-6.88-5.88-12-.91-8.73,3.81-16.37,12.54-17.29,8.21-.85,14.25,4.92,15.86,12.84.87,3.91,2.6,11.3.26,17.73-1.3,3.6-3,6.45-4.67,7a41.57,41.57,0,0,1-4.86-.43h0s-.44,2.42-.74,4-.18,2.38,2.92,4.29-4.69,5.83-9.77,5.45S203.55,161,202,157.66C200.23,154,200.38,149.67,202.6,149.78Z" transform="translate(0 0.04)"/><path class="cls-19" d="M207.28,150.25c-.9,2.24,1.38,5,7.45,6.88s6.61-.55,6.61-.55,8.9,4,11.8,6.08c3.65,2.55,5.26,9.92,5.75,22.36.57,14.4.62,35.76.14,39.45,0,0-6.81,6.78-15.52,6.07s-23.38-8.43-26.93-14.38c.09-12.63,1.57-14.68-.47-22-4.68-16.65-7.15-23.47-4.87-34.53,1.87-9.12,4.5-10.25,8.1-10.17A75.42,75.42,0,0,1,207.28,150.25Z" transform="translate(0 0.04)"/><path class="cls-15" d="M273.51,186.28c-7.19-1.67-16.54-2.5-19.73-4.66-7.72-5.23-14.07-10.5-18.75-13.2-5.52-3.19-7.72-2.51-10.7-1.44-3.5,1.27-3.77,5.42,2.21,10.41,7.08,5.89,12.68,9.47,22.39,15.25,2.54,1.51,30.78,4.15,38.26,4.44,2,.08,3.52.22,7.38.37s8.33-.6,11.17-2.12,3.63-2.52,3.57-3.23c-.07-.89-.89-1.12-2.27-.57a19.66,19.66,0,0,1-6.75,1.88s3.08-1,4.86-1.83a19.68,19.68,0,0,0,4.43-2.7c1.28-1.08,1.05-3.55-.35-3s-2.35,1.3-5,2.43a19.24,19.24,0,0,1-4.39,1.29,35.59,35.59,0,0,0,5-3,8.13,8.13,0,0,0,3-3.44c.33-.74-.25-2.12-1.9-1.24-1.49.78-3,2.4-6.1,3.46-2.23.76-3.91,1-3.73.55s1.52-.79,2.94-2.27,1.85-3.62,1-4.32-.71-.55-2.33.69-3.45,1.84-5.59,3.77A12.16,12.16,0,0,1,287.2,187C284.74,187.8,280.34,187.86,273.51,186.28Z" transform="translate(0 0.04)"/><path class="cls-16" d="M221.37,163.92c3.39-3.45,7.38-3.76,13.42.74s10.8,8.35,10.8,8.35a13,13,0,0,1-3.18,9.07c-3.73,4.54-7,3.6-7,3.6s-5.84-5.09-9.74-8.62S217.18,168.17,221.37,163.92Z" transform="translate(0 0.04)"/><path class="cls-17" d="M230.93,125.21s7.55-11.47-8.8-13.81c-11.79-1.68-19.37,5.89-20.24,14.12-.84,7.85,4,16,7.49,19.24,1.7.61,5.37,1,10.19-1.23a60,60,0,0,0,.22-6.43S214.05,125,230.93,125.21Z" transform="translate(0 0.04)"/></g><g class="cls-20"><path class="cls-21" d="M482,360.37c11.83,6.83,21.87,6.12,10.91,14.19-28.14,20.71-41.67,17.39-53.5,10.56l-51.48-29.73c-11.84-6.83-4.76-22,7-28.81s23.75-2.77,35.59,4.07Z" transform="translate(0 0.04)"/></g><path class="cls-14" d="M499.56,284a5.23,5.23,0,0,1-.11.95,6.66,6.66,0,0,1-.19.77c-.08.3-.15.6-.26.9s-.2.49-.31.74-.27.63-.44.94-.27.45-.4.67-.45.71-.71,1-.51.67-.8,1c-.07.07-.13.15-.2.23-.39.43-.82.84-1.27,1.25-.29.26-.61.51-.93.77s-.54.45-.84.66l-1.09.73c-.37.24-.74.5-1.15.73a30.51,30.51,0,0,1-2.85,1.45l-.86.36q-1.15.49-2.37.9l-.87.3c-.51.16-1,.3-1.56.45s-.78.22-1.19.32-1.11.24-1.67.35c-.38.08-.75.17-1.14.23-1.13.2-2.28.36-3.43.48l-1.08.09c-.68.06-1.36.11-2,.14h-4.35a10.26,10.26,0,0,1-1.53-.08l-1.4-.11-1.5-.17-1.35-.19-1.61-.28-1.25-.25c-.63-.14-1.25-.3-1.87-.46l-1-.28c-1.11-.33-2.19-.69-3.24-1.1-.52-.2-1-.42-1.52-.64-.26-.12-.53-.22-.78-.34-.76-.37-1.51-.75-2.22-1.16l-51.5-29.73c-6-3.44-8.92-7.95-8.91-12.46l-.22,80.59c0,4.51,3,9,8.91,12.45L447.91,376c.72.41,1.46.79,2.22,1.15.25.12.53.23.79.34.45.2.89.41,1.35.59l.16.06c1.05.41,2.13.77,3.24,1.09l.26.09.78.19c.62.16,1.24.32,1.87.46a3,3,0,0,1,.5.12l.76.13c.53.1,1.06.2,1.6.28l.64.11a5.94,5.94,0,0,1,.71.08c.5.07,1,.12,1.51.17l.71.08h.68l1.53.08h4.35c.69,0,1.36-.08,2-.13l.83-.06h.25c1.16-.12,2.3-.28,3.44-.48h.16c.33-.06.64-.15,1-.21q.84-.17,1.68-.36l1.18-.32c.52-.14,1.05-.28,1.56-.44l.33-.1c.19-.06.35-.14.54-.2q1.21-.42,2.37-.9l.87-.37a30.37,30.37,0,0,0,2.85-1.44l.36-.22c.28-.17.52-.35.78-.52s.75-.47,1.09-.72.57-.45.84-.67.64-.5.93-.77l.19-.15c.38-.36.74-.72,1.08-1.09l.2-.24c.2-.23.41-.45.59-.68s.13-.21.21-.31c.26-.35.49-.7.71-1.06.09-.14.21-.29.29-.44a1.63,1.63,0,0,0,.11-.23,10.08,10.08,0,0,0,.44-.94c.08-.18.19-.36.26-.54s0-.13,0-.19c.11-.3.18-.61.26-.91a6.13,6.13,0,0,0,.18-.61v-.16c0-.32.08-.63.1-.95s.07-.41.08-.62v-.27l.23-80.58C499.57,283.43,499.57,283.71,499.56,284Z" transform="translate(0 0.04)"/><path class="cls-22" d="M490.73,270.69c11.82,6.83,11.89,17.91.13,24.74s-30.89,6.84-42.72,0l-51.5-29.73c-11.82-6.83-11.89-17.91-.12-24.75s30.88-6.83,42.71,0Z" transform="translate(0 0.04)"/><path class="cls-23" d="M413.85,334.22l7-19a16.83,16.83,0,0,1-3.43-9.46c0-3.9,2.18-6,5.2-5.49a7.61,7.61,0,0,1,2.69,1c4.34,2.51,7.86,8.57,7.84,13.57,0,3.11-1.39,5.05-3.48,5.47l5.24,20.56,1.64,6.48Z" transform="translate(0 0.04)"/><path class="cls-24" d="M418.61,331.44l7-19a16.75,16.75,0,0,1-3.43-9.46,8.06,8.06,0,0,1,.44-2.71,7.61,7.61,0,0,1,2.69,1c4.34,2.51,7.86,8.57,7.84,13.57,0,3.11-1.39,5.05-3.48,5.47l5.24,20.56Z" transform="translate(0 0.04)"/><path class="cls-24" d="M427.18,212.53a9.43,9.43,0,0,0-1.35,1l-.22.2a7.51,7.51,0,0,0-1,1.25l-.27.44-.06.11a2,2,0,0,0-.14.25,6.29,6.29,0,0,0-.41.92v.06a9.76,9.76,0,0,0-.53,2.32v.09a9.74,9.74,0,0,0-.08,1.32l-.07,27v9.73a16.06,16.06,0,0,1-7.45,1.7V224.85a12.45,12.45,0,0,1,.19-2.11,1.81,1.81,0,0,1,.09-.44,5.47,5.47,0,0,1,.15-.58v-.09a4.6,4.6,0,0,1,.19-.52.14.14,0,0,1,0-.09c.06-.14.11-.27.17-.4a1.33,1.33,0,0,1,.13-.33.6.6,0,0,0,.09-.15,4.51,4.51,0,0,1,.44-.77h.05a7.62,7.62,0,0,1,.48-.64c.18-.2.36-.4.55-.59a.7.7,0,0,1,.22-.2,6.42,6.42,0,0,1,.64-.53,3.12,3.12,0,0,1,.62-.4l.2-.15Z" transform="translate(0 0.04)"/><path class="cls-24" d="M481.88,253.53v.92l-.07,26.73V291a16.18,16.18,0,0,1-7.36,1.65h-.09V279.51l.05-20.72a29.91,29.91,0,0,0-.18-3.28c-.06-.53-.13-1.08-.22-1.63v-.24c-.07-.42-.14-.86-.24-1.28a.54.54,0,0,0,0-.18c-.22-1.06-.48-2.14-.79-3.22a1.57,1.57,0,0,0-.13-.42c-.14-.48-.29-.94-.45-1.41s-.37-1.1-.57-1.65-.39-1-.59-1.5c-.25-.66-.55-1.32-.84-2a.85.85,0,0,1-.09-.22.12.12,0,0,0-.06-.09c-.53-1.17-1.11-2.36-1.75-3.53-.24-.48-.5-.94-.77-1.41-.35-.63-.7-1.25-1.08-1.87s-.85-1.3-1.27-1.94c-.2-.33-.4-.66-.62-1h0l-.22-.33a1,1,0,0,0-.13-.16,78.72,78.72,0,0,0-4.9-6.45c-.11-.14-.24-.27-.35-.4-.81-1-1.63-1.89-2.49-2.78a3.59,3.59,0,0,0-.38-.4c-.44-.46-.88-.92-1.34-1.38s-1.06-1.06-1.61-1.57c-.83-.77-1.65-1.54-2.51-2.29q-2.22-1.92-4.56-3.64l-.91-.66a59.53,59.53,0,0,0-5.22-3.37l-1.78-1c-.59-.34-1.32-.68-2-1-.45-.22-.91-.42-1.35-.62l-.57-.26-.68-.27a29.44,29.44,0,0,0-3.62-1.32l-.14,0-.44-.11c-.2-.08-.4-.11-.58-.17s-.5-.15-.73-.2h-.06l-.49-.11c-.44-.11-.85-.2-1.27-.27-.23-.06-.49-.09-.73-.13h-.13l-.89-.15h-.21a15.28,15.28,0,0,0-1.66-.15,9.42,9.42,0,0,0-1.06-.06h-.53a14.64,14.64,0,0,0-1.62.08h-.51l-.51.06a3.65,3.65,0,0,0-.46.07h-.05c-.13,0-.26.06-.39.07h0c-.31.06-.62.11-.93.2h-.15a.54.54,0,0,0-.25.06,4.6,4.6,0,0,0-.66.2,3.23,3.23,0,0,0-.51.14h-.08A8.43,8.43,0,0,0,414,204l-.13.05h0a6.24,6.24,0,0,0-.68.35,2.58,2.58,0,0,0-.44.22l7.47-4.34a14.67,14.67,0,0,1,2.35-1.08h.09a15.16,15.16,0,0,1,2-.55l.22-.06h.25c.46-.09.94-.14,1.41-.2H427c.56,0,1.13-.07,1.73-.07h1.77c.24,0,.49.06.73.07l.94.1h.09a8.48,8.48,0,0,1,.95.15,4.27,4.27,0,0,1,.69.13H434c.55.11,1.11.24,1.7.38h0c.55.13,1.11.29,1.66.46a.14.14,0,0,1,.09,0,4.23,4.23,0,0,1,.57.19c.37.11.72.22,1.06.35a.68.68,0,0,1,.2.07,5.89,5.89,0,0,1,.7.26c.27.11.55.2.84.31a2.33,2.33,0,0,0,.33.14l.75.33c.22.09.44.17.66.28a4.59,4.59,0,0,1,.5.24,5.51,5.51,0,0,1,.78.36c.17.07.33.15.5.24l.67.33c.21.11.52.27.77.42a2.53,2.53,0,0,1,.37.18l1.43.79c.14.09.29.16.42.26.64.36,1.26.75,1.88,1.15.32.18.63.4.94.6l.47.32.48.32c.64.44,1.26.88,1.89,1.34l.58.46c.18.13.37.25.55.4s.51.39.77.61c.66.49,1.28,1,1.92,1.55l.2.18.35.32c.44.36.88.73,1.32,1.13s.95.86,1.41,1.32a1.42,1.42,0,0,1,.25.24.35.35,0,0,1,.13.11q.89.83,1.71,1.68l.87.92c.13.12.26.27.39.4s.22.22.33.35c.49.53,1,1.1,1.48,1.64.24.26.46.54.68.79l.33.4c.13.15.27.3.38.44.5.59.95,1.16,1.41,1.74.17.22.33.44.51.66s.28.35.41.53l.53.7c.44.6.86,1.23,1.3,1.83l.49.71.13.19c.26.36.48.77.73,1.13.48.77,1,1.52,1.43,2.27l.17.28c.53.86,1,1.74,1.48,2.61,0,.08.07.15.11.22a2.44,2.44,0,0,1,.14.28c.22.42.44.82.65,1.24s.42.85.62,1.27c.11.23.2.47.31.69a.85.85,0,0,1,.09.22c.06.11.11.24.17.35.18.4.34.79.51,1.19s.31.77.47,1.15c.08.2.15.41.22.61a.7.7,0,0,0,.08.2c0,.12.09.24.14.36.13.41.28.79.41,1.18s.25.78.36,1.17c.06.18.11.36.17.55s0,.13.05.2.09.28.13.42c.11.4.22.79.31,1.17s.18.75.26,1.12a2.33,2.33,0,0,0,.11.51v.17a2.84,2.84,0,0,0,.08.42c.07.36.13.73.2,1.08s.09.69.15,1,0,.42.05.64a.29.29,0,0,1,0,.13v.26c0,.33.06.67.08,1S481.86,253.22,481.88,253.53Z" transform="translate(0 0.04)"/><path class="cls-23" d="M474.43,258.79l-.05,20.72v13.15c-4.47,0-8.29-1.6-10-3.85v-5.47l.09-30.32c0-10.25-11.13-25.37-24.37-33-6-3.44-11.49-4.88-15.8-4.48a11.19,11.19,0,0,0-4.41,1.26l-.2.15a3.12,3.12,0,0,0-.62.4,4.62,4.62,0,0,0-.64.53.7.7,0,0,0-.22.2,3.08,3.08,0,0,0-.55.59,3.82,3.82,0,0,0-.48.64h-.05a4.51,4.51,0,0,0-.44.77,2.09,2.09,0,0,0-.22.48,1.42,1.42,0,0,0-.17.4.14.14,0,0,0,0,.09,4.35,4.35,0,0,0-.2.61,5.47,5.47,0,0,0-.15.58,3.12,3.12,0,0,0-.09.44,12.45,12.45,0,0,0-.19,2.11v34.07c-4.41,0-8.22-1.52-10-3.72v-5.73L405.6,219c0-7.12,2.82-12.08,7.5-14.55a6.24,6.24,0,0,1,.68-.35h0l.13,0a8.43,8.43,0,0,1,1.08-.44h0a3.09,3.09,0,0,1,.59-.18,4.6,4.6,0,0,1,.66-.2.54.54,0,0,1,.25-.06h.15l.46-.1a3.56,3.56,0,0,1,.47-.1h0a2.66,2.66,0,0,0,.39-.07H418a3.65,3.65,0,0,1,.46-.07,4.43,4.43,0,0,1,.51-.06,2.17,2.17,0,0,1,.51,0,14.64,14.64,0,0,1,1.62-.08h.53a9.42,9.42,0,0,1,1.06.06,15.28,15.28,0,0,1,1.66.15,10,10,0,0,1,1.1.16h.13a3,3,0,0,1,.73.13c.42.07.83.16,1.27.27s.84.2,1.28.33c.18.06.38.09.58.17l.59.16c1.19.37,2.4.81,3.62,1.32.43.16.83.35,1.25.53s.9.4,1.35.62l1.18.59c.25.14.53.27.78.4.59.33,1.17.64,1.78,1a59.53,59.53,0,0,1,5.22,3.37l.91.66q2.34,1.72,4.56,3.64c.86.75,1.68,1.52,2.51,2.29.55.51,1.08,1,1.61,1.57s.9.92,1.34,1.38a3.59,3.59,0,0,1,.38.4c.86.89,1.68,1.83,2.49,2.78.11.13.24.26.35.4a78.72,78.72,0,0,1,4.9,6.45,4.34,4.34,0,0,1,.35.49h0c.66,1,1.28,1.94,1.89,2.93.38.62.73,1.24,1.08,1.87.27.47.53.93.77,1.41.64,1.17,1.22,2.36,1.75,3.53.06.11.11.22.15.31.29.66.59,1.32.84,2,.2.49.4,1,.59,1.5s.4,1.1.57,1.65.31.93.45,1.41a1.83,1.83,0,0,0,.13.42c.31,1.08.59,2.16.79,3.22a.54.54,0,0,1,0,.18c.1.42.17.86.24,1.28V254c.09.55.16,1.08.22,1.63A28.7,28.7,0,0,1,474.43,258.79Z" transform="translate(0 0.04)"/><path class="cls-14" d="M339.05,123.64a3.81,3.81,0,0,1,1.72,3l-.14,49.93c0,4.4-3.14,6.19-7,4L285,152.45a15.33,15.33,0,0,1-6.93-12l.14-49.93c0-1.1.79-1.55,1.74-1l5.22,3v-8c0-15.42,11-21.66,24.41-13.91s24.3,26.59,24.25,42v8Zm-15.65-9v-8c0-8.82-6.19-19.58-13.85-24s-13.93-.86-13.95,8v8l27.81,16m-8.81,36.7-1.07-12c1.79-.46,2.86-2.2,2.86-4.78a15.26,15.26,0,0,0-6.93-12c-3.83-2.21-7-.43-7,4a14.49,14.49,0,0,0,2.83,8.06l-1.13,10.7a3.33,3.33,0,0,0,.42,1.8,3.7,3.7,0,0,0,1.3,1.42l7,4a1.2,1.2,0,0,0,1.3.08,1.39,1.39,0,0,0,.44-1.3" transform="translate(0 0.04)"/><path class="cls-14" d="M335.42,233.44A5.56,5.56,0,0,1,338,237.8v7c0,1.6-1.15,2.25-2.54,1.45L278,213.1a5.58,5.58,0,0,1-2.53-4.37v-7c0-1.61,1.15-2.25,2.54-1.44Z" transform="translate(0 0.04)"/></g></g></svg>